<?xml version="1.0" encoding="utf-8"?>
<!-- Generator: Adobe Illustrator 14.0.0, SVG Export Plug-In . SVG Version: 6.00 Build 43363)  -->
<!DOCTYPE svg PUBLIC "-//W3C//DTD SVG 1.1//EN" "http://www.w3.org/Graphics/SVG/1.1/DTD/svg11.dtd">
<svg version="1.1" id="Ebene_1" xmlns="http://www.w3.org/2000/svg" xmlns:xlink="http://www.w3.org/1999/xlink" x="0px" y="0px"
	 width="1024px" height="768px" viewBox="0 0 1024 768" enable-background="new 0 0 1024 768" xml:space="preserve">
<pattern  y="768" width="72" height="72" patternUnits="userSpaceOnUse" id="USGS_19_Überschwemmung" viewBox="17.32 -73.15 72 72" overflow="visible">
	<g>
		<polygon fill="none" points="17.32,-1.149 17.32,-73.149 89.32,-73.149 89.32,-1.149 		"/>
		<line fill="none" stroke="#1A171B" stroke-width="0.3" stroke-dasharray="2,2" x1="16.32" y1="-2.149" x2="89.76" y2="-2.149"/>
		<line fill="none" stroke="#1A171B" stroke-width="0.3" stroke-dasharray="2,2" x1="16.32" y1="-6.149" x2="89.76" y2="-6.149"/>
		<line fill="none" stroke="#1A171B" stroke-width="0.3" stroke-dasharray="2,2" x1="16.32" y1="-10.149" x2="89.76" y2="-10.149"/>
		<line fill="none" stroke="#1A171B" stroke-width="0.3" stroke-dasharray="2,2" x1="16.32" y1="-14.149" x2="89.76" y2="-14.149"/>
		<line fill="none" stroke="#1A171B" stroke-width="0.3" stroke-dasharray="2,2" x1="16.32" y1="-18.149" x2="89.76" y2="-18.149"/>
		<line fill="none" stroke="#1A171B" stroke-width="0.3" stroke-dasharray="2,2" x1="16.32" y1="-22.149" x2="89.76" y2="-22.149"/>
		<line fill="none" stroke="#1A171B" stroke-width="0.3" stroke-dasharray="2,2" x1="16.32" y1="-26.149" x2="89.76" y2="-26.149"/>
		<line fill="none" stroke="#1A171B" stroke-width="0.3" stroke-dasharray="2,2" x1="16.32" y1="-30.149" x2="89.76" y2="-30.149"/>
		<line fill="none" stroke="#1A171B" stroke-width="0.3" stroke-dasharray="2,2" x1="16.32" y1="-34.149" x2="89.76" y2="-34.149"/>
		<line fill="none" stroke="#1A171B" stroke-width="0.3" stroke-dasharray="2,2" x1="16.32" y1="-38.149" x2="89.76" y2="-38.149"/>
		<line fill="none" stroke="#1A171B" stroke-width="0.3" stroke-dasharray="2,2" x1="16.32" y1="-42.149" x2="89.76" y2="-42.149"/>
		<line fill="none" stroke="#1A171B" stroke-width="0.3" stroke-dasharray="2,2" x1="16.32" y1="-46.149" x2="89.76" y2="-46.149"/>
		<line fill="none" stroke="#1A171B" stroke-width="0.3" stroke-dasharray="2,2" x1="16.32" y1="-50.149" x2="89.76" y2="-50.149"/>
		<line fill="none" stroke="#1A171B" stroke-width="0.3" stroke-dasharray="2,2" x1="16.32" y1="-54.149" x2="89.76" y2="-54.149"/>
		<line fill="none" stroke="#1A171B" stroke-width="0.3" stroke-dasharray="2,2" x1="16.32" y1="-58.149" x2="89.76" y2="-58.149"/>
		<line fill="none" stroke="#1A171B" stroke-width="0.3" stroke-dasharray="2,2" x1="16.32" y1="-62.149" x2="89.76" y2="-62.149"/>
		<line fill="none" stroke="#1A171B" stroke-width="0.3" stroke-dasharray="2,2" x1="16.32" y1="-66.149" x2="89.76" y2="-66.149"/>
		<line fill="none" stroke="#1A171B" stroke-width="0.3" stroke-dasharray="2,2" x1="16.32" y1="-70.149" x2="89.76" y2="-70.149"/>
		<line fill="none" stroke="#1A171B" stroke-width="0.3" stroke-dasharray="2,2" x1="16.32" y1="-74.149" x2="89.76" y2="-74.149"/>
		<line fill="none" stroke="#1A171B" stroke-width="0.3" stroke-dasharray="2,2" x1="18.36" y1="-0.149" x2="91.8" y2="-0.149"/>
		<line fill="none" stroke="#1A171B" stroke-width="0.3" stroke-dasharray="2,2" x1="18.36" y1="-4.149" x2="91.8" y2="-4.149"/>
		<line fill="none" stroke="#1A171B" stroke-width="0.3" stroke-dasharray="2,2" x1="18.36" y1="-8.149" x2="91.8" y2="-8.149"/>
		<line fill="none" stroke="#1A171B" stroke-width="0.3" stroke-dasharray="2,2" x1="18.36" y1="-12.149" x2="91.8" y2="-12.149"/>
		<line fill="none" stroke="#1A171B" stroke-width="0.3" stroke-dasharray="2,2" x1="18.36" y1="-16.149" x2="91.8" y2="-16.149"/>
		<line fill="none" stroke="#1A171B" stroke-width="0.3" stroke-dasharray="2,2" x1="18.36" y1="-20.149" x2="91.8" y2="-20.149"/>
		<line fill="none" stroke="#1A171B" stroke-width="0.3" stroke-dasharray="2,2" x1="18.36" y1="-24.149" x2="91.8" y2="-24.149"/>
		<line fill="none" stroke="#1A171B" stroke-width="0.3" stroke-dasharray="2,2" x1="18.36" y1="-28.149" x2="91.8" y2="-28.149"/>
		<line fill="none" stroke="#1A171B" stroke-width="0.3" stroke-dasharray="2,2" x1="18.36" y1="-32.149" x2="91.8" y2="-32.149"/>
		<line fill="none" stroke="#1A171B" stroke-width="0.3" stroke-dasharray="2,2" x1="18.36" y1="-36.149" x2="91.8" y2="-36.149"/>
		<line fill="none" stroke="#1A171B" stroke-width="0.3" stroke-dasharray="2,2" x1="18.36" y1="-40.149" x2="91.8" y2="-40.149"/>
		<line fill="none" stroke="#1A171B" stroke-width="0.3" stroke-dasharray="2,2" x1="18.36" y1="-44.149" x2="91.8" y2="-44.149"/>
		<line fill="none" stroke="#1A171B" stroke-width="0.3" stroke-dasharray="2,2" x1="18.36" y1="-48.149" x2="91.8" y2="-48.149"/>
		<line fill="none" stroke="#1A171B" stroke-width="0.3" stroke-dasharray="2,2" x1="18.36" y1="-52.149" x2="91.8" y2="-52.149"/>
		<line fill="none" stroke="#1A171B" stroke-width="0.3" stroke-dasharray="2,2" x1="18.36" y1="-56.149" x2="91.8" y2="-56.149"/>
		<line fill="none" stroke="#1A171B" stroke-width="0.3" stroke-dasharray="2,2" x1="18.36" y1="-60.149" x2="91.8" y2="-60.149"/>
		<line fill="none" stroke="#1A171B" stroke-width="0.3" stroke-dasharray="2,2" x1="18.36" y1="-64.149" x2="91.8" y2="-64.149"/>
		<line fill="none" stroke="#1A171B" stroke-width="0.3" stroke-dasharray="2,2" x1="18.36" y1="-68.149" x2="91.8" y2="-68.149"/>
		<line fill="none" stroke="#1A171B" stroke-width="0.3" stroke-dasharray="2,2" x1="18.36" y1="-72.149" x2="91.8" y2="-72.149"/>
		<line fill="none" stroke="#1A171B" stroke-width="0.3" stroke-dasharray="2,2" x1="0" y1="-68.149" x2="10.2" y2="-68.149"/>
	</g>
</pattern>
<linearGradient id="SVGID_1_" gradientUnits="userSpaceOnUse" x1="1026.5059" y1="90.5522" x2="2145.4944" y2="677.4467">
	<stop  offset="0.0184" style="stop-color:#000000"/>
	<stop  offset="0.0798" style="stop-color:#0B0B0C"/>
	<stop  offset="0.2127" style="stop-color:#1D1D20"/>
	<stop  offset="0.3458" style="stop-color:#28272C"/>
	<stop  offset="0.4785" style="stop-color:#2C2B30"/>
	<stop  offset="1" style="stop-color:#000000"/>
</linearGradient>
<rect x="1074" y="0" fill="url(#SVGID_1_)" width="1024.001" height="768"/>
<g>
	<defs>
		<rect id="SVGID_2_" x="1072.436" y="0.151" width="1024.563" height="768.97"/>
	</defs>
	<use xlink:href="#SVGID_2_"  overflow="visible" fill="url(#USGS_19_Überschwemmung)"/>
	<clipPath id="SVGID_3_">
		<use xlink:href="#SVGID_2_"  overflow="visible"/>
	</clipPath>
	<g clip-path="url(#SVGID_3_)">
		<defs>
			<rect id="SVGID_4_" x="183.109" y="-347.275" width="2564.096" height="2756.245"/>
		</defs>
		<use xlink:href="#SVGID_4_"  overflow="visible" fill="url(#USGS_19_Überschwemmung)"/>
		<clipPath id="SVGID_5_">
			<use xlink:href="#SVGID_4_"  overflow="visible"/>
		</clipPath>
		<rect x="952.338" y="0.151" clip-path="url(#SVGID_5_)" fill="url(#USGS_19_Überschwemmung)" width="1024.558" height="768.97"/>
	</g>
</g>
<g>
	<g>
		<text transform="matrix(1 0 0 1 423.1128 124.9521)"><tspan x="0" y="0" font-family="'HartnHirn'" font-size="22.8868" letter-spacing="1">H</tspan><tspan x="19.98" y="0" font-family="'HartnHirn'" font-size="22.8868">A</tspan><tspan x="39.205" y="0" font-family="'HartnHirn'" font-size="22.8868" letter-spacing="1">NSECR</tspan><tspan x="127.135" y="0" font-family="'HartnHirn'" font-size="22.8868">A</tspan><tspan x="146.36" y="0" font-family="'HartnHirn'" font-size="22.8868" letter-spacing="1">FT</tspan></text>
		<text transform="matrix(1 0 0 1 424.6572 143.2207)" font-family="'Antonio-Regular'" font-size="9.7995" letter-spacing="3">MIT HERZ, HAND &amp; VERSTAND</text>
		<g>
			<path fill-rule="evenodd" clip-rule="evenodd" d="M489.093,71.451c2.216-1.207,8.293-6.135,6.229-10.574
				c-1.093-2.349-5.082-1.688-6.373,0c-1.022-1.64-4.033-2.34-5.505-0.869C479.662,63.791,486.504,70.263,489.093,71.451z"/>
			<path fill-rule="evenodd" clip-rule="evenodd" d="M550.17,57.014c-0.721-11.205-5.934-19.049-12.022-24.913
				c-5.876-5.66-15.67-10.57-27.375-9.705c-5.664,0.418-10.371,1.833-14.628,4.056c-4.194,2.189-7.801,4.851-10.573,7.967
				c-5.586,6.275-10.217,15.498-9.416,27.376c0.751,11.138,5.536,18.887,12.021,24.913c6.358,5.907,15.787,10.364,27.375,9.704
				c10.761-0.611,19.231-5.655,24.914-12.022C546.171,77.997,550.95,69.119,550.17,57.014z M537.859,83.086
				c-5.467,5.921-13.662,10.176-23.611,10.573c-10.582,0.423-19.228-4.02-24.767-9.56c-5.989-5.988-9.985-12.6-10.573-23.61
				c-0.568-10.607,3.879-19.065,9.269-24.769c2.582-2.731,5.939-5.32,9.85-7.242c3.877-1.906,8.935-3.088,14.049-3.332
				c10.646-0.506,19.407,4.199,24.769,9.561c5.464,5.462,10.243,13.047,10.576,23.609C547.772,69.557,543.326,77.163,537.859,83.086
				z"/>
			<path fill-rule="evenodd" clip-rule="evenodd" d="M515.841,84.389c0-9.077,0-18.154,0-27.23c4.926,0,9.851,0,14.774,0
				c0-1.835,0-3.67,0-5.504c-4.924,0-9.849,0-14.774,0c0-1.085,0-2.17,0-3.255c4.394-1.207,7.625-5.219,7.625-9.994
				c0-5.729-4.646-10.375-10.375-10.375c-5.729,0-10.375,4.646-10.375,10.375c0,4.773,3.229,8.784,7.619,9.993
				c-0.077,1.056,0.187,2.452-0.143,3.256c-4.875,0-9.753,0-14.628,0c0,1.834,0,3.669,0,5.504c4.924,0,9.848,0,14.773,0
				c-0.097,9.077,0.192,18.54-0.146,27.376c-9.067-1.168-14.498-5.974-18.684-12.022c-1.932,0.095-4.248-0.193-5.938,0.145
				c5.239,9.443,13.416,17.526,27.518,17.526c14.116,0,22.474-7.996,27.521-17.671c-1.979,0-3.958,0-5.938,0
				C530.587,78.566,524.81,83.701,515.841,84.389z M508.466,38.406c0-2.554,2.07-4.625,4.625-4.625c2.554,0,4.625,2.071,4.625,4.625
				s-2.071,4.625-4.625,4.625C510.536,43.031,508.466,40.96,508.466,38.406z"/>
			<path fill-rule="evenodd" clip-rule="evenodd" d="M536.251,58.02c0.179-0.556,0.414-1.008,0.144-1.159
				c-1.066-0.499-1.726,0.564-2.027,1.304C535.128,58.25,535.465,57.91,536.251,58.02z"/>
			<path fill-rule="evenodd" clip-rule="evenodd" d="M538.568,59.034c0.321-0.395,0.343-1.184-0.146-1.449
				c-0.56-0.288-1.139,0.02-1.158,0.58C538.021,58.133,538.208,58.669,538.568,59.034z"/>
			<path fill-rule="evenodd" clip-rule="evenodd" d="M540.016,65.407c1.175,0.11,0.998-1.127,1.884-1.304
				c-0.308,1.312-0.869,2.165-2.172,2.028c-0.682-0.072-0.745-0.965-1.594-0.724c-0.64,0.422-0.031,2.094-0.869,2.317
				c0.125-2.685-1.137-3.982-3.187-4.491c0.354-0.708,0.546-1.578,0.725-2.462c1.179-0.316,3.841-0.759,3.041-1.448
				c-1.127-1.027-3.604-0.45-4.925,0c-1.192,0.966-1.734,1.984-1.883,3.476c-0.394,3.966,4.781,4.203,3.767,8.256
				c2.026,0,4.054,0,6.082,0c0.491-2.929,2.706-5.989,1.304-9.416C541.459,59.962,538.189,65.144,540.016,65.407z"/>
			<path fill-rule="evenodd" clip-rule="evenodd" d="M537.409,64.394c1.464,0.599,1.739-1.021,2.173-1.883
				c0.474-0.942,1.298-1.705,1.298-2.773c-0.036-0.377-0.161-0.591-0.292-0.646C538.814,58.277,536.515,64.087,537.409,64.394z"/>
			<path fill-rule="evenodd" clip-rule="evenodd" d="M535.381,61.641c-0.158,0.351-0.214,0.557-0.145,1.014
				c0.646-0.017,0.898,0.358,1.449,0.435c0.228-0.883,1.052-1.938,1.013-2.607C537.206,61.149,536.102,61.201,535.381,61.641z"/>
		</g>
	</g>
	<g>
		<text transform="matrix(1 0 0 1 421.1123 122.9521)"><tspan x="0" y="0" fill="#FFFFFF" font-family="'HartnHirn'" font-size="22.8868" letter-spacing="1">H</tspan><tspan x="19.98" y="0" fill="#FFFFFF" font-family="'HartnHirn'" font-size="22.8868">A</tspan><tspan x="39.205" y="0" fill="#FFFFFF" font-family="'HartnHirn'" font-size="22.8868" letter-spacing="1">NSECR</tspan><tspan x="127.136" y="0" fill="#FFFFFF" font-family="'HartnHirn'" font-size="22.8868">A</tspan><tspan x="146.36" y="0" fill="#FFFFFF" font-family="'HartnHirn'" font-size="22.8868" letter-spacing="1">FT</tspan></text>
		
			<text transform="matrix(1 0 0 1 422.6572 141.2202)" fill="#FFFFFF" font-family="'Antonio-Regular'" font-size="9.7995" letter-spacing="3">MIT HERZ, HAND &amp; VERSTAND</text>
		<g>
			<path fill-rule="evenodd" clip-rule="evenodd" fill="#FFFFFF" d="M487.093,69.451c2.216-1.207,8.293-6.135,6.229-10.574
				c-1.093-2.349-5.082-1.688-6.373,0c-1.022-1.64-4.033-2.34-5.505-0.869C477.662,61.791,484.504,68.263,487.093,69.451z"/>
			<path fill-rule="evenodd" clip-rule="evenodd" fill="#FFFFFF" d="M548.17,55.014c-0.721-11.205-5.934-19.049-12.022-24.913
				c-5.876-5.66-15.67-10.57-27.375-9.705c-5.664,0.418-10.371,1.833-14.628,4.056c-4.194,2.189-7.801,4.851-10.573,7.967
				c-5.586,6.275-10.217,15.498-9.416,27.376c0.751,11.138,5.536,18.887,12.021,24.913c6.358,5.907,15.787,10.364,27.375,9.704
				c10.761-0.611,19.231-5.655,24.914-12.022C544.171,75.997,548.95,67.119,548.17,55.014z M535.859,81.086
				c-5.467,5.921-13.662,10.176-23.611,10.573c-10.582,0.423-19.228-4.02-24.767-9.56c-5.989-5.988-9.985-12.6-10.573-23.61
				c-0.568-10.607,3.879-19.065,9.269-24.769c2.582-2.731,5.939-5.32,9.85-7.242c3.877-1.906,8.935-3.088,14.049-3.332
				c10.646-0.506,19.407,4.199,24.769,9.561c5.464,5.462,10.243,13.047,10.576,23.609C545.772,67.557,541.326,75.163,535.859,81.086
				z"/>
			<path fill-rule="evenodd" clip-rule="evenodd" fill="#FFFFFF" d="M513.841,82.389c0-9.077,0-18.154,0-27.23
				c4.926,0,9.851,0,14.774,0c0-1.835,0-3.67,0-5.504c-4.924,0-9.849,0-14.774,0c0-1.085,0-2.17,0-3.255
				c4.394-1.207,7.625-5.219,7.625-9.994c0-5.729-4.646-10.375-10.375-10.375c-5.729,0-10.375,4.646-10.375,10.375
				c0,4.773,3.229,8.784,7.619,9.993c-0.077,1.056,0.187,2.452-0.143,3.256c-4.875,0-9.753,0-14.628,0c0,1.834,0,3.669,0,5.504
				c4.924,0,9.848,0,14.773,0c-0.097,9.077,0.192,18.54-0.146,27.376c-9.067-1.168-14.498-5.974-18.684-12.022
				c-1.932,0.095-4.248-0.193-5.938,0.145c5.239,9.443,13.416,17.526,27.518,17.526c14.116,0,22.474-7.996,27.521-17.671
				c-1.979,0-3.958,0-5.938,0C528.587,76.566,522.81,81.701,513.841,82.389z M506.466,36.406c0-2.554,2.07-4.625,4.625-4.625
				c2.554,0,4.625,2.071,4.625,4.625s-2.071,4.625-4.625,4.625C508.536,41.031,506.466,38.96,506.466,36.406z"/>
			<path fill-rule="evenodd" clip-rule="evenodd" fill="#FFFFFF" d="M534.251,56.02c0.179-0.556,0.414-1.008,0.144-1.159
				c-1.066-0.499-1.726,0.564-2.027,1.304C533.128,56.25,533.465,55.91,534.251,56.02z"/>
			<path fill-rule="evenodd" clip-rule="evenodd" fill="#FFFFFF" d="M536.568,57.034c0.321-0.395,0.343-1.184-0.146-1.449
				c-0.56-0.288-1.139,0.02-1.158,0.58C536.021,56.133,536.208,56.669,536.568,57.034z"/>
			<path fill-rule="evenodd" clip-rule="evenodd" fill="#FFFFFF" d="M538.016,63.407c1.175,0.11,0.998-1.127,1.884-1.304
				c-0.308,1.312-0.869,2.165-2.172,2.028c-0.682-0.072-0.745-0.965-1.594-0.724c-0.64,0.422-0.031,2.094-0.869,2.317
				c0.125-2.685-1.137-3.982-3.187-4.491c0.354-0.708,0.546-1.578,0.725-2.462c1.179-0.316,3.841-0.759,3.041-1.448
				c-1.127-1.027-3.604-0.45-4.925,0c-1.192,0.966-1.734,1.984-1.883,3.476c-0.394,3.966,4.781,4.203,3.767,8.256
				c2.026,0,4.054,0,6.082,0c0.491-2.929,2.706-5.989,1.304-9.416C539.459,57.962,536.189,63.144,538.016,63.407z"/>
			<path fill-rule="evenodd" clip-rule="evenodd" fill="#FFFFFF" d="M535.409,62.394c1.464,0.599,1.739-1.021,2.173-1.883
				c0.474-0.942,1.298-1.705,1.298-2.773c-0.036-0.377-0.161-0.591-0.292-0.646C536.814,56.277,534.515,62.087,535.409,62.394z"/>
			<path fill-rule="evenodd" clip-rule="evenodd" fill="#FFFFFF" d="M533.381,59.641c-0.158,0.351-0.214,0.557-0.145,1.014
				c0.646-0.017,0.898,0.358,1.449,0.435c0.228-0.883,1.052-1.938,1.013-2.607C535.206,59.149,534.102,59.201,533.381,59.641z"/>
		</g>
	</g>
</g>
<linearGradient id="SVGID_6_" gradientUnits="userSpaceOnUse" x1="-315.2134" y1="415.334" x2="36.3792" y2="549.8655">
	<stop  offset="0.0184" style="stop-color:#000000"/>
	<stop  offset="0.0798" style="stop-color:#0B0B0C"/>
	<stop  offset="0.2127" style="stop-color:#1D1D20"/>
	<stop  offset="0.3458" style="stop-color:#28272C"/>
	<stop  offset="0.4785" style="stop-color:#2C2B30"/>
	<stop  offset="1" style="stop-color:#000000"/>
</linearGradient>
<path fill="url(#SVGID_6_)" d="M-266.083,266.102v182.964c-0.357-0.002-0.718,0.002-1.083,0.02
	c-3.103,0.148-6.849,1.427-9.201,2.583c-2.373,1.166-4.6,2.843-6.167,4.5c-3.27,3.46-6.012,9.397-5.667,15.833
	c0.357,6.68,3.367,11.034,7,14.667c3.319,3.319,8.855,6.016,15.167,5.833l-0.051,0.604c0,0,0,185.964,0,185.964h200.987V266.102
	H-266.083z"/>
<path fill="url(#USGS_19_Überschwemmung)" d="M-266.083,266.102v168.987v13.278c6.269,0.071,11.49,2.811,14.735,5.938
	c3.694,3.558,6.857,8.317,7.294,15.114c0.474,7.345-2.426,12.731-5.887,16.609c-3.448,3.863-8.587,6.923-15.116,7.294
	c-0.346,0.02-0.687,0.026-1.027,0.031v13.752c0,0,0,171.964,0,171.964h200.987V266.102H-266.083z"/>
<g>
	<g>
		<rect x="-348.129" y="462.972" fill="#FFFFFF" width="21.235" height="3.641"/>
		<rect x="-348.129" y="469.038" fill="#FFFFFF" width="21.235" height="3.641"/>
		<rect x="-348.129" y="475.106" fill="#FFFFFF" width="21.235" height="3.64"/>
	</g>
	<g>
		<path fill="#FFFFFF" d="M-338.96,448.417c7.102-0.524,13.044,2.454,16.609,5.888c3.694,3.558,6.857,8.317,7.294,15.114
			c0.474,7.345-2.426,12.731-5.887,16.609c-3.448,3.863-8.587,6.923-15.116,7.294c-7.031,0.4-12.751-2.304-16.609-5.888
			c-3.935-3.656-6.838-8.357-7.293-15.115c-0.486-7.206,2.323-12.802,5.712-16.608c1.682-1.891,3.871-3.506,6.415-4.834
			C-345.252,449.529-342.396,448.67-338.96,448.417z M-346.693,452.107c-2.373,1.166-4.409,2.737-5.976,4.395
			c-3.27,3.46-5.968,8.591-5.624,15.026c0.357,6.68,2.782,10.691,6.415,14.324c3.361,3.361,8.606,6.058,15.027,5.8
			c6.036-0.24,11.008-2.822,14.325-6.414c3.316-3.594,6.014-8.209,5.8-15.028c-0.202-6.408-3.102-11.009-6.416-14.323
			c-3.253-3.253-8.569-6.107-15.027-5.801C-341.272,450.234-344.341,450.951-346.693,452.107z"/>
	</g>
</g>
<g>
	<polygon fill="#FFFFFF" points="-257.712,464.638 -260.286,462.064 -266.507,468.286 -272.73,462.063 -275.304,464.638 
		-269.082,470.86 -275.302,477.08 -272.728,479.653 -266.508,473.434 -260.289,479.653 -257.714,477.079 -263.934,470.859 	"/>
	<g>
		<path fill="#FFFFFF" d="M-267.957,448.417c7.102-0.524,13.044,2.454,16.609,5.888c3.694,3.558,6.857,8.317,7.294,15.114
			c0.474,7.345-2.426,12.731-5.887,16.609c-3.448,3.863-8.587,6.923-15.116,7.294c-7.031,0.4-12.751-2.304-16.609-5.888
			c-3.935-3.656-6.838-8.357-7.293-15.115c-0.486-7.206,2.323-12.802,5.712-16.608c1.682-1.891,3.871-3.506,6.415-4.834
			C-274.249,449.529-271.393,448.67-267.957,448.417z M-275.689,452.107c-2.373,1.166-4.409,2.737-5.976,4.395
			c-3.27,3.46-5.968,8.591-5.624,15.026c0.357,6.68,2.782,10.691,6.415,14.324c3.361,3.361,8.606,6.058,15.027,5.8
			c6.036-0.24,11.008-2.822,14.325-6.414c3.316-3.594,6.014-8.209,5.8-15.028c-0.202-6.408-3.102-11.009-6.416-14.323
			c-3.253-3.253-8.569-6.107-15.027-5.801C-270.269,450.234-273.337,450.951-275.689,452.107z"/>
	</g>
</g>
<path fill="none" stroke="#FFFFFF" stroke-width="2" d="M-266.083,266.102v182.964c-0.357-0.002-0.718,0.002-1.083,0.02
	c-3.103,0.148-6.849,1.427-9.201,2.583c-2.373,1.166-4.6,2.843-6.167,4.5c-3.27,3.46-6.012,9.397-5.667,15.833
	c0.357,6.68,3.367,11.034,7,14.667c3.319,3.319,8.855,6.016,15.167,5.833l-0.051,0.604c0,0,0,185.964,0,185.964h200.987V266.102
	H-266.083z"/>
<g>
	<g>
		<path fill-rule="evenodd" clip-rule="evenodd" d="M-123.841,352.466c-0.801-12.456-6.596-21.177-13.365-27.695
			c-6.533-6.292-17.42-11.751-30.434-10.79c-6.296,0.465-11.528,2.038-16.262,4.509c-4.663,2.433-8.672,5.393-11.754,8.856
			c-6.209,6.976-11.358,17.229-10.467,30.435c0.834,12.382,6.154,20.997,13.364,27.695c7.069,6.567,17.551,11.522,30.433,10.789
			c11.963-0.679,21.38-6.286,27.697-13.366C-128.287,375.792-122.974,365.923-123.841,352.466z M-137.527,381.45
			c-6.077,6.583-15.188,11.314-26.248,11.755c-11.764,0.471-21.375-4.47-27.534-10.628c-6.658-6.657-11.1-14.007-11.754-26.248
			c-0.632-11.792,4.312-21.194,10.304-27.535c2.871-3.036,6.603-5.915,10.95-8.051c4.31-2.119,9.932-3.433,15.618-3.704
			c11.834-0.562,21.575,4.667,27.535,10.628c6.074,6.073,11.387,14.504,11.757,26.246
			C-126.507,366.409-131.45,374.865-137.527,381.45z"/>
		<g>
			<path d="M-166.295,330.5c-0.697,0.004-1.394,0.007-2.091,0.011c-4.128,0.267-7.093,1.433-9.696,3.491
				c-1.759,1.392-3.336,3.185-4.948,4.813c-0.496,0.501-1.35,1.223-1.524,1.728c-0.391,1.13-0.069,2.639-0.445,3.768
				c-0.114,0.341-0.327,0.766-0.552,1.025c-0.337,0.387-1.369,1.08-2.132,1.034c-0.474-0.029-0.762-0.427-1.35-0.411
				c-0.934,0.023-1.348,0.564-1.854,1.125c-0.68,0.754-1.225,1.334-0.87,2.515c0.34,1.129,1.614,1.966,2.572,2.914
				c0.468,0.463,0.895,0.933,1.355,1.388c0.471,0.467,0.919,1.058,1.541,1.247c1.43,0.435,2.266-0.674,2.921-1.363
				c0.415-0.438,0.913-1.062,0.873-1.864c-0.038-0.741-0.491-0.646-0.518-1.345c-0.047-1.188,0.947-2.15,1.705-2.751
				c0.835-0.662,2.113-1.272,3.388-1.041c0.799,0.146,1.137,0.58,1.679,1.106c0.146,0.143,0.851,1.026,1.028,1.018
				c0.02-0.002,0.536-0.509,0.694-0.655c1.732-1.595,3.171-3.351,4.809-4.86c-0.737-1.08-2.249-1.581-2.341-3.195
				c-0.04-0.689,0.224-1.277,0.548-1.769c0.484-0.735,1.398-1.434,2.221-2.01c2.442-1.713,5.992-3.013,9.743-3.12
				c0.008-0.565,0.084-1.299,0.038-1.767C-161.599,331.019-163.835,330.646-166.295,330.5z"/>
		</g>
		<polygon points="-203.01,365.596 -197.584,359.599 -199.012,355.315 -198.441,353.601 -190.015,362.026 -192.157,362.455 
			-195.87,361.312 -201.868,367.595 		"/>
		
			<rect x="-177.516" y="357.334" transform="matrix(0.7071 0.7071 -0.7071 0.7071 209.4383 217.002)" width="40.563" height="7.981"/>
	</g>
	<g>
		<path d="M-123.841,471.541c-0.801-12.457-6.596-21.179-13.365-27.696c-6.533-6.292-17.42-11.753-30.434-10.79
			c-6.296,0.466-11.528,2.038-16.262,4.509c-4.663,2.434-8.672,5.393-11.754,8.857c-6.209,6.976-11.358,17.229-10.467,30.435
			c0.834,12.383,6.154,20.998,13.364,27.696c7.069,6.568,17.551,11.522,30.433,10.79c11.963-0.68,21.38-6.287,27.697-13.365
			C-128.287,494.868-122.974,484.999-123.841,471.541z M-137.527,500.528c-6.077,6.581-15.188,11.312-26.248,11.753
			c-11.764,0.471-21.375-4.469-27.534-10.628c-6.658-6.656-11.1-14.006-11.754-26.246c-0.632-11.794,4.312-21.197,10.304-27.538
			c2.871-3.035,6.603-5.915,10.95-8.052c4.31-2.118,9.932-3.432,15.618-3.704c11.834-0.562,21.575,4.669,27.535,10.629
			c6.074,6.073,11.387,14.506,11.757,26.249C-126.507,485.485-131.45,493.941-137.527,500.528z"/>
		<path d="M-148.192,454.028l-9.507-2.45l-1.31,0.007c-0.592,2.276-3.14,3.989-6.193,3.989c-3.026,0-5.555-1.683-6.176-3.932
			l-1.844,0.011l-9.581,2.3l-10.249,10.696l5.421,8.765l4.457-1.56l0.074,25.4h34.982l0.149-25.548l4.159,1.707l5.793-8.912
			L-148.192,454.028z M-182.6,471.685l-0.705-0.38c3.37-6.262,0.155-16.046,0.122-16.144l0.759-0.254
			C-182.285,455.321-179.067,465.121-182.6,471.685z M-165.1,457.639c-3.599,0-6.66-1.735-7.443-4.219l0.789-0.249
			c0.665,2.111,3.463,3.643,6.654,3.643c3.23,0,6.037-1.554,6.672-3.693l0.792,0.234
			C-158.373,455.838-161.513,457.639-165.1,457.639z M-148.365,471.685c-3.533-6.563-0.315-16.363-0.176-16.777l0.759,0.254
			c-0.033,0.098-3.246,9.887,0.122,16.144L-148.365,471.685z"/>
	</g>
	<g>
		<path d="M-123.841,590.621c-0.801-12.458-6.596-21.18-13.365-27.697c-6.533-6.292-17.42-11.752-30.434-10.79
			c-6.296,0.466-11.528,2.038-16.262,4.508c-4.663,2.436-8.672,5.395-11.754,8.858c-6.209,6.977-11.358,17.229-10.467,30.435
			c0.834,12.383,6.154,20.998,13.364,27.697c7.069,6.567,17.551,11.521,30.433,10.789c11.963-0.68,21.38-6.287,27.697-13.365
			C-128.287,613.947-122.974,604.077-123.841,590.621z M-137.527,619.607c-6.077,6.581-15.188,11.312-26.248,11.754
			c-11.764,0.471-21.375-4.47-27.534-10.628c-6.658-6.657-11.1-14.007-11.754-26.247c-0.632-11.794,4.312-21.196,10.304-27.538
			c2.871-3.036,6.603-5.915,10.95-8.051c4.31-2.119,9.932-3.434,15.618-3.704c11.834-0.562,21.575,4.668,27.535,10.629
			c6.074,6.073,11.387,14.505,11.757,26.247C-126.507,604.565-131.45,613.021-137.527,619.607z"/>
		<g>
			<path d="M-169.717,591.999c0,0,26-21.445,27.199-22.535c1.201-1.094,1.747-0.658,0.655,0.76
				c-1.09,1.42-20.888,28.365-20.888,28.365L-169.717,591.999z"/>
			<polygon points="-170.212,592.766 -163.405,599.136 -173.206,605.198 -176.015,602.388 			"/>
			<path d="M-175.702,603.387c0,0-3.187-0.766-5.867,2.296c-2.679,3.062-2.934,10.46-8.292,10.97c0,0,1.147,0.639,1.785,0.386
				l-0.638,0.253c0,0,1.532,0.766,3.955-0.766l-0.256,0.765c0,0,13.713-4.4,10.907-12.246L-175.702,603.387z"/>
		</g>
	</g>
	<g>
		<path fill-rule="evenodd" clip-rule="evenodd" fill="#FFFFFF" d="M-125.841,350.466c-0.801-12.456-6.596-21.177-13.365-27.695
			c-6.533-6.292-17.42-11.751-30.434-10.79c-6.296,0.465-11.528,2.038-16.262,4.509c-4.663,2.433-8.672,5.393-11.754,8.856
			c-6.209,6.976-11.358,17.229-10.467,30.435c0.834,12.382,6.154,20.997,13.364,27.695c7.069,6.567,17.551,11.522,30.433,10.789
			c11.963-0.679,21.38-6.286,27.697-13.366C-130.287,373.792-124.974,363.923-125.841,350.466z M-139.527,379.45
			c-6.077,6.583-15.188,11.314-26.248,11.755c-11.764,0.471-21.375-4.47-27.534-10.628c-6.658-6.657-11.1-14.007-11.754-26.248
			c-0.632-11.792,4.312-21.194,10.304-27.535c2.871-3.036,6.603-5.915,10.95-8.051c4.31-2.119,9.932-3.433,15.618-3.704
			c11.834-0.562,21.575,4.667,27.535,10.628c6.074,6.073,11.387,14.504,11.757,26.246
			C-128.507,364.409-133.45,372.865-139.527,379.45z"/>
		<g>
			<path fill="#FFFFFF" d="M-168.295,328.5c-0.697,0.004-1.394,0.007-2.091,0.011c-4.128,0.267-7.093,1.433-9.696,3.491
				c-1.759,1.392-3.336,3.185-4.948,4.813c-0.496,0.501-1.35,1.223-1.524,1.728c-0.391,1.13-0.069,2.639-0.445,3.768
				c-0.114,0.341-0.327,0.766-0.552,1.025c-0.337,0.387-1.369,1.08-2.132,1.034c-0.474-0.029-0.762-0.427-1.35-0.411
				c-0.934,0.023-1.348,0.564-1.854,1.125c-0.68,0.754-1.225,1.334-0.87,2.515c0.34,1.129,1.614,1.966,2.572,2.914
				c0.468,0.463,0.895,0.933,1.355,1.388c0.471,0.467,0.919,1.058,1.541,1.247c1.43,0.435,2.266-0.674,2.921-1.363
				c0.415-0.438,0.913-1.062,0.873-1.864c-0.038-0.741-0.491-0.646-0.518-1.345c-0.047-1.188,0.947-2.15,1.705-2.751
				c0.835-0.662,2.113-1.272,3.388-1.041c0.799,0.146,1.137,0.58,1.679,1.106c0.146,0.143,0.851,1.026,1.028,1.018
				c0.02-0.002,0.536-0.509,0.694-0.655c1.732-1.595,3.171-3.351,4.809-4.86c-0.737-1.08-2.249-1.581-2.341-3.195
				c-0.04-0.689,0.224-1.277,0.548-1.769c0.484-0.735,1.398-1.434,2.221-2.01c2.442-1.713,5.992-3.013,9.743-3.12
				c0.008-0.565,0.084-1.299,0.038-1.767C-163.599,329.019-165.835,328.646-168.295,328.5z"/>
		</g>
		<polygon fill="#FFFFFF" points="-205.01,363.596 -199.584,357.599 -201.012,353.315 -200.441,351.601 -192.015,360.026 
			-194.157,360.455 -197.87,359.312 -203.868,365.595 		"/>
		
			<rect x="-179.516" y="355.334" transform="matrix(0.7071 0.7071 -0.7071 0.7071 207.4383 217.8304)" fill="#FFFFFF" width="40.563" height="7.981"/>
	</g>
	<g>
		<path fill="#FFFFFF" d="M-125.841,469.541c-0.801-12.457-6.596-21.179-13.365-27.696c-6.533-6.292-17.42-11.753-30.434-10.79
			c-6.296,0.466-11.528,2.038-16.262,4.509c-4.663,2.434-8.672,5.393-11.754,8.857c-6.209,6.976-11.358,17.229-10.467,30.435
			c0.834,12.383,6.154,20.998,13.364,27.696c7.069,6.568,17.551,11.522,30.433,10.79c11.963-0.68,21.38-6.287,27.697-13.365
			C-130.287,492.868-124.974,482.999-125.841,469.541z M-139.527,498.528c-6.077,6.581-15.188,11.312-26.248,11.753
			c-11.764,0.471-21.375-4.469-27.534-10.628c-6.658-6.656-11.1-14.006-11.754-26.246c-0.632-11.794,4.312-21.197,10.304-27.538
			c2.871-3.035,6.603-5.915,10.95-8.052c4.31-2.118,9.932-3.432,15.618-3.704c11.834-0.562,21.575,4.669,27.535,10.629
			c6.074,6.073,11.387,14.506,11.757,26.249C-128.507,483.485-133.45,491.941-139.527,498.528z"/>
		<path fill="#FFFFFF" d="M-150.192,452.028l-9.507-2.45l-1.31,0.007c-0.592,2.276-3.14,3.989-6.193,3.989
			c-3.026,0-5.555-1.683-6.176-3.932l-1.844,0.011l-9.581,2.3l-10.249,10.696l5.421,8.765l4.457-1.56l0.074,25.4h34.982
			l0.149-25.548l4.159,1.707l5.793-8.912L-150.192,452.028z M-184.6,469.685l-0.705-0.38c3.37-6.262,0.155-16.046,0.122-16.144
			l0.759-0.254C-184.285,453.321-181.067,463.121-184.6,469.685z M-167.1,455.639c-3.599,0-6.66-1.735-7.443-4.219l0.789-0.249
			c0.665,2.111,3.463,3.643,6.654,3.643c3.23,0,6.037-1.554,6.672-3.693l0.792,0.234
			C-160.373,453.838-163.513,455.639-167.1,455.639z M-150.365,469.685c-3.533-6.563-0.315-16.363-0.176-16.777l0.759,0.254
			c-0.033,0.098-3.246,9.887,0.122,16.144L-150.365,469.685z"/>
	</g>
	<g>
		<path fill="#FFFFFF" d="M-125.841,588.621c-0.801-12.458-6.596-21.18-13.365-27.697c-6.533-6.292-17.42-11.752-30.434-10.79
			c-6.296,0.466-11.528,2.038-16.262,4.508c-4.663,2.436-8.672,5.395-11.754,8.858c-6.209,6.977-11.358,17.229-10.467,30.435
			c0.834,12.383,6.154,20.998,13.364,27.697c7.069,6.567,17.551,11.521,30.433,10.789c11.963-0.68,21.38-6.287,27.697-13.365
			C-130.287,611.947-124.974,602.077-125.841,588.621z M-139.527,617.607c-6.077,6.581-15.188,11.312-26.248,11.754
			c-11.764,0.471-21.375-4.47-27.534-10.628c-6.658-6.657-11.1-14.007-11.754-26.247c-0.632-11.794,4.312-21.196,10.304-27.538
			c2.871-3.036,6.603-5.915,10.95-8.051c4.31-2.119,9.932-3.434,15.618-3.704c11.834-0.562,21.575,4.668,27.535,10.629
			c6.074,6.073,11.387,14.505,11.757,26.247C-128.507,602.565-133.45,611.021-139.527,617.607z"/>
		<g>
			<path fill="#FFFFFF" d="M-171.717,589.999c0,0,26-21.445,27.199-22.535c1.201-1.094,1.747-0.658,0.655,0.76
				c-1.09,1.42-20.888,28.365-20.888,28.365L-171.717,589.999z"/>
			<polygon fill="#FFFFFF" points="-172.212,590.766 -165.405,597.136 -175.206,603.198 -178.015,600.388 			"/>
			<path fill="#FFFFFF" d="M-177.702,601.387c0,0-3.187-0.766-5.867,2.296c-2.679,3.062-2.934,10.46-8.292,10.97
				c0,0,1.147,0.639,1.785,0.386l-0.638,0.253c0,0,1.532,0.766,3.955-0.766l-0.256,0.765c0,0,13.713-4.4,10.907-12.246
				L-177.702,601.387z"/>
		</g>
	</g>
</g>
<g>
	<g>
		<path fill-rule="evenodd" clip-rule="evenodd" d="M-33.837,352.466c-0.801-12.456-6.596-21.177-13.365-27.695
			c-6.533-6.292-17.42-11.751-30.434-10.79c-6.296,0.465-11.528,2.038-16.262,4.509c-4.663,2.433-8.672,5.393-11.754,8.856
			c-6.209,6.976-11.358,17.229-10.467,30.435c0.834,12.382,6.154,20.997,13.364,27.695c7.069,6.567,17.551,11.522,30.433,10.789
			c11.963-0.679,21.38-6.286,27.697-13.366C-38.283,375.792-32.97,365.923-33.837,352.466z M-47.523,381.45
			c-6.077,6.583-15.188,11.314-26.248,11.755c-11.764,0.471-21.375-4.47-27.534-10.628c-6.658-6.657-11.1-14.007-11.754-26.248
			c-0.632-11.792,4.312-21.194,10.304-27.535c2.871-3.036,6.603-5.915,10.95-8.051c4.31-2.119,9.932-3.433,15.618-3.704
			c11.834-0.562,21.575,4.667,27.535,10.628c6.074,6.073,11.387,14.504,11.757,26.246C-36.502,366.409-41.445,374.865-47.523,381.45
			z"/>
		<g>
			<path d="M-76.291,330.5c-0.697,0.004-1.394,0.007-2.091,0.011c-4.128,0.267-7.093,1.433-9.696,3.491
				c-1.759,1.392-3.336,3.185-4.948,4.813c-0.496,0.501-1.35,1.223-1.524,1.728c-0.391,1.13-0.069,2.639-0.445,3.768
				c-0.114,0.341-0.327,0.766-0.552,1.025c-0.337,0.387-1.369,1.08-2.132,1.034c-0.474-0.029-0.762-0.427-1.35-0.411
				c-0.934,0.023-1.348,0.564-1.854,1.125c-0.68,0.754-1.225,1.334-0.87,2.515c0.34,1.129,1.614,1.966,2.572,2.914
				c0.468,0.463,0.895,0.933,1.355,1.388c0.471,0.467,0.919,1.058,1.541,1.247c1.43,0.435,2.266-0.674,2.921-1.363
				c0.415-0.438,0.913-1.062,0.873-1.864c-0.038-0.741-0.491-0.646-0.518-1.345c-0.047-1.188,0.947-2.15,1.705-2.751
				c0.835-0.662,2.113-1.272,3.388-1.041c0.799,0.146,1.137,0.58,1.679,1.106c0.146,0.143,0.851,1.026,1.028,1.018
				c0.02-0.002,0.536-0.509,0.694-0.655c1.732-1.595,3.171-3.351,4.809-4.86c-0.737-1.08-2.249-1.581-2.341-3.195
				c-0.04-0.689,0.224-1.277,0.548-1.769c0.484-0.735,1.398-1.434,2.221-2.01c2.442-1.713,5.992-3.013,9.743-3.12
				c0.008-0.565,0.084-1.299,0.038-1.767C-71.595,331.019-73.831,330.646-76.291,330.5z"/>
		</g>
		<polygon points="-113.006,365.596 -107.58,359.599 -109.008,355.315 -108.437,353.601 -100.011,362.026 -102.153,362.455 
			-105.866,361.312 -111.864,367.595 		"/>
		
			<rect x="-87.512" y="357.334" transform="matrix(0.7071 0.7071 -0.7071 0.7071 235.7983 153.3609)" width="40.563" height="7.981"/>
	</g>
	<g>
		<path d="M-33.837,471.541c-0.801-12.457-6.596-21.179-13.365-27.696c-6.533-6.292-17.42-11.753-30.434-10.79
			c-6.296,0.466-11.528,2.038-16.262,4.509c-4.663,2.434-8.672,5.393-11.754,8.857c-6.209,6.976-11.358,17.229-10.467,30.435
			c0.834,12.383,6.154,20.998,13.364,27.696c7.069,6.568,17.551,11.522,30.433,10.79c11.963-0.68,21.38-6.287,27.697-13.365
			C-38.283,494.868-32.97,484.999-33.837,471.541z M-47.523,500.528c-6.077,6.581-15.188,11.312-26.248,11.753
			c-11.764,0.471-21.375-4.469-27.534-10.628c-6.658-6.656-11.1-14.006-11.754-26.246c-0.632-11.794,4.312-21.197,10.304-27.538
			c2.871-3.035,6.603-5.915,10.95-8.052c4.31-2.118,9.932-3.432,15.618-3.704c11.834-0.562,21.575,4.669,27.535,10.629
			c6.074,6.073,11.387,14.506,11.757,26.249C-36.502,485.485-41.445,493.941-47.523,500.528z"/>
		<path d="M-58.188,454.028l-9.507-2.45l-1.31,0.007c-0.592,2.276-3.14,3.989-6.193,3.989c-3.026,0-5.555-1.683-6.176-3.932
			l-1.844,0.011l-9.581,2.3l-10.249,10.696l5.421,8.765l4.457-1.56l0.074,25.4h34.982l0.149-25.548l4.159,1.707l5.793-8.912
			L-58.188,454.028z M-92.595,471.685l-0.705-0.38c3.37-6.262,0.155-16.046,0.122-16.144l0.759-0.254
			C-92.28,455.321-89.062,465.121-92.595,471.685z M-75.096,457.639c-3.599,0-6.66-1.735-7.443-4.219l0.789-0.249
			c0.665,2.111,3.463,3.643,6.654,3.643c3.23,0,6.037-1.554,6.672-3.693l0.792,0.234C-68.369,455.838-71.508,457.639-75.096,457.639
			z M-58.361,471.685c-3.533-6.563-0.315-16.363-0.176-16.777l0.759,0.254c-0.033,0.098-3.246,9.887,0.122,16.144L-58.361,471.685z"
			/>
	</g>
	<g>
		<path d="M-33.837,590.621c-0.801-12.458-6.596-21.18-13.365-27.697c-6.533-6.292-17.42-11.752-30.434-10.79
			c-6.296,0.466-11.528,2.038-16.262,4.508c-4.663,2.436-8.672,5.395-11.754,8.858c-6.209,6.977-11.358,17.229-10.467,30.435
			c0.834,12.383,6.154,20.998,13.364,27.697c7.069,6.567,17.551,11.521,30.433,10.789c11.963-0.68,21.38-6.287,27.697-13.365
			C-38.283,613.947-32.97,604.077-33.837,590.621z M-47.523,619.607c-6.077,6.581-15.188,11.312-26.248,11.754
			c-11.764,0.471-21.375-4.47-27.534-10.628c-6.658-6.657-11.1-14.007-11.754-26.247c-0.632-11.794,4.312-21.196,10.304-27.538
			c2.871-3.036,6.603-5.915,10.95-8.051c4.31-2.119,9.932-3.434,15.618-3.704c11.834-0.562,21.575,4.668,27.535,10.629
			c6.074,6.073,11.387,14.505,11.757,26.247C-36.502,604.565-41.445,613.021-47.523,619.607z"/>
		<g>
			<path d="M-79.712,591.999c0,0,26-21.445,27.199-22.535c1.201-1.094,1.747-0.658,0.655,0.76
				c-1.09,1.42-20.888,28.365-20.888,28.365L-79.712,591.999z"/>
			<polygon points="-80.208,592.766 -73.4,599.136 -83.201,605.198 -86.011,602.388 			"/>
			<path d="M-85.697,603.387c0,0-3.187-0.766-5.867,2.296c-2.679,3.062-2.934,10.46-8.292,10.97c0,0,1.147,0.639,1.785,0.386
				l-0.638,0.253c0,0,1.532,0.766,3.955-0.766l-0.256,0.765c0,0,13.713-4.4,10.907-12.246L-85.697,603.387z"/>
		</g>
	</g>
	<g>
		<path fill-rule="evenodd" clip-rule="evenodd" fill="#24222B" d="M-35.837,350.466c-0.801-12.456-6.596-21.177-13.365-27.695
			c-6.533-6.292-17.42-11.751-30.434-10.79c-6.296,0.465-11.528,2.038-16.262,4.509c-4.663,2.433-8.672,5.393-11.754,8.856
			c-6.209,6.976-11.358,17.229-10.467,30.435c0.834,12.382,6.154,20.997,13.364,27.695c7.069,6.567,17.551,11.522,30.433,10.789
			c11.963-0.679,21.38-6.286,27.697-13.366C-40.283,373.792-34.97,363.923-35.837,350.466z M-49.523,379.45
			c-6.077,6.583-15.188,11.314-26.248,11.755c-11.764,0.471-21.375-4.47-27.534-10.628c-6.658-6.657-11.1-14.007-11.754-26.248
			c-0.632-11.792,4.312-21.194,10.304-27.535c2.871-3.036,6.603-5.915,10.95-8.051c4.31-2.119,9.932-3.433,15.618-3.704
			c11.834-0.562,21.575,4.667,27.535,10.628c6.074,6.073,11.387,14.504,11.757,26.246C-38.502,364.409-43.445,372.865-49.523,379.45
			z"/>
		<g>
			<path fill="#24222B" d="M-78.291,328.5c-0.697,0.004-1.394,0.007-2.091,0.011c-4.128,0.267-7.093,1.433-9.696,3.491
				c-1.759,1.392-3.336,3.185-4.948,4.813c-0.496,0.501-1.35,1.223-1.524,1.728c-0.391,1.13-0.069,2.639-0.445,3.768
				c-0.114,0.341-0.327,0.766-0.552,1.025c-0.337,0.387-1.369,1.08-2.132,1.034c-0.474-0.029-0.762-0.427-1.35-0.411
				c-0.934,0.023-1.348,0.564-1.854,1.125c-0.68,0.754-1.225,1.334-0.87,2.515c0.34,1.129,1.614,1.966,2.572,2.914
				c0.468,0.463,0.895,0.933,1.355,1.388c0.471,0.467,0.919,1.058,1.541,1.247c1.43,0.435,2.266-0.674,2.921-1.363
				c0.415-0.438,0.913-1.062,0.873-1.864c-0.038-0.741-0.491-0.646-0.518-1.345c-0.047-1.188,0.947-2.15,1.705-2.751
				c0.835-0.662,2.113-1.272,3.388-1.041c0.799,0.146,1.137,0.58,1.679,1.106c0.146,0.143,0.851,1.026,1.028,1.018
				c0.02-0.002,0.536-0.509,0.694-0.655c1.732-1.595,3.171-3.351,4.809-4.86c-0.737-1.08-2.249-1.581-2.341-3.195
				c-0.04-0.689,0.224-1.277,0.548-1.769c0.484-0.735,1.398-1.434,2.221-2.01c2.442-1.713,5.992-3.013,9.743-3.12
				c0.008-0.565,0.084-1.299,0.038-1.767C-73.595,329.019-75.831,328.646-78.291,328.5z"/>
		</g>
		<polygon fill="#24222B" points="-115.006,363.596 -109.58,357.599 -111.008,353.315 -110.437,351.601 -102.011,360.026 
			-104.153,360.455 -107.866,359.312 -113.864,365.595 		"/>
		
			<rect x="-89.512" y="355.334" transform="matrix(0.7071 0.7071 -0.7071 0.7071 233.7984 154.1893)" fill="#24222B" width="40.563" height="7.981"/>
	</g>
	<g>
		<path fill="#24222B" d="M-35.837,469.541c-0.801-12.457-6.596-21.179-13.365-27.696c-6.533-6.292-17.42-11.753-30.434-10.79
			c-6.296,0.466-11.528,2.038-16.262,4.509c-4.663,2.434-8.672,5.393-11.754,8.857c-6.209,6.976-11.358,17.229-10.467,30.435
			c0.834,12.383,6.154,20.998,13.364,27.696c7.069,6.568,17.551,11.522,30.433,10.79c11.963-0.68,21.38-6.287,27.697-13.365
			C-40.283,492.868-34.97,482.999-35.837,469.541z M-49.523,498.528c-6.077,6.581-15.188,11.312-26.248,11.753
			c-11.764,0.471-21.375-4.469-27.534-10.628c-6.658-6.656-11.1-14.006-11.754-26.246c-0.632-11.794,4.312-21.197,10.304-27.538
			c2.871-3.035,6.603-5.915,10.95-8.052c4.31-2.118,9.932-3.432,15.618-3.704c11.834-0.562,21.575,4.669,27.535,10.629
			c6.074,6.073,11.387,14.506,11.757,26.249C-38.502,483.485-43.445,491.941-49.523,498.528z"/>
		<path fill="#24222B" d="M-60.188,452.028l-9.507-2.45l-1.31,0.007c-0.592,2.276-3.14,3.989-6.193,3.989
			c-3.026,0-5.555-1.683-6.176-3.932l-1.844,0.011l-9.581,2.3l-10.249,10.696l5.421,8.765l4.457-1.56l0.074,25.4h34.982
			l0.149-25.548l4.159,1.707l5.793-8.912L-60.188,452.028z M-94.595,469.685l-0.705-0.38c3.37-6.262,0.155-16.046,0.122-16.144
			l0.759-0.254C-94.28,453.321-91.062,463.121-94.595,469.685z M-77.096,455.639c-3.599,0-6.66-1.735-7.443-4.219l0.789-0.249
			c0.665,2.111,3.463,3.643,6.654,3.643c3.23,0,6.037-1.554,6.672-3.693l0.792,0.234C-70.369,453.838-73.508,455.639-77.096,455.639
			z M-60.361,469.685c-3.533-6.563-0.315-16.363-0.176-16.777l0.759,0.254c-0.033,0.098-3.246,9.887,0.122,16.144L-60.361,469.685z"
			/>
	</g>
	<g>
		<path fill="#24222B" d="M-35.837,588.621c-0.801-12.458-6.596-21.18-13.365-27.697c-6.533-6.292-17.42-11.752-30.434-10.79
			c-6.296,0.466-11.528,2.038-16.262,4.508c-4.663,2.436-8.672,5.395-11.754,8.858c-6.209,6.977-11.358,17.229-10.467,30.435
			c0.834,12.383,6.154,20.998,13.364,27.697c7.069,6.567,17.551,11.521,30.433,10.789c11.963-0.68,21.38-6.287,27.697-13.365
			C-40.283,611.947-34.97,602.077-35.837,588.621z M-49.523,617.607c-6.077,6.581-15.188,11.312-26.248,11.754
			c-11.764,0.471-21.375-4.47-27.534-10.628c-6.658-6.657-11.1-14.007-11.754-26.247c-0.632-11.794,4.312-21.196,10.304-27.538
			c2.871-3.036,6.603-5.915,10.95-8.051c4.31-2.119,9.932-3.434,15.618-3.704c11.834-0.562,21.575,4.668,27.535,10.629
			c6.074,6.073,11.387,14.505,11.757,26.247C-38.502,602.565-43.445,611.021-49.523,617.607z"/>
		<g>
			<path fill="#24222B" d="M-81.712,589.999c0,0,26-21.445,27.199-22.535c1.201-1.094,1.747-0.658,0.655,0.76
				c-1.09,1.42-20.888,28.365-20.888,28.365L-81.712,589.999z"/>
			<polygon fill="#24222B" points="-82.208,590.766 -75.4,597.136 -85.201,603.198 -88.011,600.388 			"/>
			<path fill="#24222B" d="M-87.697,601.387c0,0-3.187-0.766-5.867,2.296c-2.679,3.062-2.934,10.46-8.292,10.97
				c0,0,1.147,0.639,1.785,0.386l-0.638,0.253c0,0,1.532,0.766,3.955-0.766l-0.256,0.765c0,0,13.713-4.4,10.907-12.246
				L-87.697,601.387z"/>
		</g>
	</g>
</g>
<g>
	<g>
		<g>
			<path fill-rule="evenodd" clip-rule="evenodd" d="M1452.695,387.976c-1.719-26.728-14.152-45.44-28.677-59.428
				c-14.018-13.502-37.377-25.215-65.3-23.153c-13.51,0.997-24.736,4.375-34.893,9.677c-10.005,5.221-18.607,11.572-25.221,19.002
				c-13.324,14.971-24.371,36.968-22.46,65.305c1.791,26.568,13.206,45.054,28.675,59.426
				c15.168,14.092,37.658,24.724,65.299,23.149c25.669-1.455,45.874-13.487,59.43-28.68
				C1443.156,438.025,1454.557,416.852,1452.695,387.976z M1423.332,450.166c-13.039,14.125-32.589,24.277-56.321,25.223
				c-25.241,1.011-45.865-9.591-59.079-22.804c-14.285-14.285-23.816-30.055-25.221-56.319
				c-1.355-25.304,9.253-45.478,22.109-59.082c6.16-6.513,14.167-12.69,23.496-17.275c9.246-4.548,21.311-7.368,33.512-7.948
				c25.393-1.207,46.291,10.015,59.08,22.806c13.034,13.031,24.432,31.123,25.227,56.316
				C1446.975,417.893,1436.369,436.037,1423.332,450.166z"/>
			<g>
				<path d="M1361.604,340.843c-1.496,0.008-2.989,0.015-4.486,0.021c-8.858,0.574-15.219,3.076-20.804,7.493
					c-3.773,2.984-7.158,6.831-10.617,10.326c-1.062,1.078-2.896,2.626-3.27,3.709c-0.84,2.427-0.148,5.662-0.955,8.084
					c-0.244,0.731-0.702,1.644-1.186,2.2c-0.723,0.83-2.938,2.317-4.574,2.22c-1.018-0.062-1.637-0.916-2.896-0.883
					c-2.004,0.051-2.893,1.211-3.977,2.414c-1.459,1.618-2.629,2.863-1.867,5.396c0.729,2.425,3.463,4.218,5.52,6.253
					c1.004,0.994,1.918,2,2.906,2.977c1.012,1.002,1.973,2.271,3.307,2.674c3.066,0.935,4.861-1.446,6.268-2.925
					c0.89-0.938,1.959-2.277,1.873-3.997c-0.082-1.589-1.055-1.388-1.112-2.888c-0.101-2.548,2.031-4.614,3.657-5.903
					c1.792-1.422,4.535-2.73,7.27-2.232c1.715,0.311,2.439,1.243,3.602,2.372c0.313,0.307,1.825,2.201,2.205,2.184
					c0.043-0.004,1.15-1.092,1.489-1.405c3.718-3.422,6.804-7.191,10.317-10.426c-1.58-2.318-4.825-3.394-5.021-6.857
					c-0.086-1.479,0.48-2.74,1.176-3.794c1.037-1.578,2.998-3.078,4.764-4.314c5.241-3.676,12.857-6.463,20.905-6.693
					c0.018-1.214,0.18-2.787,0.081-3.79C1371.68,341.955,1366.882,341.156,1361.604,340.843z"/>
			</g>
			<polygon points="1282.824,416.147 1294.468,403.279 1291.403,394.087 1292.629,390.411 1310.709,408.486 1306.111,409.408 
				1298.146,406.957 1285.275,420.438 			"/>
			<polygon points="1405.765,443.807 1344.219,382.265 1356.326,370.158 1417.866,431.701 			"/>
		</g>
		<g>
			<path d="M1677.28,387.974c-1.718-26.729-14.152-45.444-28.677-59.43c-14.019-13.502-37.378-25.22-65.305-23.153
				c-13.508,0.999-24.735,4.373-34.893,9.675c-10.004,5.222-18.605,11.571-25.219,19.006c-13.324,14.968-24.371,36.969-22.46,65.305
				c1.789,26.57,13.204,45.056,28.675,59.428c15.167,14.093,37.658,24.724,65.298,23.152c25.671-1.458,45.877-13.49,59.433-28.678
				C1667.742,438.025,1679.142,416.85,1677.28,387.974z M1647.915,450.171c-13.04,14.12-32.59,24.271-56.321,25.218
				c-25.244,1.011-45.867-9.589-59.081-22.804c-14.286-14.283-23.816-30.053-25.221-56.316c-1.355-25.307,9.253-45.483,22.11-59.09
				c6.158-6.512,14.166-12.691,23.494-17.277c9.248-4.545,21.312-7.363,33.512-7.947c25.395-1.207,46.295,10.019,59.085,22.808
				c13.033,13.031,24.433,31.125,25.227,56.323C1671.56,417.893,1660.955,436.037,1647.915,450.171z"/>
			<path d="M1625.031,350.396l-20.401-5.258l-2.81,0.015c-1.27,4.885-6.738,8.561-13.289,8.561c-6.494,0-11.921-3.61-13.252-8.437
				l-3.957,0.022l-20.559,4.936l-21.99,22.95l11.633,18.808l9.561-3.347l0.16,54.501h75.062l0.32-54.816l8.925,3.662l12.43-19.123
				L1625.031,350.396z M1551.201,388.282l-1.513-0.816c7.23-13.437,0.333-34.43,0.263-34.64l1.627-0.544
				C1551.876,353.17,1558.781,374.197,1551.201,388.282z M1588.75,358.143c-7.723,0-14.291-3.724-15.971-9.053l1.693-0.534
				c1.426,4.53,7.428,7.815,14.277,7.815c6.932,0,12.955-3.333,14.317-7.925l1.699,0.503
				C1603.185,354.278,1596.448,358.143,1588.75,358.143z M1624.66,388.282c-7.58-14.085-0.677-35.112-0.379-36l1.628,0.544
				c-0.071,0.21-6.963,21.214,0.265,34.64L1624.66,388.282z"/>
		</g>
		<g>
			<path d="M1901.872,387.976c-1.719-26.731-14.152-45.446-28.678-59.432c-14.019-13.502-37.378-25.218-65.304-23.153
				c-13.509,0.999-24.736,4.373-34.895,9.673c-10.004,5.227-18.607,11.575-25.221,19.008c-13.324,14.971-24.372,36.97-22.46,65.305
				c1.789,26.57,13.204,45.056,28.675,59.43c15.169,14.091,37.661,24.722,65.301,23.15c25.672-1.458,45.877-13.49,59.433-28.678
				C1892.334,438.025,1903.732,416.847,1901.872,387.976z M1872.507,450.171c-13.04,14.12-32.59,24.272-56.322,25.22
				c-25.243,1.01-45.869-9.591-59.082-22.804c-14.287-14.285-23.819-30.055-25.223-56.318c-1.355-25.307,9.253-45.48,22.11-59.09
				c6.161-6.515,14.168-12.691,23.496-17.275c9.249-4.547,21.312-7.367,33.514-7.947c25.395-1.207,46.294,10.017,59.084,22.807
				c13.034,13.032,24.433,31.124,25.228,56.319C1896.151,417.895,1885.547,436.037,1872.507,450.171z"/>
			<g>
				<path d="M1803.436,390.931c0,0,55.788-46.015,58.363-48.354c2.576-2.347,3.747-1.412,1.404,1.63
					c-2.339,3.048-44.819,60.863-44.819,60.863L1803.436,390.931z"/>
				<polygon points="1802.371,392.576 1816.979,406.244 1795.948,419.252 1789.921,413.223 				"/>
				<path d="M1790.593,415.366c0,0-6.839-1.644-12.589,4.926s-6.297,22.443-17.792,23.538c0,0,2.462,1.37,3.83,0.827l-1.368,0.543
					c0,0,3.288,1.643,8.486-1.643l-0.549,1.641c0,0,29.425-9.441,23.404-26.276L1790.593,415.366z"/>
			</g>
		</g>
	</g>
	<g>
		<g>
			<path fill-rule="evenodd" clip-rule="evenodd" fill="#FFFFFF" d="M1449.695,383.975c-1.719-26.727-14.152-45.439-28.677-59.427
				c-14.018-13.502-37.377-25.215-65.3-23.153c-13.51,0.997-24.736,4.375-34.893,9.677c-10.005,5.221-18.607,11.572-25.221,19.002
				c-13.324,14.971-24.371,36.968-22.46,65.305c1.791,26.568,13.206,45.054,28.675,59.426
				c15.168,14.092,37.658,24.724,65.299,23.149c25.669-1.455,45.874-13.487,59.43-28.68
				C1440.156,434.025,1451.557,412.852,1449.695,383.975z M1420.332,446.166c-13.039,14.125-32.589,24.277-56.321,25.223
				c-25.241,1.011-45.865-9.591-59.079-22.804c-14.285-14.285-23.816-30.055-25.221-56.319
				c-1.355-25.304,9.253-45.478,22.109-59.082c6.16-6.513,14.167-12.69,23.496-17.275c9.246-4.548,21.311-7.368,33.512-7.948
				c25.393-1.207,46.291,10.015,59.08,22.806c13.034,13.031,24.432,31.123,25.227,56.316
				C1443.975,413.893,1433.369,432.037,1420.332,446.166z"/>
			<g>
				<path fill="#FFFFFF" d="M1358.604,336.843c-1.496,0.008-2.989,0.015-4.486,0.021c-8.858,0.574-15.219,3.076-20.804,7.493
					c-3.773,2.984-7.158,6.831-10.617,10.326c-1.062,1.078-2.896,2.626-3.27,3.709c-0.84,2.427-0.148,5.662-0.955,8.084
					c-0.244,0.731-0.702,1.644-1.186,2.2c-0.723,0.83-2.938,2.317-4.574,2.22c-1.018-0.062-1.637-0.916-2.896-0.883
					c-2.004,0.051-2.893,1.211-3.977,2.414c-1.459,1.618-2.629,2.862-1.867,5.396c0.729,2.425,3.463,4.218,5.52,6.253
					c1.004,0.995,1.918,2.001,2.906,2.978c1.012,1.002,1.973,2.271,3.307,2.674c3.066,0.935,4.861-1.446,6.268-2.925
					c0.89-0.938,1.959-2.278,1.873-3.998c-0.082-1.589-1.055-1.388-1.112-2.888c-0.101-2.548,2.031-4.614,3.657-5.902
					c1.792-1.422,4.535-2.73,7.27-2.232c1.715,0.311,2.439,1.243,3.602,2.372c0.313,0.307,1.825,2.2,2.205,2.184
					c0.043-0.004,1.15-1.092,1.489-1.404c3.718-3.422,6.804-7.191,10.317-10.426c-1.58-2.318-4.825-3.394-5.021-6.857
					c-0.086-1.479,0.48-2.74,1.176-3.794c1.037-1.578,2.998-3.078,4.764-4.314c5.241-3.676,12.857-6.463,20.905-6.693
					c0.018-1.214,0.18-2.787,0.081-3.79C1368.68,337.955,1363.882,337.156,1358.604,336.843z"/>
			</g>
			<polygon fill="#FFFFFF" points="1279.824,412.147 1291.468,399.279 1288.403,390.087 1289.629,386.411 1307.709,404.486 
				1303.111,405.408 1295.146,402.957 1282.275,416.438 			"/>
			<polygon fill="#FFFFFF" points="1402.765,439.807 1341.219,378.265 1353.326,366.158 1414.866,427.701 			"/>
		</g>
		<g>
			<path fill="#FFFFFF" d="M1674.28,383.973c-1.718-26.729-14.152-45.443-28.677-59.429c-14.019-13.502-37.378-25.22-65.305-23.153
				c-13.508,0.999-24.735,4.373-34.893,9.675c-10.004,5.222-18.605,11.571-25.219,19.006c-13.324,14.968-24.371,36.969-22.46,65.305
				c1.789,26.57,13.204,45.056,28.675,59.428c15.167,14.093,37.658,24.724,65.298,23.152c25.671-1.458,45.877-13.49,59.433-28.678
				C1664.742,434.025,1676.142,412.85,1674.28,383.973z M1644.915,446.171c-13.04,14.12-32.59,24.271-56.321,25.218
				c-25.244,1.011-45.867-9.589-59.081-22.804c-14.286-14.283-23.816-30.053-25.221-56.316c-1.355-25.307,9.253-45.483,22.11-59.09
				c6.158-6.512,14.166-12.691,23.494-17.277c9.248-4.545,21.312-7.363,33.512-7.947c25.395-1.207,46.295,10.019,59.085,22.808
				c13.033,13.031,24.433,31.125,25.227,56.323C1668.56,413.893,1657.955,432.037,1644.915,446.171z"/>
			<path fill="#FFFFFF" d="M1622.031,346.396l-20.401-5.258l-2.81,0.015c-1.27,4.885-6.738,8.561-13.289,8.561
				c-6.494,0-11.921-3.61-13.252-8.437l-3.957,0.022l-20.559,4.936l-21.99,22.95l11.633,18.808l9.561-3.348l0.16,54.502h75.062
				l0.32-54.817l8.925,3.663l12.43-19.123L1622.031,346.396z M1548.201,384.281l-1.513-0.816c7.23-13.436,0.333-34.429,0.263-34.639
				l1.627-0.544C1548.876,349.17,1555.781,370.197,1548.201,384.281z M1585.75,354.143c-7.723,0-14.291-3.724-15.971-9.053
				l1.693-0.534c1.426,4.53,7.428,7.815,14.277,7.815c6.932,0,12.955-3.333,14.317-7.925l1.699,0.503
				C1600.185,350.278,1593.448,354.143,1585.75,354.143z M1621.66,384.281c-7.58-14.084-0.677-35.111-0.379-35.999l1.628,0.544
				c-0.071,0.21-6.963,21.214,0.265,34.639L1621.66,384.281z"/>
		</g>
		<g>
			<path fill="#FFFFFF" d="M1898.872,383.975c-1.719-26.73-14.152-45.445-28.678-59.431c-14.019-13.502-37.378-25.218-65.304-23.153
				c-13.509,0.999-24.736,4.373-34.895,9.673c-10.004,5.227-18.607,11.575-25.221,19.008c-13.324,14.971-24.372,36.97-22.46,65.305
				c1.789,26.57,13.204,45.056,28.675,59.43c15.169,14.091,37.661,24.722,65.301,23.15c25.672-1.458,45.877-13.49,59.433-28.678
				C1889.334,434.025,1900.732,412.847,1898.872,383.975z M1869.507,446.171c-13.04,14.12-32.59,24.272-56.322,25.22
				c-25.243,1.01-45.869-9.591-59.082-22.804c-14.287-14.285-23.819-30.055-25.223-56.318c-1.355-25.307,9.253-45.48,22.11-59.09
				c6.161-6.515,14.168-12.691,23.496-17.275c9.249-4.547,21.312-7.367,33.514-7.947c25.395-1.207,46.294,10.017,59.084,22.807
				c13.034,13.032,24.433,31.124,25.228,56.319C1893.151,413.895,1882.547,432.037,1869.507,446.171z"/>
			<g>
				<path fill="#FFFFFF" d="M1800.436,386.931c0,0,55.788-46.015,58.363-48.354c2.576-2.347,3.747-1.412,1.404,1.63
					c-2.339,3.048-44.819,60.863-44.819,60.863L1800.436,386.931z"/>
				<polygon fill="#FFFFFF" points="1799.371,388.576 1813.979,402.244 1792.948,415.252 1786.921,409.223 				"/>
				<path fill="#FFFFFF" d="M1787.593,411.366c0,0-6.839-1.644-12.589,4.926s-6.297,22.443-17.792,23.538c0,0,2.462,1.37,3.83,0.827
					l-1.368,0.543c0,0,3.288,1.643,8.486-1.643l-0.549,1.641c0,0,29.425-9.441,23.404-26.276L1787.593,411.366z"/>
			</g>
		</g>
	</g>
</g>
<g>
	<g>
		<path fill-rule="evenodd" clip-rule="evenodd" d="M1452.695,577.994c-1.719-26.729-14.152-45.442-28.677-59.431
			c-14.018-13.502-37.377-25.216-65.3-23.154c-13.51,0.997-24.736,4.375-34.893,9.678c-10.005,5.221-18.607,11.572-25.221,19.002
			c-13.324,14.972-24.371,36.97-22.46,65.308c1.791,26.568,13.206,45.054,28.675,59.426c15.168,14.092,37.658,24.724,65.299,23.149
			c25.669-1.455,45.874-13.487,59.43-28.68C1443.156,628.044,1454.557,606.87,1452.695,577.994z M1423.332,640.185
			c-13.039,14.125-32.589,24.277-56.321,25.223c-25.241,1.011-45.865-9.591-59.079-22.804
			c-14.285-14.285-23.816-30.055-25.221-56.319c-1.355-25.305,9.253-45.479,22.109-59.084c6.16-6.514,14.167-12.691,23.496-17.276
			c9.246-4.548,21.311-7.369,33.512-7.949c25.393-1.207,46.291,10.016,59.08,22.807c13.034,13.032,24.432,31.125,25.227,56.319
			C1446.975,607.911,1436.369,626.056,1423.332,640.185z"/>
		<g>
			<path d="M1361.604,530.859c-1.496,0.008-2.989,0.015-4.486,0.021c-8.858,0.574-15.219,3.076-20.804,7.493
				c-3.773,2.984-7.158,6.832-10.617,10.327c-1.062,1.078-2.896,2.626-3.27,3.709c-0.84,2.427-0.148,5.662-0.955,8.084
				c-0.244,0.731-0.702,1.644-1.186,2.2c-0.723,0.83-2.938,2.317-4.574,2.22c-1.018-0.062-1.637-0.916-2.896-0.883
				c-2.004,0.051-2.893,1.212-3.977,2.415c-1.459,1.618-2.629,2.862-1.867,5.396c0.729,2.426,3.463,4.219,5.52,6.254
				c1.004,0.994,1.918,2,2.906,2.977c1.012,1.002,1.973,2.271,3.307,2.674c3.066,0.935,4.861-1.446,6.268-2.925
				c0.89-0.938,1.959-2.277,1.873-3.997c-0.082-1.589-1.055-1.388-1.112-2.889c-0.101-2.548,2.031-4.614,3.657-5.902
				c1.792-1.422,4.535-2.73,7.27-2.232c1.715,0.311,2.439,1.243,3.602,2.372c0.313,0.307,1.825,2.2,2.205,2.184
				c0.043-0.004,1.15-1.092,1.489-1.404c3.718-3.422,6.804-7.192,10.317-10.427c-1.58-2.318-4.825-3.394-5.021-6.857
				c-0.086-1.479,0.48-2.74,1.176-3.794c1.037-1.578,2.998-3.079,4.764-4.315c5.241-3.676,12.857-6.463,20.905-6.693
				c0.018-1.214,0.18-2.787,0.081-3.79C1371.68,531.972,1366.882,531.173,1361.604,530.859z"/>
		</g>
		<polygon points="1282.824,606.166 1294.468,593.298 1291.403,584.105 1292.629,580.43 1310.709,598.505 1306.111,599.427 
			1298.146,596.976 1285.275,610.457 		"/>
		<polygon points="1405.765,633.825 1344.219,572.283 1356.326,560.176 1417.866,621.72 		"/>
	</g>
	<g>
		<path d="M1677.28,577.992c-1.718-26.73-14.152-45.446-28.677-59.433c-14.019-13.502-37.378-25.221-65.305-23.154
			c-13.508,0.999-24.735,4.373-34.893,9.676c-10.004,5.222-18.605,11.571-25.219,19.006c-13.324,14.969-24.371,36.971-22.46,65.308
			c1.789,26.57,13.204,45.056,28.675,59.428c15.167,14.093,37.658,24.724,65.298,23.152c25.671-1.458,45.877-13.49,59.433-28.678
			C1667.742,628.044,1679.142,606.868,1677.28,577.992z M1647.915,640.189c-13.04,14.12-32.59,24.271-56.321,25.218
			c-25.244,1.011-45.867-9.589-59.081-22.804c-14.286-14.283-23.816-30.053-25.221-56.316c-1.355-25.308,9.253-45.485,22.11-59.092
			c6.158-6.513,14.166-12.692,23.494-17.278c9.248-4.545,21.312-7.364,33.512-7.948c25.395-1.207,46.295,10.02,59.085,22.809
			c13.033,13.032,24.433,31.127,25.227,56.326C1671.56,607.911,1660.955,626.056,1647.915,640.189z"/>
		<path d="M1625.031,540.412l-20.401-5.258l-2.81,0.015c-1.27,4.885-6.738,8.561-13.289,8.561c-6.494,0-11.921-3.61-13.252-8.437
			l-3.957,0.022l-20.559,4.936l-21.99,22.951l11.633,18.809l9.561-3.347l0.16,54.501h75.062l0.32-54.816l8.925,3.662l12.43-19.124
			L1625.031,540.412z M1551.201,578.301l-1.513-0.816c7.23-13.438,0.333-34.432,0.263-34.642l1.627-0.544
			C1551.876,543.187,1558.781,564.215,1551.201,578.301z M1588.75,548.16c-7.723,0-14.291-3.725-15.971-9.054l1.693-0.534
			c1.426,4.53,7.428,7.816,14.277,7.816c6.932,0,12.955-3.334,14.317-7.926l1.699,0.503
			C1603.185,544.295,1596.448,548.16,1588.75,548.16z M1624.66,578.301c-7.58-14.086-0.677-35.114-0.379-36.002l1.628,0.544
			c-0.071,0.21-6.963,21.215,0.265,34.642L1624.66,578.301z"/>
	</g>
	<g>
		<path d="M1901.872,577.994c-1.719-26.732-14.152-45.448-28.678-59.435c-14.019-13.502-37.378-25.219-65.304-23.154
			c-13.509,0.999-24.736,4.373-34.895,9.674c-10.004,5.227-18.607,11.575-25.221,19.008c-13.324,14.972-24.372,36.972-22.46,65.308
			c1.789,26.57,13.204,45.056,28.675,59.43c15.169,14.091,37.661,24.722,65.301,23.15c25.672-1.458,45.877-13.49,59.433-28.678
			C1892.334,628.044,1903.732,606.865,1901.872,577.994z M1872.507,640.189c-13.04,14.12-32.59,24.272-56.322,25.22
			c-25.243,1.01-45.869-9.591-59.082-22.804c-14.287-14.285-23.819-30.055-25.223-56.318c-1.355-25.308,9.253-45.482,22.11-59.092
			c6.161-6.516,14.168-12.692,23.496-17.276c9.249-4.547,21.312-7.368,33.514-7.948c25.395-1.207,46.294,10.018,59.084,22.808
			c13.034,13.033,24.433,31.126,25.228,56.322C1896.151,607.913,1885.547,626.056,1872.507,640.189z"/>
		<g>
			<path d="M1803.436,580.949c0,0,55.788-46.017,58.363-48.355c2.576-2.347,3.747-1.412,1.404,1.63
				c-2.339,3.048-44.819,60.865-44.819,60.865L1803.436,580.949z"/>
			<polygon points="1802.371,582.595 1816.979,596.263 1795.948,609.271 1789.921,603.241 			"/>
			<path d="M1790.593,605.385c0,0-6.839-1.644-12.589,4.926s-6.297,22.443-17.792,23.538c0,0,2.462,1.37,3.83,0.827l-1.368,0.543
				c0,0,3.288,1.643,8.486-1.643l-0.549,1.641c0,0,29.425-9.441,23.404-26.276L1790.593,605.385z"/>
		</g>
	</g>
</g>
<g>
	<g>
		<path fill-rule="evenodd" clip-rule="evenodd" fill="#24222B" d="M1449.695,573.993c-1.719-26.728-14.152-45.441-28.677-59.43
			c-14.018-13.503-37.377-25.216-65.3-23.154c-13.51,0.997-24.736,4.375-34.893,9.677c-10.005,5.222-18.607,11.573-25.221,19.003
			c-13.324,14.972-24.371,36.97-22.46,65.308c1.791,26.568,13.206,45.054,28.675,59.426c15.168,14.092,37.658,24.724,65.299,23.149
			c25.669-1.455,45.874-13.487,59.43-28.68C1440.156,624.044,1451.557,602.87,1449.695,573.993z M1420.332,636.185
			c-13.039,14.125-32.589,24.277-56.321,25.223c-25.241,1.011-45.865-9.591-59.079-22.804
			c-14.285-14.285-23.816-30.055-25.221-56.319c-1.355-25.305,9.253-45.479,22.109-59.085c6.16-6.513,14.167-12.69,23.496-17.275
			c9.246-4.549,21.311-7.369,33.512-7.949c25.393-1.207,46.291,10.016,59.08,22.807c13.034,13.032,24.432,31.125,25.227,56.319
			C1443.975,603.911,1433.369,622.056,1420.332,636.185z"/>
		<g>
			<path fill="#24222B" d="M1358.604,526.859c-1.496,0.008-2.989,0.015-4.486,0.021c-8.858,0.574-15.219,3.076-20.804,7.493
				c-3.773,2.984-7.158,6.831-10.617,10.326c-1.062,1.079-2.896,2.627-3.27,3.71c-0.84,2.427-0.148,5.662-0.955,8.084
				c-0.244,0.731-0.702,1.644-1.186,2.2c-0.723,0.83-2.938,2.317-4.574,2.22c-1.018-0.062-1.637-0.916-2.896-0.883
				c-2.004,0.051-2.893,1.211-3.977,2.414c-1.459,1.618-2.629,2.863-1.867,5.396c0.729,2.425,3.463,4.218,5.52,6.253
				c1.004,0.995,1.918,2.001,2.906,2.978c1.012,1.002,1.973,2.271,3.307,2.674c3.066,0.935,4.861-1.446,6.268-2.925
				c0.89-0.938,1.959-2.278,1.873-3.998c-0.082-1.589-1.055-1.388-1.112-2.888c-0.101-2.548,2.031-4.614,3.657-5.903
				c1.792-1.422,4.535-2.73,7.27-2.232c1.715,0.311,2.439,1.243,3.602,2.372c0.313,0.307,1.825,2.201,2.205,2.185
				c0.043-0.004,1.15-1.092,1.489-1.405c3.718-3.422,6.804-7.191,10.317-10.426c-1.58-2.318-4.825-3.394-5.021-6.857
				c-0.086-1.479,0.48-2.741,1.176-3.795c1.037-1.578,2.998-3.078,4.764-4.314c5.241-3.676,12.857-6.463,20.905-6.693
				c0.018-1.214,0.18-2.787,0.081-3.79C1368.68,527.972,1363.882,527.173,1358.604,526.859z"/>
		</g>
		<polygon fill="#24222B" points="1279.824,602.166 1291.468,589.298 1288.403,580.105 1289.629,576.43 1307.709,594.505 
			1303.111,595.427 1295.146,592.976 1282.275,606.457 		"/>
		<polygon fill="#24222B" points="1402.765,629.825 1341.219,568.283 1353.326,556.176 1414.866,617.72 		"/>
	</g>
	<g>
		<path fill="#24222B" d="M1674.28,573.991c-1.718-26.729-14.152-45.445-28.677-59.432c-14.019-13.503-37.378-25.221-65.305-23.154
			c-13.508,0.999-24.735,4.373-34.893,9.675c-10.004,5.223-18.605,11.572-25.219,19.007c-13.324,14.969-24.371,36.971-22.46,65.308
			c1.789,26.57,13.204,45.056,28.675,59.428c15.167,14.093,37.658,24.724,65.298,23.152c25.671-1.458,45.877-13.49,59.433-28.678
			C1664.742,624.044,1676.142,602.868,1674.28,573.991z M1644.915,636.189c-13.04,14.12-32.59,24.271-56.321,25.218
			c-25.244,1.011-45.867-9.589-59.081-22.804c-14.286-14.283-23.816-30.053-25.221-56.316c-1.355-25.308,9.253-45.485,22.11-59.093
			c6.158-6.512,14.166-12.691,23.494-17.277c9.248-4.546,21.312-7.364,33.512-7.948c25.395-1.207,46.295,10.02,59.085,22.809
			c13.033,13.032,24.433,31.127,25.227,56.326C1668.56,603.911,1657.955,622.056,1644.915,636.189z"/>
		<path fill="#24222B" d="M1622.031,536.412l-20.401-5.258l-2.81,0.015c-1.27,4.885-6.738,8.561-13.289,8.561
			c-6.494,0-11.921-3.61-13.252-8.437l-3.957,0.022l-20.559,4.936l-21.99,22.951l11.633,18.809l9.561-3.348l0.16,54.502h75.062
			l0.32-54.817l8.925,3.663l12.43-19.124L1622.031,536.412z M1548.201,574.3l-1.513-0.816c7.23-13.437,0.333-34.431,0.263-34.641
			l1.627-0.544C1548.876,539.187,1555.781,560.215,1548.201,574.3z M1585.75,544.159c-7.723,0-14.291-3.724-15.971-9.053
			l1.693-0.534c1.426,4.53,7.428,7.815,14.277,7.815c6.932,0,12.955-3.333,14.317-7.925l1.699,0.503
			C1600.185,540.295,1593.448,544.159,1585.75,544.159z M1621.66,574.3c-7.58-14.085-0.677-35.113-0.379-36.001l1.628,0.544
			c-0.071,0.21-6.963,21.215,0.265,34.641L1621.66,574.3z"/>
	</g>
	<g>
		<path fill="#24222B" d="M1898.872,573.993c-1.719-26.731-14.152-45.447-28.678-59.434c-14.019-13.503-37.378-25.219-65.304-23.154
			c-13.509,0.999-24.736,4.373-34.895,9.673c-10.004,5.228-18.607,11.576-25.221,19.009c-13.324,14.972-24.372,36.972-22.46,65.308
			c1.789,26.57,13.204,45.056,28.675,59.43c15.169,14.091,37.661,24.722,65.301,23.15c25.672-1.458,45.877-13.49,59.433-28.678
			C1889.334,624.044,1900.732,602.865,1898.872,573.993z M1869.507,636.189c-13.04,14.12-32.59,24.272-56.322,25.22
			c-25.243,1.01-45.869-9.591-59.082-22.804c-14.287-14.285-23.819-30.055-25.223-56.318c-1.355-25.308,9.253-45.482,22.11-59.093
			c6.161-6.515,14.168-12.691,23.496-17.275c9.249-4.548,21.312-7.368,33.514-7.948c25.395-1.207,46.294,10.018,59.084,22.808
			c13.034,13.033,24.433,31.126,25.228,56.322C1893.151,603.913,1882.547,622.056,1869.507,636.189z"/>
		<g>
			<path fill="#24222B" d="M1800.436,576.949c0,0,55.788-46.017,58.363-48.355c2.576-2.347,3.747-1.412,1.404,1.63
				c-2.339,3.048-44.819,60.865-44.819,60.865L1800.436,576.949z"/>
			<polygon fill="#24222B" points="1799.371,578.595 1813.979,592.263 1792.948,605.271 1786.921,599.241 			"/>
			<path fill="#24222B" d="M1787.593,601.385c0,0-6.839-1.644-12.589,4.926s-6.297,22.443-17.792,23.538c0,0,2.462,1.37,3.83,0.827
				l-1.368,0.543c0,0,3.288,1.643,8.486-1.643l-0.549,1.641c0,0,29.425-9.441,23.404-26.276L1787.593,601.385z"/>
		</g>
	</g>
</g>
<g>
	<linearGradient id="SVGID_7_" gradientUnits="userSpaceOnUse" x1="73.3213" y1="-330.5176" x2="944.6781" y2="126.4973">
		<stop  offset="0.0184" style="stop-color:#000000"/>
		<stop  offset="0.0798" style="stop-color:#0B0B0C"/>
		<stop  offset="0.2127" style="stop-color:#1D1D20"/>
		<stop  offset="0.3458" style="stop-color:#28272C"/>
		<stop  offset="0.4785" style="stop-color:#2C2B30"/>
		<stop  offset="1" style="stop-color:#000000"/>
	</linearGradient>
	<rect x="-3" y="-185" fill="url(#SVGID_7_)" width="1024" height="165.98"/>
	<g>
		<defs>
			<rect id="SVGID_8_" x="-1.564" y="-184.968" width="1024.564" height="166.19"/>
		</defs>
		<use xlink:href="#SVGID_8_"  overflow="visible" fill="url(#USGS_19_Überschwemmung)"/>
		<clipPath id="SVGID_9_">
			<use xlink:href="#SVGID_8_"  overflow="visible"/>
		</clipPath>
		<g clip-path="url(#SVGID_9_)">
			<defs>
				<rect id="SVGID_10_" x="-890.891" y="-260.054" width="2564.097" height="595.68"/>
			</defs>
			<use xlink:href="#SVGID_10_"  overflow="visible" fill="url(#USGS_19_Überschwemmung)"/>
			<clipPath id="SVGID_11_">
				<use xlink:href="#SVGID_10_"  overflow="visible"/>
			</clipPath>
			
				<rect x="-121.662" y="-184.968" clip-path="url(#SVGID_11_)" fill="url(#USGS_19_Überschwemmung)" width="1024.559" height="166.19"/>
		</g>
	</g>
</g>
</svg>
