<?xml version="1.0" encoding="utf-8"?>
<!-- Generator: Adobe Illustrator 14.0.0, SVG Export Plug-In . SVG Version: 6.00 Build 43363)  -->
<!DOCTYPE svg PUBLIC "-//W3C//DTD SVG 1.1//EN" "http://www.w3.org/Graphics/SVG/1.1/DTD/svg11.dtd">
<svg version="1.1" id="Ebene_1" xmlns="http://www.w3.org/2000/svg" xmlns:xlink="http://www.w3.org/1999/xlink" x="0px" y="0px"
	 width="1024px" height="768px" viewBox="0 0 1024 768" enable-background="new 0 0 1024 768" xml:space="preserve">
<pattern  y="768" width="72" height="72" patternUnits="userSpaceOnUse" id="USGS_19_Überschwemmung" viewBox="17.32 -73.15 72 72" overflow="visible">
	<g>
		<polygon fill="none" points="17.32,-1.149 17.32,-73.149 89.32,-73.149 89.32,-1.149 		"/>
		<line fill="none" stroke="#1A171B" stroke-width="0.3" stroke-dasharray="2,2" x1="16.32" y1="-2.149" x2="89.76" y2="-2.149"/>
		<line fill="none" stroke="#1A171B" stroke-width="0.3" stroke-dasharray="2,2" x1="16.32" y1="-6.149" x2="89.76" y2="-6.149"/>
		<line fill="none" stroke="#1A171B" stroke-width="0.3" stroke-dasharray="2,2" x1="16.32" y1="-10.149" x2="89.76" y2="-10.149"/>
		<line fill="none" stroke="#1A171B" stroke-width="0.3" stroke-dasharray="2,2" x1="16.32" y1="-14.149" x2="89.76" y2="-14.149"/>
		<line fill="none" stroke="#1A171B" stroke-width="0.3" stroke-dasharray="2,2" x1="16.32" y1="-18.149" x2="89.76" y2="-18.149"/>
		<line fill="none" stroke="#1A171B" stroke-width="0.3" stroke-dasharray="2,2" x1="16.32" y1="-22.149" x2="89.76" y2="-22.149"/>
		<line fill="none" stroke="#1A171B" stroke-width="0.3" stroke-dasharray="2,2" x1="16.32" y1="-26.149" x2="89.76" y2="-26.149"/>
		<line fill="none" stroke="#1A171B" stroke-width="0.3" stroke-dasharray="2,2" x1="16.32" y1="-30.149" x2="89.76" y2="-30.149"/>
		<line fill="none" stroke="#1A171B" stroke-width="0.3" stroke-dasharray="2,2" x1="16.32" y1="-34.149" x2="89.76" y2="-34.149"/>
		<line fill="none" stroke="#1A171B" stroke-width="0.3" stroke-dasharray="2,2" x1="16.32" y1="-38.149" x2="89.76" y2="-38.149"/>
		<line fill="none" stroke="#1A171B" stroke-width="0.3" stroke-dasharray="2,2" x1="16.32" y1="-42.149" x2="89.76" y2="-42.149"/>
		<line fill="none" stroke="#1A171B" stroke-width="0.3" stroke-dasharray="2,2" x1="16.32" y1="-46.149" x2="89.76" y2="-46.149"/>
		<line fill="none" stroke="#1A171B" stroke-width="0.3" stroke-dasharray="2,2" x1="16.32" y1="-50.149" x2="89.76" y2="-50.149"/>
		<line fill="none" stroke="#1A171B" stroke-width="0.3" stroke-dasharray="2,2" x1="16.32" y1="-54.149" x2="89.76" y2="-54.149"/>
		<line fill="none" stroke="#1A171B" stroke-width="0.3" stroke-dasharray="2,2" x1="16.32" y1="-58.149" x2="89.76" y2="-58.149"/>
		<line fill="none" stroke="#1A171B" stroke-width="0.3" stroke-dasharray="2,2" x1="16.32" y1="-62.149" x2="89.76" y2="-62.149"/>
		<line fill="none" stroke="#1A171B" stroke-width="0.3" stroke-dasharray="2,2" x1="16.32" y1="-66.149" x2="89.76" y2="-66.149"/>
		<line fill="none" stroke="#1A171B" stroke-width="0.3" stroke-dasharray="2,2" x1="16.32" y1="-70.149" x2="89.76" y2="-70.149"/>
		<line fill="none" stroke="#1A171B" stroke-width="0.3" stroke-dasharray="2,2" x1="16.32" y1="-74.149" x2="89.76" y2="-74.149"/>
		<line fill="none" stroke="#1A171B" stroke-width="0.3" stroke-dasharray="2,2" x1="18.36" y1="-0.149" x2="91.8" y2="-0.149"/>
		<line fill="none" stroke="#1A171B" stroke-width="0.3" stroke-dasharray="2,2" x1="18.36" y1="-4.149" x2="91.8" y2="-4.149"/>
		<line fill="none" stroke="#1A171B" stroke-width="0.3" stroke-dasharray="2,2" x1="18.36" y1="-8.149" x2="91.8" y2="-8.149"/>
		<line fill="none" stroke="#1A171B" stroke-width="0.3" stroke-dasharray="2,2" x1="18.36" y1="-12.149" x2="91.8" y2="-12.149"/>
		<line fill="none" stroke="#1A171B" stroke-width="0.3" stroke-dasharray="2,2" x1="18.36" y1="-16.149" x2="91.8" y2="-16.149"/>
		<line fill="none" stroke="#1A171B" stroke-width="0.3" stroke-dasharray="2,2" x1="18.36" y1="-20.149" x2="91.8" y2="-20.149"/>
		<line fill="none" stroke="#1A171B" stroke-width="0.3" stroke-dasharray="2,2" x1="18.36" y1="-24.149" x2="91.8" y2="-24.149"/>
		<line fill="none" stroke="#1A171B" stroke-width="0.3" stroke-dasharray="2,2" x1="18.36" y1="-28.149" x2="91.8" y2="-28.149"/>
		<line fill="none" stroke="#1A171B" stroke-width="0.3" stroke-dasharray="2,2" x1="18.36" y1="-32.149" x2="91.8" y2="-32.149"/>
		<line fill="none" stroke="#1A171B" stroke-width="0.3" stroke-dasharray="2,2" x1="18.36" y1="-36.149" x2="91.8" y2="-36.149"/>
		<line fill="none" stroke="#1A171B" stroke-width="0.3" stroke-dasharray="2,2" x1="18.36" y1="-40.149" x2="91.8" y2="-40.149"/>
		<line fill="none" stroke="#1A171B" stroke-width="0.3" stroke-dasharray="2,2" x1="18.36" y1="-44.149" x2="91.8" y2="-44.149"/>
		<line fill="none" stroke="#1A171B" stroke-width="0.3" stroke-dasharray="2,2" x1="18.36" y1="-48.149" x2="91.8" y2="-48.149"/>
		<line fill="none" stroke="#1A171B" stroke-width="0.3" stroke-dasharray="2,2" x1="18.36" y1="-52.149" x2="91.8" y2="-52.149"/>
		<line fill="none" stroke="#1A171B" stroke-width="0.3" stroke-dasharray="2,2" x1="18.36" y1="-56.149" x2="91.8" y2="-56.149"/>
		<line fill="none" stroke="#1A171B" stroke-width="0.3" stroke-dasharray="2,2" x1="18.36" y1="-60.149" x2="91.8" y2="-60.149"/>
		<line fill="none" stroke="#1A171B" stroke-width="0.3" stroke-dasharray="2,2" x1="18.36" y1="-64.149" x2="91.8" y2="-64.149"/>
		<line fill="none" stroke="#1A171B" stroke-width="0.3" stroke-dasharray="2,2" x1="18.36" y1="-68.149" x2="91.8" y2="-68.149"/>
		<line fill="none" stroke="#1A171B" stroke-width="0.3" stroke-dasharray="2,2" x1="18.36" y1="-72.149" x2="91.8" y2="-72.149"/>
		<line fill="none" stroke="#1A171B" stroke-width="0.3" stroke-dasharray="2,2" x1="0" y1="-68.149" x2="10.2" y2="-68.149"/>
	</g>
</pattern>
<linearGradient id="SVGID_1_" gradientUnits="userSpaceOnUse" x1="-1439.4941" y1="346.5518" x2="-320.5056" y2="933.4462">
	<stop  offset="0.0184" style="stop-color:#000000"/>
	<stop  offset="0.0798" style="stop-color:#0B0B0C"/>
	<stop  offset="0.2127" style="stop-color:#1D1D20"/>
	<stop  offset="0.3458" style="stop-color:#28272C"/>
	<stop  offset="0.4785" style="stop-color:#2C2B30"/>
	<stop  offset="1" style="stop-color:#000000"/>
</linearGradient>
<rect x="-1392" y="256" fill="url(#SVGID_1_)" width="1024.001" height="768"/>
<g>
	<defs>
		<rect id="SVGID_2_" x="-1393.564" y="256.151" width="1024.563" height="768.97"/>
	</defs>
	<use xlink:href="#SVGID_2_"  overflow="visible" fill="url(#USGS_19_Überschwemmung)"/>
	<clipPath id="SVGID_3_">
		<use xlink:href="#SVGID_2_"  overflow="visible"/>
	</clipPath>
	<g clip-path="url(#SVGID_3_)">
		<defs>
			<rect id="SVGID_4_" x="-2282.891" y="-91.275" width="2564.096" height="2756.245"/>
		</defs>
		<use xlink:href="#SVGID_4_"  overflow="visible" fill="url(#USGS_19_Überschwemmung)"/>
		<clipPath id="SVGID_5_">
			<use xlink:href="#SVGID_4_"  overflow="visible"/>
		</clipPath>
		
			<rect x="-1513.662" y="256.151" clip-path="url(#SVGID_5_)" fill="url(#USGS_19_Überschwemmung)" width="1024.558" height="768.97"/>
	</g>
</g>
<g>
	<g>
		<text transform="matrix(1 0 0 1 423.1128 -218.5825)"><tspan x="0" y="0" font-family="'HartnHirn'" font-size="22.8868" letter-spacing="1">H</tspan><tspan x="19.98" y="0" font-family="'HartnHirn'" font-size="22.8868">A</tspan><tspan x="39.205" y="0" font-family="'HartnHirn'" font-size="22.8868" letter-spacing="1">NSECR</tspan><tspan x="127.135" y="0" font-family="'HartnHirn'" font-size="22.8868">A</tspan><tspan x="146.36" y="0" font-family="'HartnHirn'" font-size="22.8868" letter-spacing="1">FT</tspan></text>
		<text transform="matrix(1 0 0 1 424.6572 -200.314)" font-family="'Antonio-Regular'" font-size="9.7995" letter-spacing="3">MIT HERZ, HAND &amp; VERSTAND</text>
		<g>
			<path fill-rule="evenodd" clip-rule="evenodd" d="M489.093-272.084c2.216-1.207,8.293-6.135,6.229-10.574
				c-1.093-2.349-5.082-1.688-6.373,0c-1.022-1.64-4.033-2.34-5.505-0.869C479.662-279.744,486.504-273.272,489.093-272.084z"/>
			<path fill-rule="evenodd" clip-rule="evenodd" d="M550.17-286.521c-0.721-11.205-5.934-19.049-12.022-24.913
				c-5.876-5.66-15.67-10.57-27.375-9.705c-5.664,0.418-10.371,1.833-14.628,4.056c-4.194,2.189-7.801,4.851-10.573,7.967
				c-5.586,6.275-10.217,15.498-9.416,27.376c0.751,11.138,5.536,18.887,12.021,24.913c6.358,5.907,15.787,10.364,27.375,9.704
				c10.761-0.611,19.231-5.655,24.914-12.022C546.171-265.538,550.95-274.416,550.17-286.521z M537.859-260.448
				c-5.467,5.921-13.662,10.176-23.611,10.573c-10.582,0.423-19.228-4.02-24.767-9.56c-5.989-5.988-9.985-12.6-10.573-23.61
				c-0.568-10.607,3.879-19.065,9.269-24.769c2.582-2.731,5.939-5.32,9.85-7.242c3.877-1.906,8.935-3.088,14.049-3.332
				c10.646-0.506,19.407,4.199,24.769,9.561c5.464,5.462,10.243,13.047,10.576,23.609
				C547.772-273.978,543.326-266.372,537.859-260.448z"/>
			<path fill-rule="evenodd" clip-rule="evenodd" d="M515.841-259.146c0-9.077,0-18.154,0-27.23c4.926,0,9.851,0,14.774,0
				c0-1.835,0-3.67,0-5.504c-4.924,0-9.849,0-14.774,0c0-1.085,0-2.17,0-3.255c4.394-1.207,7.625-5.219,7.625-9.994
				c0-5.729-4.646-10.375-10.375-10.375c-5.729,0-10.375,4.646-10.375,10.375c0,4.773,3.229,8.784,7.619,9.993
				c-0.077,1.056,0.187,2.452-0.143,3.256c-4.875,0-9.753,0-14.628,0c0,1.834,0,3.669,0,5.504c4.924,0,9.848,0,14.773,0
				c-0.097,9.077,0.192,18.54-0.146,27.376c-9.067-1.168-14.498-5.974-18.684-12.022c-1.932,0.095-4.248-0.193-5.938,0.145
				c5.239,9.443,13.416,17.526,27.518,17.526c14.116,0,22.474-7.996,27.521-17.671c-1.979,0-3.958,0-5.938,0
				C530.587-264.968,524.81-259.834,515.841-259.146z M508.466-305.129c0-2.554,2.07-4.625,4.625-4.625
				c2.554,0,4.625,2.071,4.625,4.625s-2.071,4.625-4.625,4.625C510.536-300.504,508.466-302.575,508.466-305.129z"/>
			<path fill-rule="evenodd" clip-rule="evenodd" d="M536.251-285.515c0.179-0.556,0.414-1.008,0.144-1.159
				c-1.066-0.499-1.726,0.564-2.027,1.304C535.128-285.285,535.465-285.625,536.251-285.515z"/>
			<path fill-rule="evenodd" clip-rule="evenodd" d="M538.568-284.501c0.321-0.395,0.343-1.184-0.146-1.449
				c-0.56-0.288-1.139,0.02-1.158,0.58C538.021-285.402,538.208-284.865,538.568-284.501z"/>
			<path fill-rule="evenodd" clip-rule="evenodd" d="M540.016-278.127c1.175,0.11,0.998-1.127,1.884-1.304
				c-0.308,1.312-0.869,2.165-2.172,2.028c-0.682-0.072-0.745-0.965-1.594-0.724c-0.64,0.422-0.031,2.094-0.869,2.317
				c0.125-2.685-1.137-3.982-3.187-4.491c0.354-0.708,0.546-1.578,0.725-2.462c1.179-0.316,3.841-0.759,3.041-1.448
				c-1.127-1.027-3.604-0.45-4.925,0c-1.192,0.966-1.734,1.984-1.883,3.476c-0.394,3.966,4.781,4.203,3.767,8.256
				c2.026,0,4.054,0,6.082,0c0.491-2.929,2.706-5.989,1.304-9.416C541.459-283.572,538.189-278.391,540.016-278.127z"/>
			<path fill-rule="evenodd" clip-rule="evenodd" d="M537.409-279.141c1.464,0.599,1.739-1.021,2.173-1.883
				c0.474-0.942,1.298-1.705,1.298-2.773c-0.036-0.377-0.161-0.591-0.292-0.646C538.814-285.257,536.515-279.448,537.409-279.141z"
				/>
			<path fill-rule="evenodd" clip-rule="evenodd" d="M535.381-281.894c-0.158,0.351-0.214,0.557-0.145,1.014
				c0.646-0.017,0.898,0.358,1.449,0.435c0.228-0.883,1.052-1.938,1.013-2.607C537.206-282.386,536.102-282.333,535.381-281.894z"/>
		</g>
	</g>
	<g>
		<text transform="matrix(1 0 0 1 421.1123 -220.5825)"><tspan x="0" y="0" fill="#FFFFFF" font-family="'HartnHirn'" font-size="22.8868" letter-spacing="1">H</tspan><tspan x="19.98" y="0" fill="#FFFFFF" font-family="'HartnHirn'" font-size="22.8868">A</tspan><tspan x="39.205" y="0" fill="#FFFFFF" font-family="'HartnHirn'" font-size="22.8868" letter-spacing="1">NSECR</tspan><tspan x="127.136" y="0" fill="#FFFFFF" font-family="'HartnHirn'" font-size="22.8868">A</tspan><tspan x="146.36" y="0" fill="#FFFFFF" font-family="'HartnHirn'" font-size="22.8868" letter-spacing="1">FT</tspan></text>
		
			<text transform="matrix(1 0 0 1 422.6572 -202.3145)" fill="#FFFFFF" font-family="'Antonio-Regular'" font-size="9.7995" letter-spacing="3">MIT HERZ, HAND &amp; VERSTAND</text>
		<g>
			<path fill-rule="evenodd" clip-rule="evenodd" fill="#FFFFFF" d="M487.093-274.084c2.216-1.207,8.293-6.135,6.229-10.574
				c-1.093-2.349-5.082-1.688-6.373,0c-1.022-1.64-4.033-2.34-5.505-0.869C477.662-281.744,484.504-275.272,487.093-274.084z"/>
			<path fill-rule="evenodd" clip-rule="evenodd" fill="#FFFFFF" d="M548.17-288.521c-0.721-11.205-5.934-19.049-12.022-24.913
				c-5.876-5.66-15.67-10.57-27.375-9.705c-5.664,0.418-10.371,1.833-14.628,4.056c-4.194,2.189-7.801,4.851-10.573,7.967
				c-5.586,6.275-10.217,15.498-9.416,27.376c0.751,11.138,5.536,18.887,12.021,24.913c6.358,5.907,15.787,10.364,27.375,9.704
				c10.761-0.611,19.231-5.655,24.914-12.022C544.171-267.538,548.95-276.416,548.17-288.521z M535.859-262.448
				c-5.467,5.921-13.662,10.176-23.611,10.573c-10.582,0.423-19.228-4.02-24.767-9.56c-5.989-5.988-9.985-12.6-10.573-23.61
				c-0.568-10.607,3.879-19.065,9.269-24.769c2.582-2.731,5.939-5.32,9.85-7.242c3.877-1.906,8.935-3.088,14.049-3.332
				c10.646-0.506,19.407,4.199,24.769,9.561c5.464,5.462,10.243,13.047,10.576,23.609
				C545.772-275.978,541.326-268.372,535.859-262.448z"/>
			<path fill-rule="evenodd" clip-rule="evenodd" fill="#FFFFFF" d="M513.841-261.146c0-9.077,0-18.154,0-27.23
				c4.926,0,9.851,0,14.774,0c0-1.835,0-3.67,0-5.504c-4.924,0-9.849,0-14.774,0c0-1.085,0-2.17,0-3.255
				c4.394-1.207,7.625-5.219,7.625-9.994c0-5.729-4.646-10.375-10.375-10.375c-5.729,0-10.375,4.646-10.375,10.375
				c0,4.773,3.229,8.784,7.619,9.993c-0.077,1.056,0.187,2.452-0.143,3.256c-4.875,0-9.753,0-14.628,0c0,1.834,0,3.669,0,5.504
				c4.924,0,9.848,0,14.773,0c-0.097,9.077,0.192,18.54-0.146,27.376c-9.067-1.168-14.498-5.974-18.684-12.022
				c-1.932,0.095-4.248-0.193-5.938,0.145c5.239,9.443,13.416,17.526,27.518,17.526c14.116,0,22.474-7.996,27.521-17.671
				c-1.979,0-3.958,0-5.938,0C528.587-266.968,522.81-261.834,513.841-261.146z M506.466-307.129c0-2.554,2.07-4.625,4.625-4.625
				c2.554,0,4.625,2.071,4.625,4.625s-2.071,4.625-4.625,4.625C508.536-302.504,506.466-304.575,506.466-307.129z"/>
			<path fill-rule="evenodd" clip-rule="evenodd" fill="#FFFFFF" d="M534.251-287.515c0.179-0.556,0.414-1.008,0.144-1.159
				c-1.066-0.499-1.726,0.564-2.027,1.304C533.128-287.285,533.465-287.625,534.251-287.515z"/>
			<path fill-rule="evenodd" clip-rule="evenodd" fill="#FFFFFF" d="M536.568-286.501c0.321-0.395,0.343-1.184-0.146-1.449
				c-0.56-0.288-1.139,0.02-1.158,0.58C536.021-287.402,536.208-286.865,536.568-286.501z"/>
			<path fill-rule="evenodd" clip-rule="evenodd" fill="#FFFFFF" d="M538.016-280.127c1.175,0.11,0.998-1.127,1.884-1.304
				c-0.308,1.312-0.869,2.165-2.172,2.028c-0.682-0.072-0.745-0.965-1.594-0.724c-0.64,0.422-0.031,2.094-0.869,2.317
				c0.125-2.685-1.137-3.982-3.187-4.491c0.354-0.708,0.546-1.578,0.725-2.462c1.179-0.316,3.841-0.759,3.041-1.448
				c-1.127-1.027-3.604-0.45-4.925,0c-1.192,0.966-1.734,1.984-1.883,3.476c-0.394,3.966,4.781,4.203,3.767,8.256
				c2.026,0,4.054,0,6.082,0c0.491-2.929,2.706-5.989,1.304-9.416C539.459-285.572,536.189-280.391,538.016-280.127z"/>
			<path fill-rule="evenodd" clip-rule="evenodd" fill="#FFFFFF" d="M535.409-281.141c1.464,0.599,1.739-1.021,2.173-1.883
				c0.474-0.942,1.298-1.705,1.298-2.773c-0.036-0.377-0.161-0.591-0.292-0.646C536.814-287.257,534.515-281.448,535.409-281.141z"
				/>
			<path fill-rule="evenodd" clip-rule="evenodd" fill="#FFFFFF" d="M533.381-283.894c-0.158,0.351-0.214,0.557-0.145,1.014
				c0.646-0.017,0.898,0.358,1.449,0.435c0.228-0.883,1.052-1.938,1.013-2.607C535.206-284.386,534.102-284.333,533.381-283.894z"/>
		</g>
	</g>
</g>
<linearGradient id="SVGID_6_" gradientUnits="userSpaceOnUse" x1="-97.2129" y1="963.334" x2="254.3797" y2="1097.8655">
	<stop  offset="0.0184" style="stop-color:#000000"/>
	<stop  offset="0.0798" style="stop-color:#0B0B0C"/>
	<stop  offset="0.2127" style="stop-color:#1D1D20"/>
	<stop  offset="0.3458" style="stop-color:#28272C"/>
	<stop  offset="0.4785" style="stop-color:#2C2B30"/>
	<stop  offset="1" style="stop-color:#000000"/>
</linearGradient>
<path fill="url(#SVGID_6_)" d="M-48.083,814.102v182.965c-0.357-0.002-0.718,0.002-1.083,0.02c-3.103,0.148-6.849,1.427-9.201,2.583
	c-2.373,1.166-4.6,2.843-6.167,4.5c-3.27,3.46-6.012,9.397-5.667,15.833c0.357,6.68,3.367,11.034,7,14.667
	c3.319,3.319,8.855,6.016,15.167,5.833l-0.051,0.604c0,0,0,185.964,0,185.964h200.987V814.102H-48.083z"/>
<path fill="url(#USGS_19_Überschwemmung)" d="M-48.083,814.102v168.987v13.278c6.269,0.071,11.49,2.811,14.735,5.938
	c3.694,3.558,6.857,8.317,7.294,15.114c0.474,7.345-2.426,12.731-5.887,16.609c-3.448,3.863-8.587,6.923-15.116,7.294
	c-0.346,0.02-0.687,0.026-1.027,0.031v13.752c0,0,0,171.964,0,171.964h200.987V814.102H-48.083z"/>
<g>
	<g>
		<rect x="-130.129" y="1010.972" fill="#FFFFFF" width="21.235" height="3.641"/>
		<rect x="-130.129" y="1017.038" fill="#FFFFFF" width="21.235" height="3.641"/>
		<rect x="-130.129" y="1023.106" fill="#FFFFFF" width="21.235" height="3.64"/>
	</g>
	<g>
		<path fill="#FFFFFF" d="M-120.96,996.417c7.102-0.524,13.044,2.454,16.609,5.888c3.694,3.558,6.857,8.317,7.294,15.114
			c0.474,7.345-2.426,12.731-5.887,16.609c-3.448,3.863-8.587,6.923-15.116,7.294c-7.031,0.4-12.751-2.304-16.609-5.888
			c-3.935-3.656-6.838-8.357-7.293-15.115c-0.486-7.206,2.323-12.802,5.712-16.608c1.682-1.891,3.871-3.506,6.415-4.834
			C-127.252,997.529-124.396,996.67-120.96,996.417z M-128.693,1000.107c-2.373,1.166-4.409,2.737-5.976,4.395
			c-3.27,3.46-5.968,8.591-5.624,15.026c0.357,6.68,2.782,10.691,6.415,14.324c3.361,3.361,8.606,6.058,15.027,5.8
			c6.036-0.24,11.008-2.822,14.325-6.414c3.316-3.594,6.014-8.209,5.8-15.028c-0.202-6.408-3.102-11.009-6.416-14.323
			c-3.253-3.253-8.569-6.107-15.027-5.801C-123.272,998.234-126.341,998.951-128.693,1000.107z"/>
	</g>
</g>
<g>
	<polygon fill="#FFFFFF" points="-39.712,1012.638 -42.286,1010.064 -48.507,1016.286 -54.73,1010.063 -57.304,1012.638 
		-51.082,1018.86 -57.302,1025.08 -54.728,1027.653 -48.508,1021.434 -42.289,1027.653 -39.714,1025.079 -45.934,1018.859 	"/>
	<g>
		<path fill="#FFFFFF" d="M-49.957,996.417c7.102-0.524,13.044,2.454,16.609,5.888c3.694,3.558,6.857,8.317,7.294,15.114
			c0.474,7.345-2.426,12.731-5.887,16.609c-3.448,3.863-8.587,6.923-15.116,7.294c-7.031,0.4-12.751-2.304-16.609-5.888
			c-3.935-3.656-6.838-8.357-7.293-15.115c-0.486-7.206,2.323-12.802,5.712-16.608c1.682-1.891,3.871-3.506,6.415-4.834
			C-56.249,997.529-53.393,996.67-49.957,996.417z M-57.689,1000.107c-2.373,1.166-4.409,2.737-5.976,4.395
			c-3.27,3.46-5.968,8.591-5.624,15.026c0.357,6.68,2.782,10.691,6.415,14.324c3.361,3.361,8.606,6.058,15.027,5.8
			c6.036-0.24,11.008-2.822,14.325-6.414c3.316-3.594,6.014-8.209,5.8-15.028c-0.202-6.408-3.102-11.009-6.416-14.323
			c-3.253-3.253-8.569-6.107-15.027-5.801C-52.269,998.234-55.337,998.951-57.689,1000.107z"/>
	</g>
</g>
<path fill="none" stroke="#FFFFFF" stroke-width="2" d="M-48.083,814.102v182.965c-0.357-0.002-0.718,0.002-1.083,0.02
	c-3.103,0.148-6.849,1.427-9.201,2.583c-2.373,1.166-4.6,2.843-6.167,4.5c-3.27,3.46-6.012,9.397-5.667,15.833
	c0.357,6.68,3.367,11.034,7,14.667c3.319,3.319,8.855,6.016,15.167,5.833l-0.051,0.604c0,0,0,185.964,0,185.964h200.987V814.102
	H-48.083z"/>
<g>
	<g>
		<path fill-rule="evenodd" clip-rule="evenodd" d="M94.159,900.466c-0.801-12.456-6.596-21.177-13.365-27.695
			c-6.533-6.292-17.42-11.751-30.434-10.79c-6.296,0.465-11.528,2.039-16.262,4.51c-4.663,2.433-8.672,5.393-11.754,8.855
			c-6.209,6.977-11.358,17.229-10.467,30.435c0.834,12.382,6.154,20.997,13.364,27.695c7.069,6.567,17.551,11.522,30.433,10.789
			c11.963-0.679,21.38-6.286,27.697-13.366C89.713,923.792,95.026,913.924,94.159,900.466z M80.473,929.45
			c-6.077,6.583-15.188,11.314-26.248,11.755c-11.764,0.471-21.375-4.47-27.534-10.628c-6.658-6.657-11.1-14.007-11.754-26.247
			c-0.632-11.793,4.312-21.195,10.304-27.535c2.871-3.035,6.603-5.914,10.95-8.051c4.31-2.119,9.932-3.434,15.618-3.704
			c11.834-0.562,21.575,4.667,27.535,10.628c6.074,6.073,11.387,14.505,11.757,26.246C91.493,914.409,86.55,922.865,80.473,929.45z"
			/>
		<g>
			<path d="M51.705,878.5c-0.697,0.004-1.394,0.007-2.091,0.01c-4.128,0.268-7.093,1.434-9.696,3.492
				c-1.759,1.391-3.336,3.184-4.948,4.812c-0.496,0.502-1.35,1.224-1.524,1.729c-0.391,1.131-0.069,2.639-0.445,3.768
				c-0.114,0.341-0.327,0.766-0.552,1.025c-0.337,0.387-1.369,1.08-2.132,1.034c-0.474-0.029-0.762-0.427-1.35-0.411
				c-0.934,0.023-1.348,0.564-1.854,1.125c-0.68,0.754-1.225,1.334-0.87,2.515c0.34,1.13,1.614,1.966,2.572,2.914
				c0.468,0.464,0.895,0.933,1.355,1.388c0.471,0.467,0.919,1.059,1.541,1.246c1.43,0.436,2.266-0.674,2.921-1.363
				c0.415-0.438,0.913-1.062,0.873-1.863c-0.038-0.74-0.491-0.646-0.518-1.346c-0.047-1.188,0.947-2.15,1.705-2.751
				c0.835-0.662,2.113-1.272,3.388-1.04c0.799,0.145,1.137,0.579,1.679,1.105c0.146,0.143,0.851,1.025,1.028,1.018
				c0.02-0.002,0.536-0.509,0.694-0.654c1.732-1.595,3.171-3.352,4.809-4.859c-0.737-1.08-2.249-1.581-2.341-3.195
				c-0.04-0.689,0.224-1.277,0.548-1.769c0.484-0.735,1.398-1.435,2.221-2.011c2.442-1.713,5.992-3.012,9.743-3.119
				c0.008-0.565,0.084-1.299,0.038-1.767C56.401,879.019,54.165,878.646,51.705,878.5z"/>
		</g>
		<polygon points="14.99,913.596 20.416,907.599 18.988,903.314 19.559,901.602 27.985,910.025 25.843,910.455 22.13,909.312 
			16.132,915.596 		"/>
		<rect x="40.484" y="905.334" transform="matrix(0.7071 0.7071 -0.7071 0.7071 660.7695 223.3521)" width="40.563" height="7.98"/>
	</g>
	<g>
		<path d="M94.159,1019.541c-0.801-12.457-6.596-21.179-13.365-27.696c-6.533-6.292-17.42-11.753-30.434-10.79
			c-6.296,0.466-11.528,2.038-16.262,4.509c-4.663,2.434-8.672,5.393-11.754,8.857c-6.209,6.976-11.358,17.229-10.467,30.435
			c0.834,12.383,6.154,20.998,13.364,27.696c7.069,6.568,17.551,11.522,30.433,10.79c11.963-0.68,21.38-6.287,27.697-13.365
			C89.713,1042.868,95.026,1032.999,94.159,1019.541z M80.473,1048.528c-6.077,6.581-15.188,11.312-26.248,11.753
			c-11.764,0.471-21.375-4.469-27.534-10.628c-6.658-6.656-11.1-14.006-11.754-26.246c-0.632-11.794,4.312-21.197,10.304-27.538
			c2.871-3.035,6.603-5.915,10.95-8.052c4.31-2.118,9.932-3.432,15.618-3.704c11.834-0.562,21.575,4.669,27.535,10.629
			c6.074,6.073,11.387,14.506,11.757,26.249C91.493,1033.485,86.55,1041.941,80.473,1048.528z"/>
		<path d="M69.808,1002.028l-9.507-2.45l-1.31,0.007c-0.592,2.276-3.14,3.989-6.193,3.989c-3.026,0-5.555-1.683-6.176-3.932
			l-1.844,0.011l-9.581,2.3l-10.249,10.696l5.421,8.765l4.457-1.56l0.074,25.4h34.982l0.149-25.548l4.159,1.707l5.793-8.912
			L69.808,1002.028z M35.4,1019.685l-0.705-0.38c3.37-6.262,0.155-16.046,0.122-16.144l0.759-0.254
			C35.715,1003.321,38.933,1013.121,35.4,1019.685z M52.9,1005.639c-3.599,0-6.66-1.735-7.443-4.219l0.789-0.249
			c0.665,2.111,3.463,3.643,6.654,3.643c3.23,0,6.037-1.554,6.672-3.693l0.792,0.234C59.627,1003.838,56.487,1005.639,52.9,1005.639
			z M69.635,1019.685c-3.533-6.563-0.315-16.363-0.176-16.777l0.759,0.254c-0.033,0.098-3.246,9.887,0.122,16.144L69.635,1019.685z"
			/>
	</g>
	<g>
		<path d="M94.159,1138.621c-0.801-12.458-6.596-21.18-13.365-27.697c-6.533-6.292-17.42-11.752-30.434-10.79
			c-6.296,0.466-11.528,2.038-16.262,4.508c-4.663,2.436-8.672,5.395-11.754,8.858c-6.209,6.977-11.358,17.229-10.467,30.435
			c0.834,12.383,6.154,20.998,13.364,27.697c7.069,6.567,17.551,11.521,30.433,10.789c11.963-0.68,21.38-6.287,27.697-13.365
			C89.713,1161.947,95.026,1152.077,94.159,1138.621z M80.473,1167.607c-6.077,6.581-15.188,11.312-26.248,11.754
			c-11.764,0.471-21.375-4.47-27.534-10.628c-6.658-6.657-11.1-14.007-11.754-26.247c-0.632-11.794,4.312-21.196,10.304-27.538
			c2.871-3.036,6.603-5.915,10.95-8.051c4.31-2.119,9.932-3.434,15.618-3.704c11.834-0.562,21.575,4.668,27.535,10.629
			c6.074,6.073,11.387,14.505,11.757,26.247C91.493,1152.565,86.55,1161.021,80.473,1167.607z"/>
		<g>
			<path d="M48.283,1139.999c0,0,26-21.445,27.199-22.535c1.201-1.094,1.747-0.658,0.655,0.76
				c-1.09,1.42-20.888,28.365-20.888,28.365L48.283,1139.999z"/>
			<polygon points="47.788,1140.766 54.595,1147.136 44.794,1153.198 41.985,1150.388 			"/>
			<path d="M42.298,1151.387c0,0-3.187-0.766-5.867,2.296c-2.679,3.062-2.934,10.46-8.292,10.97c0,0,1.147,0.639,1.785,0.386
				l-0.638,0.253c0,0,1.532,0.766,3.955-0.766l-0.256,0.765c0,0,13.713-4.4,10.907-12.246L42.298,1151.387z"/>
		</g>
	</g>
	<g>
		<path fill-rule="evenodd" clip-rule="evenodd" fill="#FFFFFF" d="M92.159,898.466c-0.801-12.456-6.596-21.177-13.365-27.695
			c-6.533-6.292-17.42-11.751-30.434-10.79c-6.296,0.465-11.528,2.039-16.262,4.51c-4.663,2.433-8.672,5.393-11.754,8.855
			c-6.209,6.977-11.358,17.229-10.467,30.435c0.834,12.382,6.154,20.997,13.364,27.695c7.069,6.567,17.551,11.522,30.433,10.789
			c11.963-0.679,21.38-6.286,27.697-13.366C87.713,921.792,93.026,911.924,92.159,898.466z M78.473,927.45
			c-6.077,6.583-15.188,11.314-26.248,11.755c-11.764,0.471-21.375-4.47-27.534-10.628c-6.658-6.657-11.1-14.007-11.754-26.247
			c-0.632-11.793,4.312-21.195,10.304-27.535c2.871-3.035,6.603-5.914,10.95-8.051c4.31-2.119,9.932-3.434,15.618-3.704
			c11.834-0.562,21.575,4.667,27.535,10.628c6.074,6.073,11.387,14.505,11.757,26.246C89.493,912.409,84.55,920.865,78.473,927.45z"
			/>
		<g>
			<path fill="#FFFFFF" d="M49.705,876.5c-0.697,0.004-1.394,0.007-2.091,0.01c-4.128,0.268-7.093,1.434-9.696,3.492
				c-1.759,1.391-3.336,3.184-4.948,4.812c-0.496,0.502-1.35,1.224-1.524,1.729c-0.391,1.131-0.069,2.639-0.445,3.768
				c-0.114,0.341-0.327,0.766-0.552,1.025c-0.337,0.387-1.369,1.08-2.132,1.034c-0.474-0.029-0.762-0.427-1.35-0.411
				c-0.934,0.023-1.348,0.564-1.854,1.125c-0.68,0.754-1.225,1.334-0.87,2.515c0.34,1.13,1.614,1.966,2.572,2.914
				c0.468,0.464,0.895,0.933,1.355,1.388c0.471,0.467,0.919,1.059,1.541,1.246c1.43,0.436,2.266-0.674,2.921-1.363
				c0.415-0.438,0.913-1.062,0.873-1.863c-0.038-0.74-0.491-0.646-0.518-1.346c-0.047-1.188,0.947-2.15,1.705-2.751
				c0.835-0.662,2.113-1.272,3.388-1.04c0.799,0.145,1.137,0.579,1.679,1.105c0.146,0.143,0.851,1.025,1.028,1.018
				c0.02-0.002,0.536-0.509,0.694-0.654c1.732-1.595,3.171-3.352,4.809-4.859c-0.737-1.08-2.249-1.581-2.341-3.195
				c-0.04-0.689,0.224-1.277,0.548-1.769c0.484-0.735,1.398-1.435,2.221-2.011c2.442-1.713,5.992-3.012,9.743-3.119
				c0.008-0.565,0.084-1.299,0.038-1.767C54.401,877.019,52.165,876.646,49.705,876.5z"/>
		</g>
		<polygon fill="#FFFFFF" points="12.99,911.596 18.416,905.599 16.988,901.314 17.559,899.602 25.985,908.025 23.843,908.455 
			20.13,907.312 14.132,913.596 		"/>
		
			<rect x="38.484" y="903.334" transform="matrix(0.7071 0.7071 -0.7071 0.7071 658.7696 224.1805)" fill="#FFFFFF" width="40.563" height="7.98"/>
	</g>
	<g>
		<path fill="#FFFFFF" d="M92.159,1017.541c-0.801-12.457-6.596-21.179-13.365-27.696c-6.533-6.292-17.42-11.753-30.434-10.79
			c-6.296,0.466-11.528,2.038-16.262,4.509c-4.663,2.434-8.672,5.393-11.754,8.857c-6.209,6.976-11.358,17.229-10.467,30.435
			c0.834,12.383,6.154,20.998,13.364,27.696c7.069,6.568,17.551,11.522,30.433,10.79c11.963-0.68,21.38-6.287,27.697-13.365
			C87.713,1040.868,93.026,1030.999,92.159,1017.541z M78.473,1046.528c-6.077,6.581-15.188,11.312-26.248,11.753
			c-11.764,0.471-21.375-4.469-27.534-10.628c-6.658-6.656-11.1-14.006-11.754-26.246c-0.632-11.794,4.312-21.197,10.304-27.538
			c2.871-3.035,6.603-5.915,10.95-8.052c4.31-2.118,9.932-3.432,15.618-3.704c11.834-0.562,21.575,4.669,27.535,10.629
			c6.074,6.073,11.387,14.506,11.757,26.249C89.493,1031.485,84.55,1039.941,78.473,1046.528z"/>
		<path fill="#FFFFFF" d="M67.808,1000.028l-9.507-2.45l-1.31,0.007c-0.592,2.276-3.14,3.989-6.193,3.989
			c-3.026,0-5.555-1.683-6.176-3.932l-1.844,0.011l-9.581,2.3l-10.249,10.696l5.421,8.765l4.457-1.56l0.074,25.4h34.982
			l0.149-25.548l4.159,1.707l5.793-8.912L67.808,1000.028z M33.4,1017.685l-0.705-0.38c3.37-6.262,0.155-16.046,0.122-16.144
			l0.759-0.254C33.715,1001.321,36.933,1011.121,33.4,1017.685z M50.9,1003.639c-3.599,0-6.66-1.735-7.443-4.219l0.789-0.249
			c0.665,2.111,3.463,3.643,6.654,3.643c3.23,0,6.037-1.554,6.672-3.693l0.792,0.234C57.627,1001.838,54.487,1003.639,50.9,1003.639
			z M67.635,1017.685c-3.533-6.563-0.315-16.363-0.176-16.777l0.759,0.254c-0.033,0.098-3.246,9.887,0.122,16.144L67.635,1017.685z"
			/>
	</g>
	<g>
		<path fill="#FFFFFF" d="M92.159,1136.621c-0.801-12.458-6.596-21.18-13.365-27.697c-6.533-6.292-17.42-11.752-30.434-10.79
			c-6.296,0.466-11.528,2.038-16.262,4.508c-4.663,2.436-8.672,5.395-11.754,8.858c-6.209,6.977-11.358,17.229-10.467,30.435
			c0.834,12.383,6.154,20.998,13.364,27.697c7.069,6.567,17.551,11.521,30.433,10.789c11.963-0.68,21.38-6.287,27.697-13.365
			C87.713,1159.947,93.026,1150.077,92.159,1136.621z M78.473,1165.607c-6.077,6.581-15.188,11.312-26.248,11.754
			c-11.764,0.471-21.375-4.47-27.534-10.628c-6.658-6.657-11.1-14.007-11.754-26.247c-0.632-11.794,4.312-21.196,10.304-27.538
			c2.871-3.036,6.603-5.915,10.95-8.051c4.31-2.119,9.932-3.434,15.618-3.704c11.834-0.562,21.575,4.668,27.535,10.629
			c6.074,6.073,11.387,14.505,11.757,26.247C89.493,1150.565,84.55,1159.021,78.473,1165.607z"/>
		<g>
			<path fill="#FFFFFF" d="M46.283,1137.999c0,0,26-21.445,27.199-22.535c1.201-1.094,1.747-0.658,0.655,0.76
				c-1.09,1.42-20.888,28.365-20.888,28.365L46.283,1137.999z"/>
			<polygon fill="#FFFFFF" points="45.788,1138.766 52.595,1145.136 42.794,1151.198 39.985,1148.388 			"/>
			<path fill="#FFFFFF" d="M40.298,1149.387c0,0-3.187-0.766-5.867,2.296c-2.679,3.062-2.934,10.46-8.292,10.97
				c0,0,1.147,0.639,1.785,0.386l-0.638,0.253c0,0,1.532,0.766,3.955-0.766l-0.256,0.765c0,0,13.713-4.4,10.907-12.246
				L40.298,1149.387z"/>
		</g>
	</g>
</g>
<g>
	<g>
		<path fill-rule="evenodd" clip-rule="evenodd" d="M264.167,900.466c-0.801-12.456-6.596-21.177-13.365-27.695
			c-6.533-6.292-17.42-11.751-30.434-10.79c-6.296,0.465-11.528,2.039-16.262,4.51c-4.663,2.433-8.672,5.393-11.754,8.855
			c-6.209,6.977-11.358,17.229-10.467,30.435c0.834,12.382,6.154,20.997,13.364,27.695c7.069,6.567,17.551,11.522,30.433,10.789
			c11.963-0.679,21.38-6.286,27.697-13.366C259.721,923.792,265.034,913.924,264.167,900.466z M250.481,929.45
			c-6.077,6.583-15.188,11.314-26.248,11.755c-11.764,0.471-21.375-4.47-27.534-10.628c-6.658-6.657-11.1-14.007-11.754-26.247
			c-0.632-11.793,4.312-21.195,10.304-27.535c2.871-3.035,6.603-5.914,10.95-8.051c4.31-2.119,9.932-3.434,15.618-3.704
			c11.834-0.562,21.575,4.667,27.535,10.628c6.074,6.073,11.387,14.505,11.757,26.246
			C261.501,914.409,256.559,922.865,250.481,929.45z"/>
		<g>
			<path d="M221.713,878.5c-0.697,0.004-1.394,0.007-2.091,0.01c-4.128,0.268-7.093,1.434-9.696,3.492
				c-1.759,1.391-3.336,3.184-4.948,4.812c-0.496,0.502-1.35,1.224-1.524,1.729c-0.391,1.131-0.069,2.639-0.445,3.768
				c-0.114,0.341-0.327,0.766-0.552,1.025c-0.337,0.387-1.369,1.08-2.132,1.034c-0.474-0.029-0.762-0.427-1.35-0.411
				c-0.934,0.023-1.348,0.564-1.854,1.125c-0.68,0.754-1.225,1.334-0.87,2.515c0.34,1.13,1.614,1.966,2.572,2.914
				c0.468,0.464,0.895,0.933,1.355,1.388c0.471,0.467,0.919,1.059,1.541,1.246c1.43,0.436,2.266-0.674,2.921-1.363
				c0.415-0.438,0.913-1.062,0.873-1.863c-0.038-0.74-0.491-0.646-0.518-1.346c-0.047-1.188,0.947-2.15,1.705-2.751
				c0.835-0.662,2.113-1.272,3.388-1.04c0.799,0.145,1.137,0.579,1.679,1.105c0.146,0.143,0.851,1.025,1.028,1.018
				c0.02-0.002,0.536-0.509,0.694-0.654c1.732-1.595,3.171-3.352,4.809-4.859c-0.737-1.08-2.249-1.581-2.341-3.195
				c-0.04-0.689,0.224-1.277,0.548-1.769c0.484-0.735,1.398-1.435,2.221-2.011c2.442-1.713,5.992-3.012,9.743-3.119
				c0.008-0.565,0.084-1.299,0.038-1.767C226.409,879.019,224.173,878.646,221.713,878.5z"/>
		</g>
		<polygon points="184.998,913.596 190.424,907.599 188.996,903.314 189.567,901.602 197.993,910.025 195.851,910.455 
			192.138,909.312 186.14,915.596 		"/>
		
			<rect x="210.492" y="905.334" transform="matrix(0.7071 0.7071 -0.7071 0.7071 710.5607 103.1412)" width="40.563" height="7.98"/>
	</g>
	<g>
		<path d="M264.167,1019.541c-0.801-12.457-6.596-21.179-13.365-27.696c-6.533-6.292-17.42-11.753-30.434-10.79
			c-6.296,0.466-11.528,2.038-16.262,4.509c-4.663,2.434-8.672,5.393-11.754,8.857c-6.209,6.976-11.358,17.229-10.467,30.435
			c0.834,12.383,6.154,20.998,13.364,27.696c7.069,6.568,17.551,11.522,30.433,10.79c11.963-0.68,21.38-6.287,27.697-13.365
			C259.721,1042.868,265.034,1032.999,264.167,1019.541z M250.481,1048.528c-6.077,6.581-15.188,11.312-26.248,11.753
			c-11.764,0.471-21.375-4.469-27.534-10.628c-6.658-6.656-11.1-14.006-11.754-26.246c-0.632-11.794,4.312-21.197,10.304-27.538
			c2.871-3.035,6.603-5.915,10.95-8.052c4.31-2.118,9.932-3.432,15.618-3.704c11.834-0.562,21.575,4.669,27.535,10.629
			c6.074,6.073,11.387,14.506,11.757,26.249C261.501,1033.485,256.559,1041.941,250.481,1048.528z"/>
		<path d="M239.816,1002.028l-9.507-2.45l-1.31,0.007c-0.592,2.276-3.14,3.989-6.193,3.989c-3.026,0-5.555-1.683-6.176-3.932
			l-1.844,0.011l-9.581,2.3l-10.249,10.696l5.421,8.765l4.457-1.56l0.074,25.4h34.982l0.149-25.548l4.159,1.707l5.793-8.912
			L239.816,1002.028z M205.409,1019.685l-0.705-0.38c3.37-6.262,0.155-16.046,0.122-16.144l0.759-0.254
			C205.724,1003.321,208.941,1013.121,205.409,1019.685z M222.908,1005.639c-3.599,0-6.66-1.735-7.443-4.219l0.789-0.249
			c0.665,2.111,3.463,3.643,6.654,3.643c3.23,0,6.037-1.554,6.672-3.693l0.792,0.234
			C229.635,1003.838,226.496,1005.639,222.908,1005.639z M239.643,1019.685c-3.533-6.563-0.315-16.363-0.176-16.777l0.759,0.254
			c-0.033,0.098-3.246,9.887,0.122,16.144L239.643,1019.685z"/>
	</g>
	<g>
		<path d="M264.167,1138.621c-0.801-12.458-6.596-21.18-13.365-27.697c-6.533-6.292-17.42-11.752-30.434-10.79
			c-6.296,0.466-11.528,2.038-16.262,4.508c-4.663,2.436-8.672,5.395-11.754,8.858c-6.209,6.977-11.358,17.229-10.467,30.435
			c0.834,12.383,6.154,20.998,13.364,27.697c7.069,6.567,17.551,11.521,30.433,10.789c11.963-0.68,21.38-6.287,27.697-13.365
			C259.721,1161.947,265.034,1152.077,264.167,1138.621z M250.481,1167.607c-6.077,6.581-15.188,11.312-26.248,11.754
			c-11.764,0.471-21.375-4.47-27.534-10.628c-6.658-6.657-11.1-14.007-11.754-26.247c-0.632-11.794,4.312-21.196,10.304-27.538
			c2.871-3.036,6.603-5.915,10.95-8.051c4.31-2.119,9.932-3.434,15.618-3.704c11.834-0.562,21.575,4.668,27.535,10.629
			c6.074,6.073,11.387,14.505,11.757,26.247C261.501,1152.565,256.559,1161.021,250.481,1167.607z"/>
		<g>
			<path d="M218.292,1139.999c0,0,26-21.445,27.199-22.535c1.201-1.094,1.747-0.658,0.655,0.76
				c-1.09,1.42-20.888,28.365-20.888,28.365L218.292,1139.999z"/>
			<polygon points="217.796,1140.766 224.604,1147.136 214.803,1153.198 211.993,1150.388 			"/>
			<path d="M212.307,1151.387c0,0-3.187-0.766-5.867,2.296c-2.679,3.062-2.934,10.46-8.292,10.97c0,0,1.147,0.639,1.785,0.386
				l-0.638,0.253c0,0,1.532,0.766,3.955-0.766l-0.256,0.765c0,0,13.713-4.4,10.907-12.246L212.307,1151.387z"/>
		</g>
	</g>
	<g>
		<path fill-rule="evenodd" clip-rule="evenodd" fill="#24222B" d="M262.167,898.466c-0.801-12.456-6.596-21.177-13.365-27.695
			c-6.533-6.292-17.42-11.751-30.434-10.79c-6.296,0.465-11.528,2.039-16.262,4.51c-4.663,2.433-8.672,5.393-11.754,8.855
			c-6.209,6.977-11.358,17.229-10.467,30.435c0.834,12.382,6.154,20.997,13.364,27.695c7.069,6.567,17.551,11.522,30.433,10.789
			c11.963-0.679,21.38-6.286,27.697-13.366C257.721,921.792,263.034,911.924,262.167,898.466z M248.481,927.45
			c-6.077,6.583-15.188,11.314-26.248,11.755c-11.764,0.471-21.375-4.47-27.534-10.628c-6.658-6.657-11.1-14.007-11.754-26.247
			c-0.632-11.793,4.312-21.195,10.304-27.535c2.871-3.035,6.603-5.914,10.95-8.051c4.31-2.119,9.932-3.434,15.618-3.704
			c11.834-0.562,21.575,4.667,27.535,10.628c6.074,6.073,11.387,14.505,11.757,26.246
			C259.501,912.409,254.559,920.865,248.481,927.45z"/>
		<g>
			<path fill="#24222B" d="M219.713,876.5c-0.697,0.004-1.394,0.007-2.091,0.01c-4.128,0.268-7.093,1.434-9.696,3.492
				c-1.759,1.391-3.336,3.184-4.948,4.812c-0.496,0.502-1.35,1.224-1.524,1.729c-0.391,1.131-0.069,2.639-0.445,3.768
				c-0.114,0.341-0.327,0.766-0.552,1.025c-0.337,0.387-1.369,1.08-2.132,1.034c-0.474-0.029-0.762-0.427-1.35-0.411
				c-0.934,0.023-1.348,0.564-1.854,1.125c-0.68,0.754-1.225,1.334-0.87,2.515c0.34,1.13,1.614,1.966,2.572,2.914
				c0.468,0.464,0.895,0.933,1.355,1.388c0.471,0.467,0.919,1.059,1.541,1.246c1.43,0.436,2.266-0.674,2.921-1.363
				c0.415-0.438,0.913-1.062,0.873-1.863c-0.038-0.74-0.491-0.646-0.518-1.346c-0.047-1.188,0.947-2.15,1.705-2.751
				c0.835-0.662,2.113-1.272,3.388-1.04c0.799,0.145,1.137,0.579,1.679,1.105c0.146,0.143,0.851,1.025,1.028,1.018
				c0.02-0.002,0.536-0.509,0.694-0.654c1.732-1.595,3.171-3.352,4.809-4.859c-0.737-1.08-2.249-1.581-2.341-3.195
				c-0.04-0.689,0.224-1.277,0.548-1.769c0.484-0.735,1.398-1.435,2.221-2.011c2.442-1.713,5.992-3.012,9.743-3.119
				c0.008-0.565,0.084-1.299,0.038-1.767C224.409,877.019,222.173,876.646,219.713,876.5z"/>
		</g>
		<polygon fill="#24222B" points="182.998,911.596 188.424,905.599 186.996,901.314 187.567,899.602 195.993,908.025 
			193.851,908.455 190.138,907.312 184.14,913.596 		"/>
		
			<rect x="208.492" y="903.334" transform="matrix(0.7071 0.7071 -0.7071 0.7071 708.5608 103.9696)" fill="#24222B" width="40.563" height="7.98"/>
	</g>
	<g>
		<path fill="#24222B" d="M262.167,1017.541c-0.801-12.457-6.596-21.179-13.365-27.696c-6.533-6.292-17.42-11.753-30.434-10.79
			c-6.296,0.466-11.528,2.038-16.262,4.509c-4.663,2.434-8.672,5.393-11.754,8.857c-6.209,6.976-11.358,17.229-10.467,30.435
			c0.834,12.383,6.154,20.998,13.364,27.696c7.069,6.568,17.551,11.522,30.433,10.79c11.963-0.68,21.38-6.287,27.697-13.365
			C257.721,1040.868,263.034,1030.999,262.167,1017.541z M248.481,1046.528c-6.077,6.581-15.188,11.312-26.248,11.753
			c-11.764,0.471-21.375-4.469-27.534-10.628c-6.658-6.656-11.1-14.006-11.754-26.246c-0.632-11.794,4.312-21.197,10.304-27.538
			c2.871-3.035,6.603-5.915,10.95-8.052c4.31-2.118,9.932-3.432,15.618-3.704c11.834-0.562,21.575,4.669,27.535,10.629
			c6.074,6.073,11.387,14.506,11.757,26.249C259.501,1031.485,254.559,1039.941,248.481,1046.528z"/>
		<path fill="#24222B" d="M237.816,1000.028l-9.507-2.45l-1.31,0.007c-0.592,2.276-3.14,3.989-6.193,3.989
			c-3.026,0-5.555-1.683-6.176-3.932l-1.844,0.011l-9.581,2.3l-10.249,10.696l5.421,8.765l4.457-1.56l0.074,25.4h34.982
			l0.149-25.548l4.159,1.707l5.793-8.912L237.816,1000.028z M203.409,1017.685l-0.705-0.38c3.37-6.262,0.155-16.046,0.122-16.144
			l0.759-0.254C203.724,1001.321,206.941,1011.121,203.409,1017.685z M220.908,1003.639c-3.599,0-6.66-1.735-7.443-4.219
			l0.789-0.249c0.665,2.111,3.463,3.643,6.654,3.643c3.23,0,6.037-1.554,6.672-3.693l0.792,0.234
			C227.635,1001.838,224.496,1003.639,220.908,1003.639z M237.643,1017.685c-3.533-6.563-0.315-16.363-0.176-16.777l0.759,0.254
			c-0.033,0.098-3.246,9.887,0.122,16.144L237.643,1017.685z"/>
	</g>
	<g>
		<path fill="#24222B" d="M262.167,1136.621c-0.801-12.458-6.596-21.18-13.365-27.697c-6.533-6.292-17.42-11.752-30.434-10.79
			c-6.296,0.466-11.528,2.038-16.262,4.508c-4.663,2.436-8.672,5.395-11.754,8.858c-6.209,6.977-11.358,17.229-10.467,30.435
			c0.834,12.383,6.154,20.998,13.364,27.697c7.069,6.567,17.551,11.521,30.433,10.789c11.963-0.68,21.38-6.287,27.697-13.365
			C257.721,1159.947,263.034,1150.077,262.167,1136.621z M248.481,1165.607c-6.077,6.581-15.188,11.312-26.248,11.754
			c-11.764,0.471-21.375-4.47-27.534-10.628c-6.658-6.657-11.1-14.007-11.754-26.247c-0.632-11.794,4.312-21.196,10.304-27.538
			c2.871-3.036,6.603-5.915,10.95-8.051c4.31-2.119,9.932-3.434,15.618-3.704c11.834-0.562,21.575,4.668,27.535,10.629
			c6.074,6.073,11.387,14.505,11.757,26.247C259.501,1150.565,254.559,1159.021,248.481,1165.607z"/>
		<g>
			<path fill="#24222B" d="M216.292,1137.999c0,0,26-21.445,27.199-22.535c1.201-1.094,1.747-0.658,0.655,0.76
				c-1.09,1.42-20.888,28.365-20.888,28.365L216.292,1137.999z"/>
			<polygon fill="#24222B" points="215.796,1138.766 222.604,1145.136 212.803,1151.198 209.993,1148.388 			"/>
			<path fill="#24222B" d="M210.307,1149.387c0,0-3.187-0.766-5.867,2.296c-2.679,3.062-2.934,10.46-8.292,10.97
				c0,0,1.147,0.639,1.785,0.386l-0.638,0.253c0,0,1.532,0.766,3.955-0.766l-0.256,0.765c0,0,13.713-4.4,10.907-12.246
				L210.307,1149.387z"/>
		</g>
	</g>
</g>
<g>
	<g>
		<g>
			<path fill-rule="evenodd" clip-rule="evenodd" d="M370.695,305.976c-1.719-26.728-14.152-45.44-28.677-59.428
				c-14.018-13.502-37.377-25.215-65.3-23.153c-13.51,0.997-24.736,4.375-34.893,9.677c-10.005,5.221-18.607,11.572-25.221,19.002
				c-13.324,14.971-24.371,36.968-22.46,65.305c1.791,26.568,13.206,45.054,28.675,59.426
				c15.168,14.092,37.658,24.724,65.299,23.149c25.669-1.455,45.874-13.487,59.43-28.68
				C361.156,356.025,372.557,334.852,370.695,305.976z M341.332,368.166c-13.039,14.125-32.589,24.277-56.321,25.223
				c-25.241,1.011-45.865-9.591-59.079-22.804c-14.285-14.285-23.816-30.055-25.221-56.319
				c-1.355-25.304,9.253-45.478,22.109-59.082c6.16-6.513,14.167-12.69,23.496-17.275c9.246-4.548,21.311-7.368,33.512-7.948
				c25.393-1.207,46.291,10.015,59.08,22.806c13.034,13.031,24.432,31.123,25.227,56.316
				C364.975,335.893,354.369,354.037,341.332,368.166z"/>
			<g>
				<path d="M279.604,258.843c-1.496,0.008-2.989,0.015-4.486,0.021c-8.858,0.574-15.219,3.076-20.804,7.493
					c-3.773,2.984-7.158,6.831-10.617,10.326c-1.062,1.078-2.896,2.626-3.27,3.709c-0.84,2.427-0.148,5.662-0.955,8.084
					c-0.244,0.731-0.702,1.644-1.186,2.2c-0.723,0.83-2.938,2.317-4.574,2.22c-1.018-0.062-1.637-0.916-2.896-0.883
					c-2.004,0.051-2.893,1.211-3.977,2.414c-1.459,1.618-2.629,2.863-1.867,5.396c0.729,2.425,3.463,4.218,5.52,6.253
					c1.004,0.994,1.918,2,2.906,2.977c1.012,1.002,1.973,2.271,3.307,2.674c3.066,0.935,4.861-1.446,6.268-2.925
					c0.89-0.938,1.959-2.277,1.873-3.997c-0.082-1.589-1.055-1.388-1.112-2.888c-0.101-2.548,2.031-4.614,3.657-5.903
					c1.792-1.422,4.535-2.73,7.27-2.232c1.715,0.311,2.439,1.243,3.602,2.372c0.313,0.307,1.825,2.201,2.205,2.184
					c0.043-0.004,1.15-1.092,1.489-1.405c3.718-3.422,6.804-7.191,10.317-10.426c-1.58-2.318-4.825-3.394-5.021-6.857
					c-0.086-1.479,0.48-2.74,1.176-3.794c1.037-1.578,2.998-3.078,4.764-4.314c5.241-3.676,12.857-6.463,20.905-6.693
					c0.018-1.214,0.18-2.787,0.081-3.79C289.68,259.955,284.882,259.156,279.604,258.843z"/>
			</g>
			<polygon points="200.824,334.147 212.468,321.279 209.403,312.087 210.629,308.411 228.709,326.486 224.111,327.408 
				216.146,324.957 203.275,338.438 			"/>
			<polygon points="323.765,361.807 262.219,300.265 274.326,288.158 335.866,349.701 			"/>
		</g>
		<g>
			<path d="M595.28,305.974c-1.718-26.729-14.152-45.444-28.677-59.43c-14.019-13.502-37.378-25.22-65.305-23.153
				c-13.508,0.999-24.735,4.373-34.893,9.675c-10.004,5.222-18.605,11.571-25.219,19.006c-13.324,14.968-24.371,36.969-22.46,65.305
				c1.789,26.57,13.204,45.056,28.675,59.428c15.167,14.093,37.658,24.724,65.298,23.152c25.671-1.458,45.877-13.49,59.433-28.678
				C585.742,356.025,597.142,334.85,595.28,305.974z M565.915,368.171c-13.04,14.12-32.59,24.271-56.321,25.218
				c-25.244,1.011-45.867-9.589-59.081-22.804c-14.286-14.283-23.816-30.053-25.221-56.316c-1.355-25.307,9.253-45.483,22.11-59.09
				c6.158-6.512,14.166-12.691,23.494-17.277c9.248-4.545,21.312-7.363,33.512-7.947c25.395-1.207,46.295,10.019,59.085,22.808
				c13.033,13.031,24.433,31.125,25.227,56.323C589.56,335.893,578.955,354.037,565.915,368.171z"/>
			<path d="M543.031,268.396l-20.401-5.258l-2.81,0.015c-1.27,4.885-6.738,8.561-13.289,8.561c-6.494,0-11.921-3.61-13.252-8.437
				l-3.957,0.022l-20.559,4.936l-21.99,22.95l11.633,18.808l9.561-3.347l0.16,54.501h75.062l0.32-54.816l8.925,3.662l12.43-19.123
				L543.031,268.396z M469.201,306.282l-1.513-0.816c7.23-13.437,0.333-34.43,0.263-34.64l1.627-0.544
				C469.876,271.17,476.781,292.197,469.201,306.282z M506.75,276.143c-7.723,0-14.291-3.724-15.971-9.053l1.693-0.534
				c1.426,4.53,7.428,7.815,14.277,7.815c6.932,0,12.955-3.333,14.317-7.925l1.699,0.503
				C521.185,272.278,514.448,276.143,506.75,276.143z M542.66,306.282c-7.58-14.085-0.677-35.112-0.379-36l1.628,0.544
				c-0.071,0.21-6.963,21.214,0.265,34.64L542.66,306.282z"/>
		</g>
		<g>
			<path d="M819.872,305.976c-1.719-26.731-14.152-45.446-28.678-59.432c-14.019-13.502-37.378-25.218-65.304-23.153
				c-13.509,0.999-24.736,4.373-34.895,9.673c-10.004,5.227-18.607,11.575-25.221,19.008c-13.324,14.971-24.372,36.97-22.46,65.305
				c1.789,26.57,13.204,45.056,28.675,59.43c15.169,14.091,37.661,24.722,65.301,23.15c25.672-1.458,45.877-13.49,59.433-28.678
				C810.334,356.025,821.732,334.847,819.872,305.976z M790.507,368.171c-13.04,14.12-32.59,24.272-56.322,25.22
				c-25.243,1.01-45.869-9.591-59.082-22.804c-14.287-14.285-23.819-30.055-25.223-56.318c-1.355-25.307,9.253-45.48,22.11-59.09
				c6.161-6.515,14.168-12.691,23.496-17.275c9.249-4.547,21.312-7.367,33.514-7.947c25.395-1.207,46.294,10.017,59.084,22.807
				c13.034,13.032,24.433,31.124,25.228,56.319C814.151,335.895,803.547,354.037,790.507,368.171z"/>
			<g>
				<path d="M721.436,308.931c0,0,55.788-46.015,58.363-48.354c2.576-2.347,3.747-1.412,1.404,1.63
					c-2.339,3.048-44.819,60.863-44.819,60.863L721.436,308.931z"/>
				<polygon points="720.371,310.576 734.979,324.244 713.948,337.252 707.921,331.223 				"/>
				<path d="M708.593,333.366c0,0-6.839-1.644-12.589,4.926s-6.297,22.443-17.792,23.538c0,0,2.462,1.37,3.83,0.827l-1.368,0.543
					c0,0,3.288,1.643,8.486-1.643l-0.549,1.641c0,0,29.425-9.441,23.404-26.276L708.593,333.366z"/>
			</g>
		</g>
	</g>
	<g>
		<g>
			<path fill-rule="evenodd" clip-rule="evenodd" fill="#FFFFFF" d="M367.695,301.975c-1.719-26.727-14.152-45.439-28.677-59.427
				c-14.018-13.502-37.377-25.215-65.3-23.153c-13.51,0.997-24.736,4.375-34.893,9.677c-10.005,5.221-18.607,11.572-25.221,19.002
				c-13.324,14.971-24.371,36.968-22.46,65.305c1.791,26.568,13.206,45.054,28.675,59.426
				c15.168,14.092,37.658,24.724,65.299,23.149c25.669-1.455,45.874-13.487,59.43-28.68
				C358.156,352.025,369.557,330.852,367.695,301.975z M338.332,364.166c-13.039,14.125-32.589,24.277-56.321,25.223
				c-25.241,1.011-45.865-9.591-59.079-22.804c-14.285-14.285-23.816-30.055-25.221-56.319
				c-1.355-25.304,9.253-45.478,22.109-59.082c6.16-6.513,14.167-12.69,23.496-17.275c9.246-4.548,21.311-7.368,33.512-7.948
				c25.393-1.207,46.291,10.015,59.08,22.806c13.034,13.031,24.432,31.123,25.227,56.316
				C361.975,331.893,351.369,350.037,338.332,364.166z"/>
			<g>
				<path fill="#FFFFFF" d="M276.604,254.843c-1.496,0.008-2.989,0.015-4.486,0.021c-8.858,0.574-15.219,3.076-20.804,7.493
					c-3.773,2.984-7.158,6.831-10.617,10.326c-1.062,1.078-2.896,2.626-3.27,3.709c-0.84,2.427-0.148,5.662-0.955,8.084
					c-0.244,0.731-0.702,1.644-1.186,2.2c-0.723,0.83-2.938,2.317-4.574,2.22c-1.018-0.062-1.637-0.916-2.896-0.883
					c-2.004,0.051-2.893,1.211-3.977,2.414c-1.459,1.618-2.629,2.862-1.867,5.396c0.729,2.425,3.463,4.218,5.52,6.253
					c1.004,0.995,1.918,2.001,2.906,2.978c1.012,1.002,1.973,2.271,3.307,2.674c3.066,0.935,4.861-1.446,6.268-2.925
					c0.89-0.938,1.959-2.278,1.873-3.998c-0.082-1.589-1.055-1.388-1.112-2.888c-0.101-2.548,2.031-4.614,3.657-5.902
					c1.792-1.422,4.535-2.73,7.27-2.232c1.715,0.311,2.439,1.243,3.602,2.372c0.313,0.307,1.825,2.2,2.205,2.184
					c0.043-0.004,1.15-1.092,1.489-1.404c3.718-3.422,6.804-7.191,10.317-10.426c-1.58-2.318-4.825-3.394-5.021-6.857
					c-0.086-1.479,0.48-2.74,1.176-3.794c1.037-1.578,2.998-3.078,4.764-4.314c5.241-3.676,12.857-6.463,20.905-6.693
					c0.018-1.214,0.18-2.787,0.081-3.79C286.68,255.955,281.882,255.156,276.604,254.843z"/>
			</g>
			<polygon fill="#FFFFFF" points="197.824,330.147 209.468,317.279 206.403,308.087 207.629,304.411 225.709,322.486 
				221.111,323.408 213.146,320.957 200.275,334.438 			"/>
			<polygon fill="#FFFFFF" points="320.765,357.807 259.219,296.265 271.326,284.158 332.866,345.701 			"/>
		</g>
		<g>
			<path fill="#FFFFFF" d="M592.28,301.973c-1.718-26.729-14.152-45.443-28.677-59.429c-14.019-13.502-37.378-25.22-65.305-23.153
				c-13.508,0.999-24.735,4.373-34.893,9.675c-10.004,5.222-18.605,11.571-25.219,19.006c-13.324,14.968-24.371,36.969-22.46,65.305
				c1.789,26.57,13.204,45.056,28.675,59.428c15.167,14.093,37.658,24.724,65.298,23.152c25.671-1.458,45.877-13.49,59.433-28.678
				C582.742,352.025,594.142,330.85,592.28,301.973z M562.915,364.171c-13.04,14.12-32.59,24.271-56.321,25.218
				c-25.244,1.011-45.867-9.589-59.081-22.804c-14.286-14.283-23.816-30.053-25.221-56.316c-1.355-25.307,9.253-45.483,22.11-59.09
				c6.158-6.512,14.166-12.691,23.494-17.277c9.248-4.545,21.312-7.363,33.512-7.947c25.395-1.207,46.295,10.019,59.085,22.808
				c13.033,13.031,24.433,31.125,25.227,56.323C586.56,331.893,575.955,350.037,562.915,364.171z"/>
			<path fill="#FFFFFF" d="M540.031,264.396l-20.401-5.258l-2.81,0.015c-1.27,4.885-6.738,8.561-13.289,8.561
				c-6.494,0-11.921-3.61-13.252-8.437l-3.957,0.022l-20.559,4.936l-21.99,22.95l11.633,18.808l9.561-3.348l0.16,54.502h75.062
				l0.32-54.817l8.925,3.663l12.43-19.123L540.031,264.396z M466.201,302.281l-1.513-0.816c7.23-13.436,0.333-34.429,0.263-34.639
				l1.627-0.544C466.876,267.17,473.781,288.197,466.201,302.281z M503.75,272.143c-7.723,0-14.291-3.724-15.971-9.053l1.693-0.534
				c1.426,4.53,7.428,7.815,14.277,7.815c6.932,0,12.955-3.333,14.317-7.925l1.699,0.503
				C518.185,268.278,511.448,272.143,503.75,272.143z M539.66,302.281c-7.58-14.084-0.677-35.111-0.379-35.999l1.628,0.544
				c-0.071,0.21-6.963,21.214,0.265,34.639L539.66,302.281z"/>
		</g>
		<g>
			<path fill="#FFFFFF" d="M816.872,301.975c-1.719-26.73-14.152-45.445-28.678-59.431c-14.019-13.502-37.378-25.218-65.304-23.153
				c-13.509,0.999-24.736,4.373-34.895,9.673c-10.004,5.227-18.607,11.575-25.221,19.008c-13.324,14.971-24.372,36.97-22.46,65.305
				c1.789,26.57,13.204,45.056,28.675,59.43c15.169,14.091,37.661,24.722,65.301,23.15c25.672-1.458,45.877-13.49,59.433-28.678
				C807.334,352.025,818.732,330.847,816.872,301.975z M787.507,364.171c-13.04,14.12-32.59,24.272-56.322,25.22
				c-25.243,1.01-45.869-9.591-59.082-22.804c-14.287-14.285-23.819-30.055-25.223-56.318c-1.355-25.307,9.253-45.48,22.11-59.09
				c6.161-6.515,14.168-12.691,23.496-17.275c9.249-4.547,21.312-7.367,33.514-7.947c25.395-1.207,46.294,10.017,59.084,22.807
				c13.034,13.032,24.433,31.124,25.228,56.319C811.151,331.895,800.547,350.037,787.507,364.171z"/>
			<g>
				<path fill="#FFFFFF" d="M718.436,304.931c0,0,55.788-46.015,58.363-48.354c2.576-2.347,3.747-1.412,1.404,1.63
					c-2.339,3.048-44.819,60.863-44.819,60.863L718.436,304.931z"/>
				<polygon fill="#FFFFFF" points="717.371,306.576 731.979,320.244 710.948,333.252 704.921,327.223 				"/>
				<path fill="#FFFFFF" d="M705.593,329.366c0,0-6.839-1.644-12.589,4.926s-6.297,22.443-17.792,23.538c0,0,2.462,1.37,3.83,0.827
					l-1.368,0.543c0,0,3.288,1.643,8.486-1.643l-0.549,1.641c0,0,29.425-9.441,23.404-26.276L705.593,329.366z"/>
			</g>
		</g>
	</g>
</g>
<g>
	<g>
		<path fill-rule="evenodd" clip-rule="evenodd" d="M370.695,495.994c-1.719-26.729-14.152-45.442-28.677-59.431
			c-14.018-13.502-37.377-25.216-65.3-23.154c-13.51,0.997-24.736,4.375-34.893,9.678c-10.005,5.221-18.607,11.572-25.221,19.002
			c-13.324,14.972-24.371,36.97-22.46,65.308c1.791,26.568,13.206,45.054,28.675,59.426c15.168,14.092,37.658,24.724,65.299,23.149
			c25.669-1.455,45.874-13.487,59.43-28.68C361.156,546.044,372.557,524.87,370.695,495.994z M341.332,558.185
			c-13.039,14.125-32.589,24.277-56.321,25.223c-25.241,1.011-45.865-9.591-59.079-22.804
			c-14.285-14.285-23.816-30.055-25.221-56.319c-1.355-25.305,9.253-45.479,22.109-59.084c6.16-6.514,14.167-12.691,23.496-17.276
			c9.246-4.548,21.311-7.369,33.512-7.949c25.393-1.207,46.291,10.016,59.08,22.807c13.034,13.032,24.432,31.125,25.227,56.319
			C364.975,525.911,354.369,544.056,341.332,558.185z"/>
		<g>
			<path d="M279.604,448.859c-1.496,0.008-2.989,0.015-4.486,0.021c-8.858,0.574-15.219,3.076-20.804,7.493
				c-3.773,2.984-7.158,6.832-10.617,10.327c-1.062,1.078-2.896,2.626-3.27,3.709c-0.84,2.427-0.148,5.662-0.955,8.084
				c-0.244,0.731-0.702,1.644-1.186,2.2c-0.723,0.83-2.938,2.317-4.574,2.22c-1.018-0.062-1.637-0.916-2.896-0.883
				c-2.004,0.051-2.893,1.212-3.977,2.415c-1.459,1.618-2.629,2.862-1.867,5.396c0.729,2.426,3.463,4.219,5.52,6.254
				c1.004,0.994,1.918,2,2.906,2.977c1.012,1.002,1.973,2.271,3.307,2.674c3.066,0.935,4.861-1.446,6.268-2.925
				c0.89-0.938,1.959-2.277,1.873-3.997c-0.082-1.589-1.055-1.388-1.112-2.889c-0.101-2.548,2.031-4.614,3.657-5.902
				c1.792-1.422,4.535-2.73,7.27-2.232c1.715,0.311,2.439,1.243,3.602,2.372c0.313,0.307,1.825,2.2,2.205,2.184
				c0.043-0.004,1.15-1.092,1.489-1.404c3.718-3.422,6.804-7.192,10.317-10.427c-1.58-2.318-4.825-3.394-5.021-6.857
				c-0.086-1.479,0.48-2.74,1.176-3.794c1.037-1.578,2.998-3.079,4.764-4.315c5.241-3.676,12.857-6.463,20.905-6.693
				c0.018-1.214,0.18-2.787,0.081-3.79C289.68,449.972,284.882,449.173,279.604,448.859z"/>
		</g>
		<polygon points="200.824,524.166 212.468,511.298 209.403,502.105 210.629,498.43 228.709,516.505 224.111,517.427 
			216.146,514.976 203.275,528.457 		"/>
		<polygon points="323.765,551.825 262.219,490.283 274.326,478.176 335.866,539.72 		"/>
	</g>
	<g>
		<path d="M595.28,495.992c-1.718-26.73-14.152-45.446-28.677-59.433c-14.019-13.502-37.378-25.221-65.305-23.154
			c-13.508,0.999-24.735,4.373-34.893,9.676c-10.004,5.222-18.605,11.571-25.219,19.006c-13.324,14.969-24.371,36.971-22.46,65.308
			c1.789,26.57,13.204,45.056,28.675,59.428c15.167,14.093,37.658,24.724,65.298,23.152c25.671-1.458,45.877-13.49,59.433-28.678
			C585.742,546.044,597.142,524.868,595.28,495.992z M565.915,558.189c-13.04,14.12-32.59,24.271-56.321,25.218
			c-25.244,1.011-45.867-9.589-59.081-22.804c-14.286-14.283-23.816-30.053-25.221-56.316c-1.355-25.308,9.253-45.485,22.11-59.092
			c6.158-6.513,14.166-12.692,23.494-17.278c9.248-4.545,21.312-7.364,33.512-7.948c25.395-1.207,46.295,10.02,59.085,22.809
			c13.033,13.032,24.433,31.127,25.227,56.326C589.56,525.911,578.955,544.056,565.915,558.189z"/>
		<path d="M543.031,458.412l-20.401-5.258l-2.81,0.015c-1.27,4.885-6.738,8.561-13.289,8.561c-6.494,0-11.921-3.61-13.252-8.437
			l-3.957,0.022l-20.559,4.936l-21.99,22.951l11.633,18.809l9.561-3.347l0.16,54.501h75.062l0.32-54.816l8.925,3.662l12.43-19.124
			L543.031,458.412z M469.201,496.301l-1.513-0.816c7.23-13.438,0.333-34.432,0.263-34.642l1.627-0.544
			C469.876,461.187,476.781,482.215,469.201,496.301z M506.75,466.16c-7.723,0-14.291-3.725-15.971-9.054l1.693-0.534
			c1.426,4.53,7.428,7.816,14.277,7.816c6.932,0,12.955-3.334,14.317-7.926l1.699,0.503
			C521.185,462.295,514.448,466.16,506.75,466.16z M542.66,496.301c-7.58-14.086-0.677-35.114-0.379-36.002l1.628,0.544
			c-0.071,0.21-6.963,21.215,0.265,34.642L542.66,496.301z"/>
	</g>
	<g>
		<path d="M819.872,495.994c-1.719-26.732-14.152-45.448-28.678-59.435c-14.019-13.502-37.378-25.219-65.304-23.154
			c-13.509,0.999-24.736,4.373-34.895,9.674c-10.004,5.227-18.607,11.575-25.221,19.008c-13.324,14.972-24.372,36.972-22.46,65.308
			c1.789,26.57,13.204,45.056,28.675,59.43c15.169,14.091,37.661,24.722,65.301,23.15c25.672-1.458,45.877-13.49,59.433-28.678
			C810.334,546.044,821.732,524.865,819.872,495.994z M790.507,558.189c-13.04,14.12-32.59,24.272-56.322,25.22
			c-25.243,1.01-45.869-9.591-59.082-22.804c-14.287-14.285-23.819-30.055-25.223-56.318c-1.355-25.308,9.253-45.482,22.11-59.092
			c6.161-6.516,14.168-12.692,23.496-17.276c9.249-4.547,21.312-7.368,33.514-7.948c25.395-1.207,46.294,10.018,59.084,22.808
			c13.034,13.033,24.433,31.126,25.228,56.322C814.151,525.913,803.547,544.056,790.507,558.189z"/>
		<g>
			<path d="M721.436,498.949c0,0,55.788-46.017,58.363-48.355c2.576-2.347,3.747-1.412,1.404,1.63
				c-2.339,3.048-44.819,60.865-44.819,60.865L721.436,498.949z"/>
			<polygon points="720.371,500.595 734.979,514.263 713.948,527.271 707.921,521.241 			"/>
			<path d="M708.593,523.385c0,0-6.839-1.644-12.589,4.926s-6.297,22.443-17.792,23.538c0,0,2.462,1.37,3.83,0.827l-1.368,0.543
				c0,0,3.288,1.643,8.486-1.643l-0.549,1.641c0,0,29.425-9.441,23.404-26.276L708.593,523.385z"/>
		</g>
	</g>
</g>
<g>
	<g>
		<path fill-rule="evenodd" clip-rule="evenodd" fill="#24222B" d="M367.695,491.993c-1.719-26.728-14.152-45.441-28.677-59.43
			c-14.018-13.503-37.377-25.216-65.3-23.154c-13.51,0.997-24.736,4.375-34.893,9.677c-10.005,5.222-18.607,11.573-25.221,19.003
			c-13.324,14.972-24.371,36.97-22.46,65.308c1.791,26.568,13.206,45.054,28.675,59.426c15.168,14.092,37.658,24.724,65.299,23.149
			c25.669-1.455,45.874-13.487,59.43-28.68C358.156,542.044,369.557,520.87,367.695,491.993z M338.332,554.185
			c-13.039,14.125-32.589,24.277-56.321,25.223c-25.241,1.011-45.865-9.591-59.079-22.804
			c-14.285-14.285-23.816-30.055-25.221-56.319c-1.355-25.305,9.253-45.479,22.109-59.085c6.16-6.513,14.167-12.69,23.496-17.275
			c9.246-4.549,21.311-7.369,33.512-7.949c25.393-1.207,46.291,10.016,59.08,22.807c13.034,13.032,24.432,31.125,25.227,56.319
			C361.975,521.911,351.369,540.056,338.332,554.185z"/>
		<g>
			<path fill="#24222B" d="M276.604,444.859c-1.496,0.008-2.989,0.015-4.486,0.021c-8.858,0.574-15.219,3.076-20.804,7.493
				c-3.773,2.984-7.158,6.831-10.617,10.326c-1.062,1.079-2.896,2.627-3.27,3.71c-0.84,2.427-0.148,5.662-0.955,8.084
				c-0.244,0.731-0.702,1.644-1.186,2.2c-0.723,0.83-2.938,2.317-4.574,2.22c-1.018-0.062-1.637-0.916-2.896-0.883
				c-2.004,0.051-2.893,1.211-3.977,2.414c-1.459,1.618-2.629,2.863-1.867,5.396c0.729,2.425,3.463,4.218,5.52,6.253
				c1.004,0.995,1.918,2.001,2.906,2.978c1.012,1.002,1.973,2.271,3.307,2.674c3.066,0.935,4.861-1.446,6.268-2.925
				c0.89-0.938,1.959-2.278,1.873-3.998c-0.082-1.589-1.055-1.388-1.112-2.888c-0.101-2.548,2.031-4.614,3.657-5.903
				c1.792-1.422,4.535-2.73,7.27-2.232c1.715,0.311,2.439,1.243,3.602,2.372c0.313,0.307,1.825,2.201,2.205,2.185
				c0.043-0.004,1.15-1.092,1.489-1.405c3.718-3.422,6.804-7.191,10.317-10.426c-1.58-2.318-4.825-3.394-5.021-6.857
				c-0.086-1.479,0.48-2.741,1.176-3.795c1.037-1.578,2.998-3.078,4.764-4.314c5.241-3.676,12.857-6.463,20.905-6.693
				c0.018-1.214,0.18-2.787,0.081-3.79C286.68,445.972,281.882,445.173,276.604,444.859z"/>
		</g>
		<polygon fill="#24222B" points="197.824,520.166 209.468,507.298 206.403,498.105 207.629,494.43 225.709,512.505 
			221.111,513.427 213.146,510.976 200.275,524.457 		"/>
		<polygon fill="#24222B" points="320.765,547.825 259.219,486.283 271.326,474.176 332.866,535.72 		"/>
	</g>
	<g>
		<path fill="#24222B" d="M592.28,491.991c-1.718-26.729-14.152-45.445-28.677-59.432c-14.019-13.503-37.378-25.221-65.305-23.154
			c-13.508,0.999-24.735,4.373-34.893,9.675c-10.004,5.223-18.605,11.572-25.219,19.007c-13.324,14.969-24.371,36.971-22.46,65.308
			c1.789,26.57,13.204,45.056,28.675,59.428c15.167,14.093,37.658,24.724,65.298,23.152c25.671-1.458,45.877-13.49,59.433-28.678
			C582.742,542.044,594.142,520.868,592.28,491.991z M562.915,554.189c-13.04,14.12-32.59,24.271-56.321,25.218
			c-25.244,1.011-45.867-9.589-59.081-22.804c-14.286-14.283-23.816-30.053-25.221-56.316c-1.355-25.308,9.253-45.485,22.11-59.093
			c6.158-6.512,14.166-12.691,23.494-17.277c9.248-4.546,21.312-7.364,33.512-7.948c25.395-1.207,46.295,10.02,59.085,22.809
			c13.033,13.032,24.433,31.127,25.227,56.326C586.56,521.911,575.955,540.056,562.915,554.189z"/>
		<path fill="#24222B" d="M540.031,454.412l-20.401-5.258l-2.81,0.015c-1.27,4.885-6.738,8.561-13.289,8.561
			c-6.494,0-11.921-3.61-13.252-8.437l-3.957,0.022l-20.559,4.936l-21.99,22.951l11.633,18.809l9.561-3.348l0.16,54.502h75.062
			l0.32-54.817l8.925,3.663l12.43-19.124L540.031,454.412z M466.201,492.3l-1.513-0.816c7.23-13.437,0.333-34.431,0.263-34.641
			l1.627-0.544C466.876,457.187,473.781,478.215,466.201,492.3z M503.75,462.159c-7.723,0-14.291-3.724-15.971-9.053l1.693-0.534
			c1.426,4.53,7.428,7.815,14.277,7.815c6.932,0,12.955-3.333,14.317-7.925l1.699,0.503
			C518.185,458.295,511.448,462.159,503.75,462.159z M539.66,492.3c-7.58-14.085-0.677-35.113-0.379-36.001l1.628,0.544
			c-0.071,0.21-6.963,21.215,0.265,34.641L539.66,492.3z"/>
	</g>
	<g>
		<path fill="#24222B" d="M816.872,491.993c-1.719-26.731-14.152-45.447-28.678-59.434c-14.019-13.503-37.378-25.219-65.304-23.154
			c-13.509,0.999-24.736,4.373-34.895,9.673c-10.004,5.228-18.607,11.576-25.221,19.009c-13.324,14.972-24.372,36.972-22.46,65.308
			c1.789,26.57,13.204,45.056,28.675,59.43c15.169,14.091,37.661,24.722,65.301,23.15c25.672-1.458,45.877-13.49,59.433-28.678
			C807.334,542.044,818.732,520.865,816.872,491.993z M787.507,554.189c-13.04,14.12-32.59,24.272-56.322,25.22
			c-25.243,1.01-45.869-9.591-59.082-22.804c-14.287-14.285-23.819-30.055-25.223-56.318c-1.355-25.308,9.253-45.482,22.11-59.093
			c6.161-6.515,14.168-12.691,23.496-17.275c9.249-4.548,21.312-7.368,33.514-7.948c25.395-1.207,46.294,10.018,59.084,22.808
			c13.034,13.033,24.433,31.126,25.228,56.322C811.151,521.913,800.547,540.056,787.507,554.189z"/>
		<g>
			<path fill="#24222B" d="M718.436,494.949c0,0,55.788-46.017,58.363-48.355c2.576-2.347,3.747-1.412,1.404,1.63
				c-2.339,3.048-44.819,60.865-44.819,60.865L718.436,494.949z"/>
			<polygon fill="#24222B" points="717.371,496.595 731.979,510.263 710.948,523.271 704.921,517.241 			"/>
			<path fill="#24222B" d="M705.593,519.385c0,0-6.839-1.644-12.589,4.926s-6.297,22.443-17.792,23.538c0,0,2.462,1.37,3.83,0.827
				l-1.368,0.543c0,0,3.288,1.643,8.486-1.643l-0.549,1.641c0,0,29.425-9.441,23.404-26.276L705.593,519.385z"/>
		</g>
	</g>
</g>
<g>
	<linearGradient id="SVGID_7_" gradientUnits="userSpaceOnUse" x1="-1100.6777" y1="-144.5176" x2="-229.3209" y2="312.4973">
		<stop  offset="0.0184" style="stop-color:#000000"/>
		<stop  offset="0.0798" style="stop-color:#0B0B0C"/>
		<stop  offset="0.2127" style="stop-color:#1D1D20"/>
		<stop  offset="0.3458" style="stop-color:#28272C"/>
		<stop  offset="0.4785" style="stop-color:#2C2B30"/>
		<stop  offset="1" style="stop-color:#000000"/>
	</linearGradient>
	<rect x="-1177" y="1" fill="url(#SVGID_7_)" width="1024" height="165.98"/>
	<g>
		<defs>
			<rect id="SVGID_8_" x="-1175.564" y="1.032" width="1024.564" height="166.19"/>
		</defs>
		<use xlink:href="#SVGID_8_"  overflow="visible" fill="url(#USGS_19_Überschwemmung)"/>
		<clipPath id="SVGID_9_">
			<use xlink:href="#SVGID_8_"  overflow="visible"/>
		</clipPath>
		<g clip-path="url(#SVGID_9_)">
			<defs>
				<rect id="SVGID_10_" x="-2064.891" y="-74.054" width="2564.097" height="595.68"/>
			</defs>
			<use xlink:href="#SVGID_10_"  overflow="visible" fill="url(#USGS_19_Überschwemmung)"/>
			<clipPath id="SVGID_11_">
				<use xlink:href="#SVGID_10_"  overflow="visible"/>
			</clipPath>
			
				<rect x="-1295.662" y="1.032" clip-path="url(#SVGID_11_)" fill="url(#USGS_19_Überschwemmung)" width="1024.559" height="166.19"/>
		</g>
	</g>
</g>
</svg>
