<?xml version="1.0" encoding="utf-8"?>
<!-- Generator: Adobe Illustrator 15.1.0, SVG Export Plug-In  -->
<!DOCTYPE svg PUBLIC "-//W3C//DTD SVG 1.1//EN" "http://www.w3.org/Graphics/SVG/1.1/DTD/svg11.dtd" [
	<!ENTITY ns_flows "http://ns.adobe.com/Flows/1.0/">
]>
<svg version="1.1"
	 xmlns="http://www.w3.org/2000/svg" xmlns:xlink="http://www.w3.org/1999/xlink" xmlns:a="http://ns.adobe.com/AdobeSVGViewerExtensions/3.0/"
	 x="0px" y="0px" width="178px" height="125px" viewBox="-0.875 -0.153 178 125" enable-background="new -0.875 -0.153 178 125"
	 xml:space="preserve">
<defs>
</defs>
<path fill="#fff" d="M5.588,114.501h1.24v8.422H5.947v-3.379l0.082-3.148l-1.144,6.512H3.99l-1.191-6.512l0.082,3.148v3.379H2.004v-8.422h1.235
	l1.206,6.924L5.588,114.501z"/>
<path fill="#fff" d="M11.281,114.501h0.991v8.422h-0.991V114.501z"/>
<path fill="#fff" d="M16.17,114.501h2.78v0.822h-0.866v7.6h-0.985v-7.6H16.17V114.501z"/>
<path fill="#fff" d="M30.519,114.501h0.99v8.422h-0.99v-4.082h-1.35v4.082h-0.99v-8.422h0.99v3.531h1.35V114.501z"/>
<path fill="#fff" d="M35.886,114.501h2.517v0.822h-1.526v2.881h1.445v0.822h-1.445v3.072h1.546v0.824h-2.536V114.501z"/>
<path fill="#fff" d="M42.574,114.501h1.766c0.501,0,0.861,0.104,1.081,0.311c0.221,0.207,0.353,0.561,0.397,1.057
	c0.019,0.205,0.028,0.523,0.028,0.955c0,0.434-0.057,0.795-0.17,1.09c-0.113,0.293-0.313,0.482-0.601,0.568
	c0.211,0.035,0.37,0.146,0.479,0.332c0.108,0.188,0.186,0.484,0.229,0.891c0.045,0.406,0.067,1.012,0.067,1.814
	c0,0.801,0.025,1.27,0.077,1.404h-0.986c-0.051-0.104-0.076-1.049-0.076-2.838c0-0.604-0.06-0.953-0.178-1.051
	c-0.117-0.098-0.296-0.146-0.535-0.146l-0.589-0.033v4.068h-0.99V114.501z M44.866,116.564c0-0.648-0.059-1.023-0.175-1.125
	s-0.285-0.152-0.505-0.152h-0.622v2.842h0.632c0.191,0,0.331-0.037,0.421-0.109c0.089-0.074,0.153-0.215,0.191-0.422
	s0.058-0.533,0.058-0.977V116.564z"/>
<path fill="#fff" d="M50.151,114.501h2.604v0.756l-1.737,6.842h1.699v0.824h-2.724v-0.857l1.737-6.742h-1.579V114.501z"/>
<path fill="#fff" d="M56.668,121.798h1.234v1.082l-0.483,1.689h-0.507l0.35-1.646h-0.594V121.798z"/>
<path fill="#fff" d="M69.743,114.501h0.99v8.422h-0.99v-4.082h-1.35v4.082h-0.99v-8.422h0.99v3.531h1.35V114.501z"/>
<path fill="#fff" d="M76.015,114.501h1.191l1.393,8.422h-0.934l-0.239-1.607h-1.526l-0.22,1.607h-0.943L76.015,114.501z M76.01,120.511h1.292
	l-0.665-4.451h-0.015L76.01,120.511z"/>
<path fill="#fff" d="M85.2,114.501h0.876v8.422h-0.728l-1.89-5.781l0.058,2.125v3.656h-0.914v-8.422h0.746l1.952,5.732l-0.101-2.436V114.501z"/>
<path fill="#fff" d="M90.448,114.501h1.584c0.644,0,1.088,0.197,1.33,0.596c0.242,0.396,0.363,0.961,0.363,1.691l0.005,3.699
	c0,0.863-0.132,1.486-0.397,1.865c-0.265,0.381-0.709,0.57-1.335,0.57h-1.55V114.501z M92.74,116.765
	c0-0.527-0.063-0.904-0.187-1.135c-0.125-0.23-0.329-0.344-0.613-0.344h-0.507v6.838h0.507c0.191,0,0.342-0.039,0.45-0.115
	c0.233-0.166,0.35-0.623,0.35-1.369V116.765z"/>
<path fill="#fff" d="M107.41,119.621c-0.27,0.322-0.568,0.842-0.9,1.557c0.508,1.115,0.771,1.697,0.789,1.746h-0.879
	c-0.053-0.125-0.176-0.4-0.375-0.828c-0.184,0.297-0.395,0.525-0.631,0.684c-0.236,0.16-0.559,0.24-0.967,0.24
	s-0.748-0.158-1.018-0.473c-0.27-0.313-0.404-0.758-0.404-1.332s0.127-1.07,0.379-1.488s0.572-0.852,0.961-1.301
	c-0.494-1.178-0.74-1.971-0.74-2.379c0-0.539,0.127-0.949,0.379-1.23c0.254-0.279,0.623-0.42,1.109-0.42
	c0.484,0,0.834,0.139,1.047,0.416c0.215,0.277,0.32,0.666,0.32,1.168c0,0.5-0.107,0.939-0.322,1.318
	c-0.215,0.377-0.488,0.779-0.82,1.203c0.182,0.447,0.438,1.037,0.766,1.77c0.277-0.52,0.572-0.965,0.885-1.34L107.41,119.621z
	 M105.628,121.214c-0.373-0.787-0.672-1.436-0.895-1.943c-0.539,0.719-0.809,1.383-0.809,1.994s0.248,0.916,0.742,0.916
	c0.191,0,0.357-0.078,0.5-0.236C105.308,121.787,105.462,121.542,105.628,121.214z M105.007,117.669
	c0.469-0.594,0.703-1.148,0.703-1.66c0-0.326-0.037-0.559-0.113-0.695c-0.074-0.137-0.219-0.205-0.43-0.205
	c-0.213,0-0.361,0.057-0.447,0.172s-0.137,0.232-0.148,0.35c-0.014,0.117-0.02,0.25-0.02,0.396
	C104.552,116.318,104.705,116.865,105.007,117.669z"/>
<path fill="#fff" d="M118.996,114.501h0.934l-1.277,8.422h-1.154l-1.402-8.422h0.943l0.561,3.564l0.479,3.135h0.018l0.418-3.135L118.996,114.501
	z"/>
<path fill="#fff" d="M123.904,114.501h2.516v0.822h-1.525v2.881h1.445v0.822h-1.445v3.072h1.545v0.824h-2.535V114.501z"/>
<path fill="#fff" d="M130.591,114.501h1.766c0.502,0,0.861,0.104,1.082,0.311s0.352,0.561,0.396,1.057c0.02,0.205,0.029,0.523,0.029,0.955
	c0,0.434-0.057,0.795-0.17,1.09c-0.113,0.293-0.314,0.482-0.602,0.568c0.211,0.035,0.371,0.146,0.479,0.332
	c0.109,0.188,0.186,0.484,0.23,0.891s0.066,1.012,0.066,1.814c0,0.801,0.025,1.27,0.078,1.404h-0.986
	c-0.051-0.104-0.076-1.049-0.076-2.838c0-0.604-0.061-0.953-0.178-1.051s-0.297-0.146-0.535-0.146l-0.59-0.033v4.068h-0.99V114.501z
	 M132.884,116.564c0-0.648-0.059-1.023-0.176-1.125c-0.115-0.102-0.285-0.152-0.504-0.152h-0.623v2.842h0.633
	c0.191,0,0.33-0.037,0.42-0.109c0.09-0.074,0.154-0.215,0.191-0.422c0.039-0.207,0.059-0.533,0.059-0.977V116.564z"/>
<path fill="#fff" d="M138.054,117.109c-0.057-0.201-0.086-0.441-0.086-0.723c0-0.609,0.113-1.094,0.338-1.453
	c0.225-0.357,0.654-0.537,1.289-0.537c0.816,0,1.299,0.393,1.445,1.178c0.064,0.338,0.096,0.764,0.096,1.277v0.498h-0.947v-0.566
	c0-0.535-0.027-0.896-0.082-1.08c-0.055-0.186-0.121-0.309-0.201-0.369s-0.184-0.09-0.311-0.09c-0.24,0-0.412,0.086-0.518,0.262
	s-0.156,0.436-0.156,0.781c0,0.344,0.047,0.596,0.143,0.756c0.096,0.158,0.213,0.311,0.354,0.457
	c0.141,0.145,0.219,0.227,0.234,0.246l0.574,0.607c0.689,0.721,1.035,1.527,1.035,2.422c0,0.727-0.113,1.283-0.338,1.668
	c-0.225,0.383-0.654,0.576-1.285,0.576c-0.762,0-1.246-0.336-1.449-1.006c-0.119-0.375-0.178-0.869-0.178-1.479
	c0-0.016,0-0.031,0-0.047v-0.818h0.961v0.855c0,0.617,0.045,1.045,0.135,1.285s0.256,0.361,0.498,0.361s0.41-0.057,0.502-0.17
	s0.146-0.285,0.16-0.52c0.016-0.232,0.021-0.494,0.021-0.783c0-0.584-0.256-1.133-0.77-1.646l-0.551-0.551
	C138.476,117.998,138.171,117.533,138.054,117.109z"/>
<path fill="#fff" d="M144.767,114.501h2.779v0.822h-0.865v7.6h-0.986v-7.6h-0.928V114.501z"/>
<path fill="#fff" d="M152.273,114.501h1.191l1.393,8.422h-0.934l-0.238-1.607h-1.527l-0.219,1.607h-0.943L152.273,114.501z M152.269,120.511
	h1.291l-0.664-4.451h-0.016L152.269,120.511z"/>
<path fill="#fff" d="M161.458,114.501h0.877v8.422h-0.729l-1.889-5.781l0.057,2.125v3.656h-0.914v-8.422h0.746l1.953,5.732l-0.102-2.436V114.501
	z"/>
<path fill="#fff" d="M166.707,114.501h1.584c0.645,0,1.088,0.197,1.33,0.596c0.242,0.396,0.363,0.961,0.363,1.691l0.006,3.699
	c0,0.863-0.133,1.486-0.398,1.865c-0.264,0.381-0.709,0.57-1.334,0.57h-1.551V114.501z M169,116.765
	c0-0.527-0.063-0.904-0.188-1.135s-0.328-0.344-0.611-0.344h-0.508v6.838h0.508c0.191,0,0.34-0.039,0.449-0.115
	c0.232-0.166,0.35-0.623,0.35-1.369V116.765z"/>
<path fill="#fff" d="M1.991,102.32V90.968H0v-2.334h7.713l-2.335,2.334v6.455h6.913v-6.455H9.956v-2.334h7.736l-2.014,2.334v11.352h2.014v2.336
	H9.956l2.335-2.336v-2.563H5.378v2.563h2.335v2.336H0L1.991,102.32z"/>
<path fill="#fff" d="M31.218,102.343h2.014l-1.053-2.586h-6.638l-1.007,2.586l2.014,2.313H19.98v-2.313h1.35l4.692-11.375l-2.289-2.334h3.25
	h4.143h0.023l6.684,16.021h-6.615V102.343z M31.31,97.423l-2.403-6.135l-2.449,6.135H31.31z"/>
<path fill="#fff" d="M41.219,102.32V90.968h-2.014v-2.334h6.821l6.157,11.9h0.069v-9.566h-2.015v-2.334h7.072l-2.014,2.334v13.688h-4.44
	l-6.523-12.359h-0.046v10.023H46.3v2.336h-7.095L41.219,102.32z"/>
<path fill="#fff" d="M58.75,88.611h14.214l-0.022,5.563h-2.815l0.022-3.229h-7.461l10.002,10.758v2.953H59.025v-5.287l2.814,2.951h6.775
	L58.75,91.609V88.611z"/>
<path fill="#fff" d="M76.419,102.32V90.945h-2.015v-2.334h14.558v5.563l-2.815-3.229h-6.34V97.4h3.364l-3.364,2.334v2.586h6.34v-2.586h2.815
	v4.922H74.405L76.419,102.32z"/>
<path fill="#fff" d="M95.804,102.32h6.34l2.815-2.471v4.807H90.402v-2.336h2.015V90.945l-2.015-2.334h14.558v5.264h-2.815v-2.93h-6.34V102.32z"
	/>
<path fill="#fff" d="M121.46,102.32v2.336h-3.593l-3.479-4.898h-2.38v2.563h2.563v2.336H106.4l2.221-2.336V90.945H106.4v-2.311h14.214v8.742
	l-2.563,2.357l1.809,2.586H121.46z M112.008,97.4h4.691l0.756-0.756v-5.699h-5.447V97.4z"/>
<path fill="#fff" d="M138.373,102.343h2.015l-1.053-2.586h-6.638l-1.007,2.586l2.015,2.313h-6.569v-2.313h1.351l4.691-11.375l-2.289-2.334h3.25
	h4.144h0.022l6.684,16.021h-6.615V102.343z M138.464,97.423l-2.402-6.135l-2.449,6.135H138.464z"/>
<path fill="#fff" d="M160.917,88.634v5.561l-2.815-3.227h-6.363V97.4h3.296l-3.273,2.357l-0.022,2.563h2.38v2.336h-7.758l2.014-2.336V90.968
	h-2.014v-2.334H160.917z"/>
<path fill="#fff" d="M176.96,88.634v5.539h-2.815v-3.229h-2.792v11.375l2.312,2.336h-8.034v-2.336h2.335V90.945h-2.792l-2.815,3.229v-5.539
	H176.96z"/>
<path fill="#fff" d="M65.751,49.154c2.216-1.207,8.293-6.135,6.229-10.574c-1.093-2.349-5.082-1.688-6.373,0c-1.021-1.64-4.032-2.34-5.505-0.869
	C56.32,41.494,63.163,47.966,65.751,49.154z"/>
<path fill="#fff" d="M126.829,34.717c-0.722-11.205-5.935-19.049-12.022-24.913c-5.876-5.66-15.67-10.57-27.375-9.705
	C81.767,0.518,77.06,1.932,72.803,4.155c-4.194,2.189-7.801,4.851-10.573,7.967c-5.586,6.275-10.217,15.498-9.416,27.376
	c0.751,11.138,5.536,18.887,12.021,24.914c6.357,5.906,15.787,10.363,27.375,9.703c10.761-0.61,19.23-5.654,24.914-12.021
	C122.83,55.7,127.608,46.822,126.829,34.717z M114.517,60.79c-5.467,5.921-13.662,10.176-23.611,10.573
	c-10.582,0.424-19.228-4.02-24.767-9.56c-5.989-5.988-9.985-12.6-10.573-23.61c-0.567-10.607,3.879-19.065,9.27-24.769
	c2.831-2.976,6.165-5.427,9.85-7.242c3.877-1.906,8.936-3.088,14.049-3.332c10.646-0.506,19.407,4.199,24.77,9.561
	c5.464,5.462,10.243,13.047,10.576,23.609C124.43,47.26,119.984,54.866,114.517,60.79L114.517,60.79z"/>
<path fill="#fff" d="M92.5,62.092v-27.23h14.773v-5.504H92.5v-3.255c4.394-1.207,7.625-5.219,7.625-9.994c0-5.729-4.646-10.375-10.375-10.375
	c-5.729,0-10.375,4.646-10.375,10.375c0,4.773,3.229,8.784,7.619,9.993c-0.077,1.056,0.187,2.452-0.144,3.256H72.222v5.504h14.773
	c-0.098,9.077,0.191,18.54-0.146,27.376c-9.067-1.168-14.498-5.974-18.684-12.022c-1.933,0.095-4.248-0.193-5.938,0.145
	c5.239,9.443,13.416,17.526,27.519,17.526c14.115,0,22.474-7.996,27.521-17.671h-5.938C107.246,56.271,101.468,61.404,92.5,62.092
	L92.5,62.092z M85.125,16.109c0-2.555,2.07-4.625,4.625-4.625c2.554,0,4.625,2.07,4.625,4.625c0,2.554-2.071,4.625-4.625,4.625
	C87.195,20.734,85.125,18.664,85.125,16.109z M112.909,35.723c0.18-0.556,0.414-1.008,0.145-1.159
	c-1.066-0.499-1.727,0.564-2.027,1.304C111.787,35.953,112.124,35.613,112.909,35.723z M115.226,36.737
	c0.321-0.395,0.343-1.184-0.146-1.449c-0.561-0.288-1.14,0.02-1.158,0.58C114.679,35.836,114.866,36.373,115.226,36.737z"/>
<path fill="#fff" d="M116.674,43.111c1.175,0.11,0.998-1.127,1.884-1.304c-0.308,1.312-0.869,2.165-2.172,2.028
	c-0.682-0.072-0.745-0.965-1.594-0.724c-0.641,0.422-0.031,2.094-0.869,2.317c0.125-2.685-1.138-3.982-3.188-4.491
	c0.354-0.708,0.546-1.578,0.726-2.462c1.179-0.316,3.841-0.759,3.041-1.448c-1.127-1.027-3.604-0.45-4.926,0
	c-1.191,0.966-1.733,1.984-1.883,3.476c-0.394,3.966,4.781,4.203,3.768,8.256h6.082c0.49-2.929,2.706-5.989,1.304-9.416
	C118.118,37.667,114.847,42.847,116.674,43.111L116.674,43.111z"/>
<path fill="#fff" d="M114.067,42.097c1.464,0.599,1.739-1.021,2.173-1.883c0.475-0.942,1.299-1.705,1.299-2.773
	c-0.036-0.377-0.161-0.591-0.292-0.646C115.472,35.981,113.173,41.79,114.067,42.097L114.067,42.097z M112.04,39.344
	c-0.158,0.351-0.215,0.557-0.146,1.014c0.646-0.017,0.898,0.358,1.449,0.435c0.228-0.883,1.052-1.938,1.013-2.607
	C113.864,38.853,112.76,38.905,112.04,39.344L112.04,39.344z"/>
</svg>
