<?xml version="1.0" encoding="utf-8"?>
<!-- Generator: Adobe Illustrator 15.1.0, SVG Export Plug-In  -->
<!DOCTYPE svg PUBLIC "-//W3C//DTD SVG 1.1//EN" "http://www.w3.org/Graphics/SVG/1.1/DTD/svg11.dtd" [
	<!ENTITY ns_flows "http://ns.adobe.com/Flows/1.0/">
]>
<svg version="1.1"
	 xmlns="http://www.w3.org/2000/svg" xmlns:xlink="http://www.w3.org/1999/xlink" xmlns:a="http://ns.adobe.com/AdobeSVGViewerExtensions/3.0/"
	 x="0px" y="0px" width="50px" height="50px" viewBox="-0.672 -0.632 50 50" enable-background="new -0.672 -0.632 50 50"
	 xml:space="preserve">
<defs>
</defs>
<path d="M48.601,23.383c-0.464-7.198-3.825-12.238-7.752-16.005c-3.79-3.637-10.104-6.792-17.654-6.236
	c-3.653,0.27-6.688,1.178-9.434,2.607C11.055,5.154,8.73,6.864,6.942,8.866c-3.603,4.031-6.589,9.956-6.073,17.587
	c0.484,7.156,3.57,12.135,7.752,16.006c4.101,3.795,10.181,6.658,17.655,6.234c6.939-0.393,12.402-3.633,16.067-7.725
	C46.023,36.862,49.106,31.16,48.601,23.383z M40.664,40.132c-3.524,3.804-8.812,6.538-15.227,6.793
	c-6.825,0.272-12.401-2.583-15.973-6.142c-3.862-3.848-6.439-8.095-6.819-15.168C2.279,18.801,5.146,13.368,8.622,9.704
	c1.666-1.755,3.831-3.418,6.353-4.654c2.5-1.225,5.762-1.983,9.06-2.141c6.866-0.324,12.515,2.698,15.974,6.143
	c3.524,3.51,6.604,8.383,6.82,15.168C47.055,31.44,44.188,36.327,40.664,40.132L40.664,40.132z"/>
<path d="M23.974,10.688c-0.404,0.003-0.808,0.004-1.213,0.006c-2.395,0.154-4.114,0.828-5.625,2.019
	c-1.02,0.804-1.935,1.839-2.87,2.781c-0.287,0.29-0.783,0.707-0.884,0.999c-0.227,0.652-0.04,1.524-0.259,2.177
	c-0.066,0.197-0.189,0.442-0.32,0.593c-0.196,0.223-0.794,0.623-1.236,0.598c-0.275-0.017-0.443-0.247-0.783-0.237
	c-0.542,0.013-0.782,0.325-1.075,0.649c-0.395,0.436-0.711,0.771-0.505,1.453c0.197,0.654,0.936,1.137,1.493,1.685
	c0.271,0.269,0.519,0.538,0.786,0.802c0.273,0.27,0.533,0.611,0.894,0.72c0.829,0.253,1.314-0.389,1.694-0.787
	c0.24-0.253,0.53-0.614,0.506-1.077c-0.022-0.428-0.285-0.373-0.3-0.777c-0.028-0.686,0.549-1.242,0.988-1.59
	c0.485-0.383,1.227-0.734,1.966-0.602c0.463,0.084,0.659,0.335,0.973,0.639c0.085,0.083,0.494,0.594,0.596,0.588
	c0.012,0,0.311-0.293,0.403-0.377c1.004-0.922,1.839-1.938,2.789-2.809c-0.427-0.624-1.304-0.914-1.357-1.848
	c-0.023-0.397,0.129-0.737,0.318-1.021c0.281-0.425,0.81-0.828,1.289-1.162c1.416-0.989,3.477-1.74,5.651-1.803
	c0.006-0.326,0.049-0.75,0.023-1.02C26.624,10.968,25.303,10.768,23.974,10.688L23.974,10.688z"/>
<polygon points="2.676,30.969 5.824,27.504 4.995,25.029 5.327,24.039 10.214,28.907 8.972,29.155 6.818,28.495 3.338,32.125 "/>
<polygon points="35.915,38.419 19.274,21.845 22.548,18.584 39.186,35.159 "/>
<path fill="#FFFFFF" d="M47.791,22.306c-0.464-7.198-3.825-12.238-7.752-16.006c-3.79-3.637-10.106-6.791-17.655-6.236
	c-3.653,0.27-6.688,1.18-9.434,2.607c-2.705,1.405-5.031,3.116-6.819,5.117c-3.603,4.033-6.589,9.957-6.072,17.588
	c0.484,7.155,3.571,12.135,7.753,16.006c4.1,3.794,10.18,6.658,17.655,6.233c6.939-0.392,12.401-3.632,16.066-7.723
	C45.211,35.786,48.294,30.083,47.791,22.306z M39.853,39.055c-3.526,3.805-8.812,6.539-15.229,6.793
	c-6.823,0.272-12.399-2.582-15.972-6.141c-3.862-3.848-6.438-8.096-6.819-15.169C1.468,17.724,4.336,12.29,7.812,8.626
	c1.666-1.754,3.83-3.418,6.353-4.652c2.5-1.226,5.762-1.984,9.06-2.141C30.09,1.507,35.741,4.53,39.197,7.976
	c3.524,3.509,6.606,8.382,6.821,15.167C46.245,30.364,43.376,35.25,39.853,39.055L39.853,39.055z"/>
<path fill="#FFFFFF" d="M23.164,9.611c-0.405,0.003-0.809,0.005-1.213,0.005c-2.395,0.154-4.115,0.83-5.625,2.02
	c-1.021,0.803-1.935,1.839-2.871,2.781c-0.287,0.289-0.783,0.707-0.884,0.998c-0.227,0.654-0.041,1.525-0.259,2.178
	c-0.065,0.196-0.189,0.443-0.32,0.592c-0.196,0.224-0.795,0.625-1.237,0.599c-0.275-0.017-0.443-0.247-0.783-0.237
	c-0.542,0.013-0.782,0.325-1.075,0.648c-0.395,0.438-0.711,0.771-0.504,1.455c0.197,0.652,0.936,1.135,1.492,1.684
	c0.271,0.268,0.519,0.539,0.785,0.802c0.274,0.271,0.534,0.612,0.895,0.72c0.829,0.252,1.313-0.389,1.695-0.787
	c0.24-0.253,0.529-0.613,0.506-1.076c-0.022-0.43-0.286-0.375-0.301-0.778c-0.027-0.687,0.549-1.243,0.989-1.59
	c0.485-0.383,1.227-0.735,1.966-0.601c0.463,0.084,0.659,0.334,0.973,0.639c0.085,0.082,0.494,0.592,0.596,0.588
	c0.012-0.001,0.311-0.294,0.403-0.378c1.005-0.922,1.84-1.937,2.79-2.809c-0.427-0.624-1.305-0.913-1.358-1.847
	c-0.023-0.398,0.13-0.738,0.318-1.021c0.28-0.426,0.811-0.829,1.288-1.162c1.417-0.99,3.476-1.74,5.652-1.803
	c0.005-0.326,0.049-0.75,0.021-1.021C25.812,9.89,24.492,9.69,23.164,9.611L23.164,9.611z"/>
<polygon fill="#FFFFFF" points="1.865,29.893 5.013,26.426 4.184,23.951 4.516,22.962 9.404,27.83 8.16,28.079 6.007,27.417 
	2.527,31.048 "/>
<polygon fill="#FFFFFF" points="35.104,37.342 18.463,20.768 21.736,17.507 38.375,34.083 "/>
</svg>
