<?xml version="1.0" encoding="utf-8"?>
<!-- Generator: Adobe Illustrator 15.1.0, SVG Export Plug-In  -->
<!DOCTYPE svg PUBLIC "-//W3C//DTD SVG 1.1//EN" "http://www.w3.org/Graphics/SVG/1.1/DTD/svg11.dtd" [
	<!ENTITY ns_flows "http://ns.adobe.com/Flows/1.0/">
]>
<svg version="1.1"
	 xmlns="http://www.w3.org/2000/svg" xmlns:xlink="http://www.w3.org/1999/xlink" xmlns:a="http://ns.adobe.com/AdobeSVGViewerExtensions/3.0/"
	 x="0px" y="0px" width="48px" height="48px" viewBox="-0.262 -0.264 48 48" enable-background="new -0.262 -0.264 48 48"
	 xml:space="preserve">
<defs>
</defs>
<path fill="#fff" d="M47.422,22.218c-0.461-7.171-3.797-12.191-7.693-15.943C35.968,2.653,29.702-0.49,22.21,0.064
	c-3.624,0.268-6.635,1.173-9.361,2.595c-2.684,1.402-4.992,3.105-6.766,5.098c-3.574,4.016-6.539,9.917-6.025,17.52
	c0.48,7.128,3.543,12.087,7.693,15.942C11.82,45,17.854,47.852,25.269,47.43c6.887-0.392,12.308-3.619,15.943-7.693
	C44.864,35.645,47.921,29.963,47.422,22.218z M39.544,38.903c-3.498,3.787-8.742,6.512-15.109,6.766
	c-6.771,0.271-12.304-2.573-15.85-6.117c-3.832-3.833-6.389-8.063-6.766-15.108C1.456,17.654,4.302,12.242,7.751,8.592
	c1.812-1.905,3.945-3.474,6.303-4.635c2.481-1.219,5.718-1.977,8.991-2.132c6.812-0.324,12.419,2.687,15.85,6.118
	c3.497,3.496,6.555,8.35,6.769,15.109C45.889,30.245,43.043,35.112,39.544,38.903L39.544,38.903z"/>
<path fill="#fff" d="M21.016,23.011c0,0,14.966-12.344,15.656-12.972c0.691-0.629,1.006-0.379,0.378,0.438
	c-0.628,0.817-12.024,16.327-12.024,16.327L21.016,23.011z M20.73,23.452l3.919,3.667l-5.642,3.489l-1.618-1.618L20.73,23.452z
	 M17.57,29.566c0,0-1.834-0.441-3.377,1.322c-1.542,1.763-1.689,6.02-4.773,6.314c0,0,0.661,0.368,1.028,0.222l-0.367,0.146
	c0,0,0.881,0.44,2.277-0.441l-0.147,0.439c0,0,7.894-2.532,6.278-7.049L17.57,29.566z"/>
</svg>
